<svg width="340" height="320" viewBox="0 0 17 16" fill="none" xmlns="http://www.w3.org/2000/svg">
<g clip-path="url(#clip0_3050_30302)">
<path d="M7.47485 3.85028L7.48768 3.81979H7.47645L7.44437 3.83744L7.47485 3.85028Z" fill="#00843D"/>
<path d="M7.47898 3.91633H7.49021C7.49619 3.91634 7.50203 3.9145 7.50691 3.91105C7.5118 3.9076 7.51549 3.90272 7.51748 3.89708L7.55278 3.81205C7.55565 3.80541 7.55593 3.79793 7.55355 3.7911C7.55117 3.78426 7.54632 3.77857 7.53995 3.77515L7.47577 3.81205H7.487L7.47417 3.84254L7.44208 3.8297L7.38272 3.86981H7.39074L7.47898 3.91633Z" fill="#00843D"/>
<path d="M7.98894 3.59054L7.97614 3.6217L8.0073 3.63451L8.02011 3.60335L7.98894 3.59054Z" fill="#00843D"/>
<path d="M7.9289 3.65957L8.01554 3.69486H8.038C8.04484 3.69124 8.05042 3.68565 8.05404 3.67882L8.08933 3.59219C8.09205 3.58493 8.09191 3.57691 8.08893 3.56976C8.08595 3.56261 8.08036 3.55686 8.07329 3.55368L8.05404 3.54565C8.00751 3.5617 7.9658 3.57935 7.92249 3.59699L7.91286 3.62106C7.91014 3.62832 7.91028 3.63633 7.91326 3.64349C7.91624 3.65064 7.92183 3.65639 7.9289 3.65957ZM7.99147 3.58417L8.02356 3.59699L8.01072 3.62908L7.97864 3.61625L7.99147 3.58417Z" fill="#00843D"/>
<path d="M6.81566 4.47927C6.82128 4.47955 6.82684 4.47797 6.83148 4.47479C6.83612 4.4716 6.83958 4.46697 6.84133 4.46163L6.87823 4.375C6.88021 4.36971 6.88051 4.36394 6.87907 4.35848C6.87763 4.35302 6.87454 4.34814 6.87021 4.34451C6.83812 4.38462 6.80764 4.42633 6.78036 4.46804L6.80283 4.47766L6.81566 4.47927Z" fill="#00843D"/>
<path d="M7.34601 4.15682L7.31392 4.14398L7.30109 4.17607L7.33317 4.1889L7.34601 4.15682Z" fill="#00843D"/>
<path d="M7.33823 4.2545H7.34946C7.35538 4.25429 7.36112 4.25236 7.36597 4.24894C7.37081 4.24552 7.37455 4.24076 7.37673 4.23525L7.41203 4.15022C7.41359 4.14665 7.41441 4.14279 7.41445 4.1389C7.41448 4.135 7.41372 4.13114 7.41223 4.12754C7.41073 4.12394 7.40852 4.12068 7.40572 4.11796C7.40293 4.11524 7.39962 4.11312 7.39599 4.11171L7.31096 4.07482C7.3037 4.0721 7.29568 4.07224 7.28853 4.07522C7.28138 4.0782 7.27563 4.08379 7.27245 4.09086L7.23555 4.17749C7.23283 4.18474 7.23298 4.19277 7.23596 4.19992C7.23894 4.20707 7.24453 4.21281 7.2516 4.21599L7.33823 4.2545ZM7.31577 4.14541L7.34625 4.15824L7.33342 4.18872L7.30293 4.17588L7.31577 4.14541Z" fill="#00843D"/>
<path d="M7.84942 3.92516L7.83655 3.9563L7.86769 3.96917L7.88056 3.93804L7.84942 3.92516Z" fill="#00843D"/>
<path d="M7.87403 4.03318H7.89649C7.9037 4.0301 7.90945 4.02434 7.91253 4.01713L7.94783 3.9305C7.94939 3.92693 7.95021 3.92308 7.95024 3.91918C7.95028 3.91528 7.94952 3.91142 7.94802 3.90782C7.94652 3.90422 7.94431 3.90097 7.94152 3.89824C7.93873 3.89552 7.93542 3.8934 7.93178 3.892L7.84515 3.8567C7.84162 3.8551 7.83779 3.85428 7.83392 3.85428C7.83005 3.85428 7.82622 3.8551 7.82269 3.8567C7.81547 3.85978 7.80973 3.86553 7.80665 3.87275L7.77135 3.95938C7.76863 3.96663 7.76877 3.97465 7.77175 3.9818C7.77473 3.98895 7.78033 3.9947 7.78739 3.99788L7.87403 4.03318ZM7.84996 3.92248L7.88205 3.93531L7.86921 3.9674L7.83713 3.95457L7.84996 3.92248Z" fill="#00843D"/>
<path d="M6.61275 4.83876C6.61854 4.8389 6.62424 4.83729 6.6291 4.83414C6.63397 4.83099 6.63777 4.82645 6.64002 4.82112L6.67692 4.73449C6.67853 4.72709 6.67853 4.71942 6.67692 4.71202C6.67384 4.70481 6.66809 4.69907 6.66088 4.69598H6.64965C6.62719 4.74251 6.60633 4.78903 6.58868 4.83556H6.60152L6.61275 4.83876Z" fill="#00843D"/>
<path d="M7.14944 4.51613L7.11736 4.5033L7.10452 4.53538L7.13661 4.54822L7.14944 4.51613Z" fill="#00843D"/>
<path d="M7.14048 4.61412H7.15171C7.1575 4.61425 7.1632 4.61264 7.16806 4.60949C7.17292 4.60634 7.17673 4.60181 7.17898 4.59648L7.21428 4.50984C7.21584 4.50627 7.21666 4.50241 7.21669 4.49852C7.21673 4.49462 7.21597 4.49076 7.21447 4.48716C7.21297 4.48356 7.21076 4.48031 7.20797 4.47759C7.20518 4.47487 7.20187 4.47274 7.19823 4.47133L7.1132 4.43604C7.10963 4.43448 7.10578 4.43366 7.10188 4.43363C7.09799 4.43359 7.09412 4.43434 7.09053 4.43584C7.08693 4.43734 7.08367 4.43955 7.08095 4.44234C7.07823 4.44513 7.0761 4.44845 7.0747 4.45208L7.0378 4.53871C7.03508 4.54597 7.03522 4.55399 7.0382 4.56115C7.04118 4.5683 7.04677 4.57404 7.05384 4.57722L7.14048 4.61412ZM7.11641 4.50342L7.1485 4.51626L7.13566 4.54834L7.10358 4.53551L7.11641 4.50342Z" fill="#00843D"/>
<path d="M7.68524 4.29487L7.65315 4.28043L7.64032 4.31251L7.67241 4.32535L7.68524 4.29487Z" fill="#00843D"/>
<path d="M7.67614 4.39108H7.68737C7.6933 4.39087 7.69903 4.38894 7.70388 4.38552C7.70872 4.3821 7.71246 4.37734 7.71464 4.37183L7.74994 4.2868C7.7515 4.28322 7.75232 4.27938 7.75236 4.27549C7.75239 4.27159 7.75164 4.26772 7.75014 4.26413C7.74864 4.26053 7.74643 4.25727 7.74364 4.25455C7.74084 4.25183 7.73753 4.2497 7.7339 4.24829L7.64726 4.2114C7.63999 4.20904 7.63211 4.20937 7.62505 4.21231C7.61799 4.21525 7.61221 4.22061 7.60876 4.22744L7.57346 4.31408C7.5719 4.31765 7.57108 4.3215 7.57105 4.3254C7.57101 4.32929 7.57177 4.33316 7.57327 4.33676C7.57477 4.34035 7.57698 4.3436 7.57977 4.34632C7.58256 4.34904 7.58587 4.35117 7.58951 4.35258L7.67614 4.39108ZM7.65208 4.28038L7.68416 4.29483L7.67133 4.32531L7.63924 4.31247L7.65208 4.28038Z" fill="#00843D"/>
<path d="M8.18666 4.06463L8.1738 4.09576L8.20493 4.10862L8.21779 4.07748L8.18666 4.06463Z" fill="#00843D"/>
<path d="M8.14456 4.00934L8.10926 4.09438C8.1077 4.09795 8.10688 4.10179 8.10684 4.10569C8.10681 4.10959 8.10756 4.11345 8.10906 4.11705C8.11056 4.12064 8.11277 4.1239 8.11557 4.12662C8.11836 4.12934 8.12167 4.13147 8.1253 4.13288L8.21194 4.16978H8.21675H8.22477C8.22477 4.11683 8.22477 4.06389 8.22477 4.00934L8.17343 3.98849C8.16698 3.98823 8.16063 3.99015 8.1554 3.99393C8.15016 3.99771 8.14635 4.00314 8.14456 4.00934ZM8.17504 4.08956L8.18788 4.05908L8.21996 4.07191L8.20713 4.104L8.17504 4.08956Z" fill="#00843D"/>
<path d="M6.50374 5.15931L6.53904 5.07268C6.5406 5.06911 6.54142 5.06526 6.54146 5.06136C6.54149 5.05747 6.54074 5.0536 6.53924 5.05C6.53774 5.04641 6.53553 5.04315 6.53274 5.04043C6.52994 5.03771 6.52663 5.03559 6.523 5.03418C6.51016 5.08231 6.49733 5.12884 6.4877 5.17697C6.49478 5.17293 6.5004 5.16674 6.50374 5.15931Z" fill="#00843D"/>
<path d="M7.00793 4.85478L6.97585 4.84195L6.96301 4.87404L6.9951 4.88687L7.00793 4.85478Z" fill="#00843D"/>
<path d="M7.00019 4.95278H7.01142C7.01721 4.95291 7.02291 4.9513 7.02777 4.94815C7.03264 4.94501 7.03644 4.94047 7.03869 4.93513L7.07559 4.84849C7.07795 4.84121 7.07762 4.83334 7.07468 4.82628C7.07174 4.81922 7.06637 4.81344 7.05955 4.80999L6.97292 4.7747C6.96934 4.77314 6.9655 4.77231 6.9616 4.77228C6.9577 4.77224 6.95384 4.773 6.95024 4.7745C6.94664 4.776 6.94338 4.77821 6.94066 4.781C6.93794 4.78379 6.93582 4.7871 6.93441 4.79074L6.89912 4.87738C6.89756 4.88095 6.89673 4.88479 6.8967 4.88869C6.89667 4.89258 6.89742 4.89645 6.89892 4.90005C6.90042 4.90364 6.90263 4.9069 6.90542 4.90962C6.90821 4.91234 6.91152 4.91447 6.91516 4.91588L7.00019 4.95278ZM6.97773 4.84208L7.00982 4.85491L6.99538 4.887L6.96489 4.87417L6.97773 4.84208Z" fill="#00843D"/>
<path d="M7.54373 4.63191L7.51164 4.61908L7.49881 4.65117L7.5309 4.664L7.54373 4.63191Z" fill="#00843D"/>
<path d="M7.53563 4.72963H7.54686C7.55279 4.72942 7.55852 4.72749 7.56337 4.72407C7.56821 4.72065 7.57195 4.71589 7.57414 4.71038L7.60943 4.62535C7.61102 4.62167 7.61186 4.61771 7.61192 4.61369C7.61197 4.60968 7.61123 4.60569 7.60974 4.60196C7.60825 4.59823 7.60604 4.59484 7.60323 4.59197C7.60042 4.5891 7.59708 4.58682 7.59339 4.58525L7.50836 4.54995C7.5011 4.54723 7.49308 4.54737 7.48593 4.55035C7.47878 4.55333 7.47303 4.55893 7.46985 4.56599L7.43295 4.65262C7.4306 4.6599 7.43092 4.66778 7.43386 4.67484C7.43681 4.6819 7.44217 4.68767 7.449 4.69113L7.53563 4.72963ZM7.51317 4.61893L7.54365 4.63337L7.53082 4.66386L7.49873 4.65102L7.51317 4.61893Z" fill="#00843D"/>
<path d="M8.07956 4.41027L8.04747 4.39743L8.03464 4.42791L8.06672 4.44075L8.07956 4.41027Z" fill="#00843D"/>
<path d="M8.07159 4.50823H8.08282C8.08861 4.50836 8.09431 4.50675 8.09917 4.5036C8.10404 4.50046 8.10784 4.49592 8.11009 4.49058L8.14539 4.40395C8.14698 4.40042 8.14781 4.39659 8.14781 4.39272C8.14781 4.38885 8.14698 4.38502 8.14539 4.38149C8.14402 4.37782 8.14188 4.37448 8.13911 4.37172C8.13634 4.36895 8.13301 4.36681 8.12934 4.36545L8.04271 4.33015C8.03914 4.32859 8.03529 4.32776 8.03139 4.32773C8.02749 4.3277 8.02363 4.32845 8.02003 4.32995C8.01643 4.33145 8.01318 4.33366 8.01046 4.33645C8.00774 4.33925 8.00561 4.34256 8.00421 4.3462L7.96891 4.43122C7.96732 4.43475 7.96649 4.43858 7.96649 4.44245C7.96649 4.44633 7.96732 4.45016 7.96891 4.45368C7.97018 4.45741 7.97228 4.46079 7.97506 4.46357C7.97785 4.46636 7.98123 4.46846 7.98495 4.46972L8.07159 4.50823ZM8.04752 4.39753L8.07961 4.41036L8.06677 4.44245L8.03469 4.42801L8.04752 4.39753Z" fill="#00843D"/>
<path d="M6.77773 5.20336L6.76486 5.2345L6.79599 5.24737L6.80886 5.21623L6.77773 5.20336Z" fill="#00843D"/>
<path d="M6.81355 5.31374C6.81953 5.31375 6.82537 5.3119 6.83025 5.30845C6.83514 5.305 6.83883 5.30012 6.84083 5.29449L6.87612 5.20945C6.87768 5.20588 6.87851 5.20204 6.87854 5.19814C6.87857 5.19424 6.87782 5.19038 6.87632 5.18678C6.87482 5.18319 6.87261 5.17993 6.86982 5.17721C6.86703 5.17449 6.86372 5.17235 6.86008 5.17095L6.77505 5.13566C6.77152 5.13406 6.76769 5.13324 6.76382 5.13324C6.75995 5.13324 6.75612 5.13406 6.75259 5.13566C6.74873 5.13667 6.74521 5.13868 6.74239 5.1415C6.73957 5.14432 6.73755 5.14784 6.73655 5.1517L6.70125 5.23673C6.69964 5.2402 6.69874 5.24395 6.6986 5.24778C6.69846 5.2516 6.69907 5.25542 6.70042 5.259C6.70176 5.26258 6.7038 5.26587 6.70642 5.26865C6.70905 5.27144 6.71219 5.27368 6.71569 5.27524L6.80232 5.31053L6.81355 5.31374ZM6.77986 5.20143L6.81035 5.21427L6.79751 5.24475L6.76703 5.23191L6.77986 5.20143Z" fill="#00843D"/>
<path d="M7.3138 4.98098L7.30093 5.01212L7.33207 5.02499L7.34494 4.99385L7.3138 4.98098Z" fill="#00843D"/>
<path d="M7.33823 5.0888H7.36069C7.3679 5.08572 7.37365 5.07998 7.37673 5.07276L7.41203 4.98613C7.41359 4.98256 7.41441 4.97871 7.41445 4.97481C7.41448 4.97092 7.41372 4.96705 7.41223 4.96346C7.41073 4.95986 7.40852 4.9566 7.40572 4.95388C7.40293 4.95116 7.39962 4.94904 7.39599 4.94763L7.30935 4.91233C7.30582 4.91074 7.30199 4.90991 7.29812 4.90991C7.29425 4.90991 7.29042 4.91074 7.28689 4.91233C7.27968 4.91541 7.27393 4.92116 7.27085 4.92837L7.23555 5.01501C7.23283 5.02227 7.23298 5.03028 7.23596 5.03743C7.23894 5.04459 7.24453 5.05034 7.2516 5.05351L7.33823 5.0888ZM7.31416 4.9781L7.34625 4.99094L7.33342 5.02303L7.30133 5.01019L7.31416 4.9781Z" fill="#00843D"/>
<path d="M7.8491 4.76287L7.83624 4.79401L7.86739 4.80687L7.88024 4.77573L7.8491 4.76287Z" fill="#00843D"/>
<path d="M7.87403 4.86288H7.88526C7.89118 4.86267 7.89692 4.86074 7.90176 4.85732C7.90661 4.8539 7.91035 4.84915 7.91253 4.84363L7.94783 4.757C7.94942 4.75347 7.95025 4.74964 7.95025 4.74577C7.95025 4.7419 7.94942 4.73807 7.94783 4.73454C7.94421 4.7277 7.93862 4.7221 7.93178 4.71849L7.84515 4.6832C7.83787 4.68084 7.82999 4.68117 7.82293 4.68411C7.81587 4.68705 7.8101 4.69241 7.80665 4.69924L7.77135 4.78588C7.76863 4.79313 7.76877 4.80115 7.77175 4.8083C7.77473 4.81545 7.78033 4.8212 7.78739 4.82438L7.87403 4.86288ZM7.84996 4.75218L7.88205 4.76502L7.86921 4.79711L7.83713 4.78427L7.84996 4.75218Z" fill="#00843D"/>
<path d="M6.6374 5.54477L6.62451 5.5759L6.65564 5.58879L6.66853 5.55766L6.6374 5.54477Z" fill="#00843D"/>
<path d="M6.63368 5.47224C6.62638 5.46991 6.61853 5.46991 6.61122 5.47224C6.60761 5.47323 6.60428 5.47505 6.60149 5.47756C6.59871 5.48006 6.59654 5.48319 6.59518 5.48668L6.55988 5.57331C6.55832 5.57688 6.5575 5.58074 6.55747 5.58463C6.55743 5.58853 6.55819 5.59239 6.55969 5.59599C6.56119 5.59959 6.5634 5.60285 6.56619 5.60557C6.56898 5.60829 6.57229 5.61041 6.57593 5.61182L6.66096 5.64712H6.67379H6.68502C6.68874 5.64585 6.69213 5.64374 6.69491 5.64096C6.69769 5.63817 6.6998 5.63479 6.70106 5.63107L6.73636 5.54604C6.73792 5.54247 6.73874 5.53862 6.73878 5.53472C6.73881 5.53083 6.73806 5.52696 6.73656 5.52336C6.73506 5.51977 6.73285 5.51651 6.73005 5.51379C6.72726 5.51107 6.72395 5.50895 6.72032 5.50754L6.63368 5.47224ZM6.65775 5.58294L6.62566 5.5701L6.6385 5.53962L6.67058 5.55246L6.65775 5.58294Z" fill="#00843D"/>
<path d="M7.17312 5.32214L7.16031 5.3533L7.19147 5.36611L7.20428 5.33495L7.17312 5.32214Z" fill="#00843D"/>
<path d="M7.16948 5.25098C7.16595 5.24939 7.16212 5.24857 7.15825 5.24857C7.15438 5.24857 7.15055 5.24939 7.14702 5.25098C7.14335 5.25235 7.14002 5.25449 7.13725 5.25726C7.13448 5.26003 7.13234 5.26336 7.13098 5.26703L7.09568 5.35366C7.09412 5.35723 7.0933 5.36109 7.09326 5.36498C7.09323 5.36888 7.09398 5.37274 7.09548 5.37634C7.09698 5.37994 7.09919 5.3832 7.10199 5.38592C7.10478 5.38864 7.10809 5.39076 7.11172 5.39217L7.19675 5.42747H7.20798C7.21378 5.4276 7.21948 5.42598 7.22434 5.42284C7.2292 5.41969 7.23301 5.41515 7.23526 5.40981L7.27056 5.32318C7.27216 5.31971 7.27306 5.31595 7.27321 5.31213C7.27335 5.3083 7.27273 5.3045 7.27139 5.30091C7.27004 5.29733 7.268 5.29405 7.26538 5.29126C7.26276 5.28847 7.25961 5.28624 7.25611 5.28468L7.16948 5.25098ZM7.19194 5.36168L7.16146 5.34886L7.17429 5.31677L7.20478 5.3296L7.19194 5.36168Z" fill="#00843D"/>
<path d="M7.70869 5.09969L7.69583 5.13083L7.72697 5.14369L7.73984 5.11255L7.70869 5.09969Z" fill="#00843D"/>
<path d="M7.80616 5.07948C7.80307 5.07226 7.79732 5.06652 7.79011 5.06344L7.70508 5.02815C7.70151 5.02658 7.69766 5.02576 7.69376 5.02573C7.68987 5.02569 7.686 5.02644 7.6824 5.02794C7.67881 5.02944 7.67555 5.03165 7.67283 5.03444C7.67011 5.03723 7.66798 5.04055 7.66658 5.04419L7.62968 5.13082C7.62808 5.13435 7.62726 5.13817 7.62726 5.14205C7.62726 5.14592 7.62808 5.14975 7.62968 5.15328C7.63329 5.16012 7.63888 5.1657 7.64572 5.16932L7.73235 5.20462H7.74359C7.74938 5.20475 7.75508 5.20314 7.75994 5.2C7.7648 5.19685 7.76861 5.19231 7.77086 5.18697L7.80616 5.10033C7.80892 5.09366 7.80892 5.08615 7.80616 5.07948ZM7.72754 5.13884L7.69546 5.12601L7.70989 5.09392L7.74038 5.10676L7.72754 5.13884Z" fill="#00843D"/>
<path d="M8.24404 4.87091L8.2312 4.903L8.26329 4.91583L8.27612 4.88535L8.24404 4.87091Z" fill="#00843D"/>
<path d="M8.20196 4.82113L8.16666 4.90777C8.1651 4.91134 8.16428 4.91518 8.16425 4.91908C8.16421 4.92298 8.16497 4.92684 8.16647 4.93044C8.16797 4.93403 8.17018 4.93729 8.17297 4.94001C8.17576 4.94273 8.17907 4.94487 8.18271 4.94627L8.26934 4.98156H8.28057C8.28655 4.98157 8.29239 4.97972 8.29727 4.97627C8.30216 4.97283 8.30585 4.96795 8.30785 4.96231V4.94947C8.29822 4.90776 8.2902 4.86445 8.28218 4.82273L8.23565 4.80188C8.2287 4.80097 8.22165 4.80236 8.21556 4.80583C8.20948 4.80931 8.2047 4.81468 8.20196 4.82113ZM8.23244 4.90295L8.24528 4.87247L8.27736 4.88531L8.26453 4.91579L8.23244 4.90295Z" fill="#00843D"/>
<path d="M6.47337 5.91042L6.44128 5.89758L6.43326 5.91523C6.43405 5.92108 6.43405 5.92702 6.43326 5.93287L6.45732 5.9425L6.47337 5.91042Z" fill="#00843D"/>
<path d="M6.47539 6.00991C6.48123 6.01028 6.48703 6.00876 6.49195 6.00558C6.49686 6.0024 6.50061 5.99773 6.50267 5.99225L6.53957 5.90562C6.54192 5.89834 6.5416 5.89046 6.53866 5.8834C6.53571 5.87634 6.53035 5.87057 6.52352 5.86712L6.43689 5.83182C6.43689 5.8607 6.43689 5.88797 6.43689 5.91525L6.44491 5.8976L6.477 5.91044L6.46256 5.94252L6.43849 5.93289V5.99867L6.46256 6.0083L6.47539 6.00991Z" fill="#00843D"/>
<path d="M7.00793 5.68758L6.97585 5.67474L6.96301 5.70683L6.9951 5.71967L7.00793 5.68758Z" fill="#00843D"/>
<path d="M6.999 5.78526H7.01023C7.01615 5.78505 7.02189 5.78312 7.02673 5.7797C7.03158 5.77628 7.03532 5.77153 7.0375 5.76601L7.0728 5.68098C7.07462 5.67745 7.07564 5.67356 7.0758 5.66959C7.07596 5.66562 7.07525 5.66166 7.07373 5.658C7.0722 5.65433 7.06989 5.65104 7.06696 5.64836C7.06402 5.64568 7.06054 5.64367 7.05675 5.64248L6.97172 5.60558C6.96447 5.60286 6.95645 5.603 6.9493 5.60598C6.94214 5.60896 6.9364 5.61455 6.93322 5.62162L6.89632 5.70826C6.8936 5.71551 6.89374 5.72353 6.89672 5.73068C6.8997 5.73783 6.9053 5.74358 6.91236 5.74676L6.999 5.78526ZM6.97653 5.67456L7.00702 5.68901L6.99418 5.71949L6.9621 5.70665L6.97653 5.67456Z" fill="#00843D"/>
<path d="M7.50966 5.45873L7.4968 5.48987L7.52793 5.50273L7.54079 5.47159L7.50966 5.45873Z" fill="#00843D"/>
<path d="M7.53579 5.56389H7.54702C7.55282 5.56402 7.55851 5.56241 7.56338 5.55927C7.56824 5.55612 7.57205 5.55158 7.5743 5.54624L7.60959 5.4596C7.61119 5.45608 7.61201 5.45226 7.61201 5.44838C7.61201 5.44451 7.61119 5.44068 7.60959 5.43715C7.60823 5.43348 7.60609 5.43015 7.60332 5.42738C7.60055 5.42461 7.59722 5.42247 7.59355 5.4211L7.50692 5.38581C7.50334 5.38425 7.49949 5.38343 7.4956 5.38339C7.4917 5.38336 7.48783 5.38412 7.48424 5.38562C7.48064 5.38712 7.47738 5.38933 7.47466 5.39212C7.47194 5.39491 7.46982 5.39822 7.46841 5.40185L7.43311 5.48688C7.43155 5.49046 7.43073 5.49431 7.4307 5.4982C7.43066 5.5021 7.43142 5.50597 7.43292 5.50956C7.43442 5.51316 7.43663 5.51641 7.43942 5.51913C7.44221 5.52185 7.44552 5.52398 7.44916 5.52539L7.53579 5.56389ZM7.51173 5.45319L7.54381 5.46603L7.53098 5.49812L7.49889 5.48367L7.51173 5.45319Z" fill="#00843D"/>
<path d="M8.07795 5.24306L8.04747 5.23022L8.03464 5.26231L8.06512 5.27515L8.07795 5.24306Z" fill="#00843D"/>
<path d="M8.07175 5.34414H8.08298C8.08877 5.34428 8.09447 5.34267 8.09933 5.33952C8.1042 5.33638 8.108 5.33184 8.11026 5.3265L8.14555 5.23986C8.14827 5.2326 8.14813 5.22459 8.14515 5.21743C8.14217 5.21028 8.13657 5.20453 8.12951 5.20136L8.04287 5.16607C8.03562 5.16335 8.0276 5.16349 8.02045 5.16647C8.0133 5.16945 8.00755 5.17504 8.00437 5.1821L7.96907 5.26875C7.96635 5.276 7.9665 5.28402 7.96948 5.29117C7.97246 5.29832 7.97805 5.30407 7.98512 5.30725L8.07175 5.34414ZM8.04769 5.23344L8.07977 5.24628L8.06694 5.27837L8.03485 5.26553L8.04769 5.23344Z" fill="#00843D"/>
<path d="M6.8215 6.04503L6.85359 6.05786L6.86642 6.02577L6.83594 6.01294L6.8215 6.04503Z" fill="#00843D"/>
<path d="M6.83141 5.9471C6.82415 5.94438 6.81613 5.94452 6.80898 5.9475C6.80183 5.95048 6.79608 5.95607 6.7929 5.96314L6.75761 6.04978C6.75605 6.05335 6.75522 6.05719 6.75519 6.06109C6.75516 6.06499 6.75591 6.06885 6.75741 6.07245C6.75891 6.07605 6.76112 6.07931 6.76391 6.08203C6.7667 6.08475 6.77002 6.08688 6.77365 6.08828L6.85868 6.12357H6.86991C6.87595 6.12384 6.8819 6.12209 6.88684 6.11861C6.89177 6.11512 6.89541 6.1101 6.89718 6.10432L6.93408 6.0193C6.93688 6.01182 6.93679 6.00356 6.93382 5.99614C6.93086 5.98872 6.92523 5.98268 6.91804 5.97919L6.83141 5.9471ZM6.85547 6.0578L6.82338 6.04496L6.83622 6.01287L6.86831 6.02732L6.85547 6.0578Z" fill="#00843D"/>
<path d="M7.35733 5.8222L7.38942 5.83503L7.40225 5.80455L7.37016 5.79172L7.35733 5.8222Z" fill="#00843D"/>
<path d="M7.36634 5.72566C7.36277 5.72409 7.35892 5.72327 7.35503 5.72324C7.35113 5.7232 7.34726 5.72396 7.34367 5.72546C7.34007 5.72696 7.33681 5.72917 7.33409 5.73196C7.33137 5.73475 7.32925 5.73806 7.32784 5.7417L7.29094 5.82673C7.28933 5.83413 7.28933 5.84179 7.29094 5.84919C7.2922 5.85292 7.29431 5.8563 7.29709 5.85908C7.29987 5.86186 7.30326 5.86397 7.30698 5.86523L7.39362 5.90213H7.40485C7.41064 5.90226 7.41634 5.90065 7.4212 5.89751C7.42606 5.89436 7.42987 5.88982 7.43212 5.88448L7.46742 5.79785C7.46901 5.79432 7.46983 5.79049 7.46983 5.78662C7.46983 5.78275 7.46901 5.77892 7.46742 5.77539C7.46641 5.77153 7.46439 5.76802 7.46157 5.7652C7.45875 5.76238 7.45523 5.76036 7.45137 5.75935L7.36634 5.72566ZM7.3888 5.83635L7.35832 5.82191L7.37116 5.79143L7.40164 5.80427L7.3888 5.83635Z" fill="#00843D"/>
<path d="M7.89313 5.60051L7.92521 5.61334L7.93805 5.58126L7.90596 5.56842L7.89313 5.60051Z" fill="#00843D"/>
<path d="M7.89596 5.50423C7.88871 5.50151 7.88069 5.50165 7.87353 5.50463C7.86638 5.50761 7.86063 5.5132 7.85746 5.52027L7.82216 5.60691C7.81944 5.61417 7.81959 5.62218 7.82257 5.62933C7.82555 5.63649 7.83114 5.64224 7.8382 5.64541L7.92484 5.6807H7.93607C7.94186 5.68084 7.94756 5.67923 7.95242 5.67608C7.95729 5.67293 7.96109 5.6684 7.96334 5.66306L7.99864 5.57643C8.0002 5.57286 8.00102 5.56901 8.00106 5.56511C8.00109 5.56121 8.00034 5.55735 7.99884 5.55375C7.99734 5.55015 7.99513 5.54689 7.99233 5.54417C7.98954 5.54145 7.98623 5.53933 7.98259 5.53793L7.89596 5.50423ZM7.92002 5.61493L7.88794 5.60209L7.90077 5.57L7.93286 5.58284L7.92002 5.61493Z" fill="#00843D"/>
<path d="M8.36339 5.38255C8.36067 5.3898 8.36081 5.39782 8.36379 5.40497C8.36677 5.41212 8.37237 5.41787 8.37943 5.42105L8.46607 5.45635L8.43719 5.38094H8.42917V5.37292C8.41954 5.34725 8.40991 5.31998 8.40189 5.29431L8.36339 5.38255Z" fill="#00843D"/>
<path d="M6.63685 6.37877L6.62399 6.40991L6.65514 6.42277L6.668 6.39163L6.63685 6.37877Z" fill="#00843D"/>
<path d="M6.63368 6.30662C6.63015 6.30502 6.62632 6.3042 6.62245 6.3042C6.61858 6.3042 6.61475 6.30502 6.61122 6.30662C6.60755 6.30798 6.60422 6.31013 6.60145 6.31289C6.59868 6.31566 6.59654 6.31899 6.59518 6.32266L6.55988 6.4093C6.55832 6.41287 6.5575 6.41672 6.55747 6.42062C6.55743 6.42451 6.55819 6.42838 6.55969 6.43198C6.56119 6.43557 6.5634 6.43882 6.56619 6.44154C6.56898 6.44426 6.57229 6.44639 6.57593 6.4478L6.66096 6.48309H6.67219C6.67798 6.48322 6.68368 6.48162 6.68854 6.47847C6.6934 6.47532 6.69721 6.47078 6.69946 6.46545L6.73476 6.37881C6.73636 6.37534 6.73726 6.37158 6.73741 6.36776C6.73755 6.36394 6.73693 6.36012 6.73559 6.35654C6.73425 6.35296 6.7322 6.34968 6.72958 6.34689C6.72696 6.34411 6.72381 6.34187 6.72032 6.34031L6.63368 6.30662ZM6.65614 6.41732L6.62566 6.40448L6.6385 6.37239L6.66898 6.38523L6.65614 6.41732Z" fill="#00843D"/>
<path d="M7.17207 6.15529L7.15921 6.18643L7.19035 6.19929L7.20321 6.16815L7.17207 6.15529Z" fill="#00843D"/>
<path d="M7.16912 6.08378C7.16555 6.08222 7.1617 6.08139 7.15781 6.08136C7.15391 6.08133 7.15004 6.08208 7.14645 6.08358C7.14285 6.08508 7.13959 6.08729 7.13687 6.09009C7.13415 6.09288 7.13203 6.09619 7.13062 6.09983L7.09372 6.18646C7.09137 6.19374 7.09169 6.20162 7.09463 6.20868C7.09757 6.21574 7.10294 6.22151 7.10976 6.22496L7.1964 6.26026H7.20763C7.21355 6.26005 7.21929 6.25812 7.22413 6.2547C7.22898 6.25128 7.23272 6.24652 7.2349 6.24101L7.2702 6.15437C7.27179 6.15084 7.27262 6.14701 7.27262 6.14314C7.27262 6.13927 7.27179 6.13544 7.2702 6.13191C7.26711 6.12469 7.26137 6.11895 7.25415 6.11587L7.16912 6.08378ZM7.19158 6.19448L7.1595 6.18164L7.17394 6.14956L7.20442 6.16239L7.19158 6.19448Z" fill="#00843D"/>
<path d="M7.69537 5.95867L7.72746 5.97151L7.74029 5.94103L7.70821 5.92819L7.69537 5.95867Z" fill="#00843D"/>
<path d="M7.665 5.87843L7.62971 5.96346C7.62814 5.96703 7.62732 5.97088 7.62729 5.97478C7.62726 5.97868 7.62801 5.98254 7.62951 5.98614C7.63101 5.98974 7.63322 5.99299 7.63601 5.99571C7.6388 5.99843 7.64212 6.00056 7.64575 6.00196L7.73238 6.03887H7.74361C7.74959 6.03888 7.75543 6.03703 7.76032 6.03358C7.7652 6.03013 7.76889 6.02525 7.77089 6.01962L7.80618 5.93458C7.80774 5.93101 7.80857 5.92716 7.8086 5.92326C7.80864 5.91937 7.80788 5.9155 7.80638 5.9119C7.80488 5.90831 7.80267 5.90506 7.79988 5.90234C7.79709 5.89962 7.79377 5.89749 7.79014 5.89608L7.70351 5.86078C7.69983 5.85926 7.69589 5.85851 7.69191 5.85859C7.68793 5.85866 7.68402 5.85954 7.6804 5.8612C7.67679 5.86286 7.67355 5.86525 7.6709 5.86821C7.66825 5.87118 7.66624 5.87466 7.665 5.87843ZM7.72757 5.97148L7.69548 5.95865L7.70832 5.92817L7.74041 5.941L7.72757 5.97148Z" fill="#00843D"/>
<path d="M8.27612 5.7177L8.24404 5.70486L8.2312 5.73695L8.26168 5.74979L8.27612 5.7177Z" fill="#00843D"/>
<path d="M8.26934 5.81549H8.28057C8.28636 5.81562 8.29206 5.81401 8.29692 5.81087C8.30179 5.80772 8.30559 5.80318 8.30784 5.79784L8.34314 5.7112C8.34586 5.70395 8.34572 5.69593 8.34274 5.68878C8.33976 5.68163 8.33416 5.67588 8.3271 5.6727L8.24046 5.63741C8.23321 5.63469 8.22519 5.63483 8.21804 5.63781C8.21088 5.64079 8.20514 5.64638 8.20196 5.65345L8.16666 5.74008C8.1651 5.74365 8.16428 5.7475 8.16425 5.7514C8.16421 5.7553 8.16497 5.75916 8.16647 5.76276C8.16797 5.76636 8.17018 5.76961 8.17297 5.77233C8.17576 5.77505 8.17907 5.77719 8.18271 5.77859L8.26934 5.81549ZM8.24528 5.70479L8.27736 5.71763L8.26453 5.74971L8.23244 5.73688L8.24528 5.70479Z" fill="#00843D"/>
<path d="M6.57973 6.6803H6.56689L6.58615 6.74607L6.59577 6.72361C6.59789 6.71977 6.59916 6.71552 6.59949 6.71115C6.59982 6.70678 6.5992 6.70239 6.59768 6.69828C6.59616 6.69416 6.59377 6.69043 6.59067 6.68733C6.58757 6.68423 6.58384 6.68183 6.57973 6.6803Z" fill="#00843D"/>
<path d="M7.03032 6.49456L7.01746 6.5257L7.0486 6.53856L7.06146 6.50742L7.03032 6.49456Z" fill="#00843D"/>
<path d="M7.02916 6.42219C7.0219 6.41947 7.01389 6.41963 7.00673 6.42261C6.99958 6.42559 6.99383 6.43118 6.99066 6.43824L6.95536 6.52487C6.95377 6.5284 6.95294 6.53223 6.95294 6.53611C6.95294 6.53998 6.95377 6.54381 6.95536 6.54734C6.95663 6.55106 6.95873 6.55445 6.96151 6.55723C6.9643 6.56001 6.96768 6.56211 6.9714 6.56338L7.05643 6.59868H7.06766C7.07346 6.59881 7.07915 6.5972 7.08402 6.59406C7.08888 6.59091 7.09269 6.58637 7.09494 6.58103L7.13184 6.49439C7.13344 6.48699 7.13344 6.47934 7.13184 6.47194C7.12822 6.4651 7.12263 6.4595 7.11579 6.45589L7.02916 6.42219ZM7.05162 6.53289L7.02114 6.52007L7.03397 6.48798L7.06446 6.50082L7.05162 6.53289Z" fill="#00843D"/>
<path d="M7.55505 6.29683L7.58714 6.30966L7.59997 6.27918L7.56789 6.26474L7.55505 6.29683Z" fill="#00843D"/>
<path d="M7.56476 6.1989C7.5575 6.19618 7.54949 6.19632 7.54234 6.1993C7.53518 6.20228 7.52943 6.20787 7.52626 6.21494L7.48936 6.30157C7.4878 6.30514 7.48697 6.30899 7.48694 6.31289C7.48691 6.31679 7.48766 6.32065 7.48916 6.32425C7.49066 6.32785 7.49287 6.33111 7.49566 6.33383C7.49845 6.33655 7.50177 6.33868 7.5054 6.34008L7.59204 6.37537H7.60326C7.60924 6.37538 7.61508 6.37354 7.61997 6.37009C7.62485 6.36664 7.62855 6.36176 7.63054 6.35612L7.66583 6.2711C7.6674 6.26753 7.66822 6.26368 7.66825 6.25978C7.66829 6.25588 7.66753 6.25202 7.66603 6.24842C7.66453 6.24482 7.66232 6.24156 7.65953 6.23884C7.65674 6.23612 7.65343 6.23399 7.64979 6.23259L7.56476 6.1989ZM7.58722 6.3096L7.55513 6.29676L7.56958 6.26628L7.60006 6.27912L7.58722 6.3096Z" fill="#00843D"/>
<path d="M8.09085 6.074L8.12294 6.08844L8.13577 6.05635L8.10369 6.04352L8.09085 6.074Z" fill="#00843D"/>
<path d="M8.09912 5.98576C8.09554 5.9842 8.0917 5.98337 8.0878 5.98334C8.0839 5.9833 8.08004 5.98406 8.07644 5.98556C8.07284 5.98706 8.06959 5.98927 8.06686 5.99206C8.06414 5.99485 8.06202 5.99816 8.06061 6.0018L8.02532 6.08844C8.0226 6.09569 8.02274 6.10371 8.02572 6.11086C8.0287 6.11801 8.03429 6.12376 8.04136 6.12694L8.12799 6.16223H8.13922C8.14502 6.16236 8.15072 6.16075 8.15558 6.15761C8.16044 6.15446 8.16425 6.14992 8.1665 6.14458L8.20179 6.05795C8.20451 6.0507 8.20437 6.04268 8.20139 6.03553C8.19841 6.02838 8.19282 6.02263 8.18575 6.01945L8.09912 5.98576ZM8.12318 6.09646L8.0911 6.08362L8.10393 6.05153L8.13602 6.06437L8.12318 6.09646Z" fill="#00843D"/>
<path d="M8.62668 5.85247L8.65877 5.8653V5.85086L8.64433 5.8252H8.6347L8.62668 5.85247Z" fill="#00843D"/>
<path d="M8.56098 5.85762C8.55942 5.86119 8.5586 5.86505 8.55856 5.86894C8.55853 5.87284 8.55929 5.8767 8.56078 5.8803C8.56228 5.8839 8.5645 5.88715 8.56729 5.88987C8.57008 5.89259 8.57339 5.89472 8.57703 5.89613L8.66366 5.93142H8.67489C8.68068 5.93155 8.68638 5.92994 8.69124 5.9268C8.69611 5.92365 8.69991 5.91911 8.70217 5.91377L8.66206 5.85441V5.86886L8.62997 5.85602L8.6428 5.82393H8.65243L8.61393 5.75494C8.60767 5.75806 8.6026 5.76313 8.59949 5.76939L8.56098 5.85762Z" fill="#00843D"/>
<path d="M6.83351 6.8525L6.82065 6.88364L6.85178 6.89649L6.86464 6.86535L6.83351 6.8525Z" fill="#00843D"/>
<path d="M6.93368 6.83263C6.93267 6.82877 6.93066 6.82525 6.92784 6.82243C6.92502 6.81961 6.9215 6.81759 6.91764 6.81658L6.83261 6.78129C6.82904 6.77973 6.82519 6.7789 6.82129 6.77887C6.8174 6.77884 6.81353 6.77958 6.80993 6.78108C6.80634 6.78258 6.80308 6.78479 6.80036 6.78759C6.79764 6.79038 6.79551 6.79369 6.79411 6.79733L6.75881 6.88236C6.75642 6.88651 6.75516 6.89121 6.75516 6.89599C6.75516 6.90078 6.75642 6.90549 6.75881 6.90963H6.90801L6.93048 6.85508C6.93259 6.85179 6.93397 6.84808 6.93453 6.8442C6.93508 6.84033 6.93479 6.83638 6.93368 6.83263ZM6.85507 6.89199L6.82459 6.87755L6.83742 6.84706L6.86791 6.8599L6.85507 6.89199Z" fill="#00843D"/>
<path d="M7.35733 6.6566L7.38942 6.66943L7.40225 6.63735L7.37016 6.62451L7.35733 6.6566Z" fill="#00843D"/>
<path d="M7.36557 6.5587C7.35831 6.55598 7.35029 6.55613 7.34314 6.55911C7.33599 6.56209 7.33024 6.56768 7.32706 6.57474L7.29177 6.66138C7.28905 6.66864 7.28919 6.67666 7.29217 6.68381C7.29515 6.69096 7.30074 6.69671 7.30781 6.69989L7.39444 6.73518H7.40567C7.41147 6.73531 7.41716 6.7337 7.42203 6.73056C7.42689 6.72741 7.4307 6.72287 7.43295 6.71753L7.46824 6.6309C7.4698 6.62733 7.47063 6.62348 7.47066 6.61958C7.47069 6.61568 7.46994 6.61182 7.46844 6.60822C7.46694 6.60463 7.46473 6.60137 7.46194 6.59865C7.45915 6.59593 7.45583 6.5938 7.4522 6.5924L7.36557 6.5587ZM7.38963 6.6694L7.35754 6.65657L7.37038 6.62448L7.40246 6.63732L7.38963 6.6694Z" fill="#00843D"/>
<path d="M7.90532 6.40921L7.89252 6.44037L7.92368 6.45318L7.93649 6.42201L7.90532 6.40921Z" fill="#00843D"/>
<path d="M7.89596 6.33558C7.89243 6.33398 7.8886 6.33316 7.88473 6.33316C7.88086 6.33316 7.87703 6.33398 7.8735 6.33558C7.86666 6.33919 7.86107 6.34479 7.85746 6.35163L7.82216 6.43826C7.81944 6.44551 7.81959 6.45353 7.82257 6.46068C7.82555 6.46784 7.83114 6.47358 7.8382 6.47676L7.92484 6.51206H7.93607C7.94199 6.51185 7.94773 6.50992 7.95258 6.5065C7.95742 6.50308 7.96116 6.49832 7.96334 6.4928L7.99864 6.40778C8.0002 6.40421 8.00102 6.40035 8.00106 6.39646C8.00109 6.39256 8.00034 6.3887 7.99884 6.3851C7.99734 6.3815 7.99513 6.37824 7.99233 6.37552C7.98954 6.3728 7.98623 6.37068 7.98259 6.36927L7.89596 6.33558ZM7.92002 6.44628L7.88794 6.43344L7.90077 6.40136L7.93286 6.4158L7.92002 6.44628Z" fill="#00843D"/>
<path d="M8.44009 6.18322L8.42722 6.21436L8.45835 6.22723L8.47122 6.19609L8.44009 6.18322Z" fill="#00843D"/>
<path d="M8.43733 6.11393C8.43376 6.11237 8.42991 6.11155 8.42602 6.11151C8.42212 6.11148 8.41825 6.11224 8.41466 6.11374C8.41106 6.11523 8.4078 6.11745 8.40508 6.12024C8.40236 6.12303 8.40024 6.12635 8.39883 6.12998L8.36354 6.215C8.36172 6.21854 8.36069 6.22242 8.36053 6.22639C8.36037 6.23036 8.36107 6.23432 8.3626 6.23799C8.36413 6.24165 8.36644 6.24494 8.36937 6.24762C8.37231 6.2503 8.37579 6.25231 8.37958 6.25351L8.46461 6.29041H8.48707C8.49079 6.28915 8.49418 6.28704 8.49696 6.28425C8.49974 6.28147 8.50184 6.27809 8.50311 6.27436L8.54001 6.18773C8.54273 6.18048 8.54259 6.17246 8.53961 6.16531C8.53663 6.15816 8.53103 6.15241 8.52397 6.14923L8.43733 6.11393ZM8.45979 6.22463L8.42931 6.2102L8.44215 6.17971L8.47423 6.19254L8.45979 6.22463Z" fill="#00843D"/>
<path d="M7.1886 6.90991H7.25438L7.22229 6.89707C7.21604 6.89559 7.20948 6.89603 7.20347 6.89832C7.19746 6.9006 7.19228 6.90464 7.1886 6.90991Z" fill="#00843D"/>
<path d="M7.75162 6.77192L7.7837 6.78476L7.79654 6.75267L7.76445 6.73984L7.75162 6.77192Z" fill="#00843D"/>
<path d="M7.76149 6.67423C7.75792 6.67267 7.75406 6.67185 7.75017 6.67182C7.74627 6.67178 7.74241 6.67254 7.73881 6.67404C7.73521 6.67554 7.73195 6.67775 7.72923 6.68054C7.72651 6.68333 7.72439 6.68665 7.72298 6.69028L7.68608 6.77691C7.68336 6.78417 7.68351 6.79218 7.68649 6.79934C7.68947 6.80649 7.69506 6.81224 7.70213 6.81542L7.78876 6.85072H7.79999C7.80592 6.85051 7.81165 6.84857 7.8165 6.84515C7.82134 6.84173 7.82508 6.83698 7.82727 6.83146L7.86256 6.74643C7.86415 6.74274 7.86499 6.73878 7.86505 6.73477C7.8651 6.73075 7.86436 6.72677 7.86287 6.72305C7.86138 6.71932 7.85917 6.71592 7.85636 6.71305C7.85355 6.71018 7.85021 6.7079 7.84652 6.70632L7.76149 6.67423ZM7.78395 6.78493L7.75186 6.77211L7.76469 6.74002L7.79678 6.75445L7.78395 6.78493Z" fill="#00843D"/>
<path d="M8.29998 6.52163L8.28711 6.55276L8.31825 6.56564L8.33112 6.5345L8.29998 6.52163Z" fill="#00843D"/>
<path d="M8.29671 6.45258C8.29318 6.45099 8.28935 6.45016 8.28548 6.45016C8.2816 6.45016 8.27778 6.45099 8.27425 6.45258C8.26704 6.45567 8.26129 6.46142 8.2582 6.46863L8.22291 6.55366C8.22135 6.55723 8.22052 6.56108 8.22049 6.56498C8.22046 6.56887 8.22121 6.57274 8.22271 6.57634C8.22421 6.57993 8.22642 6.58319 8.22921 6.58591C8.232 6.58863 8.23532 6.59076 8.23895 6.59217L8.32559 6.62907H8.34805C8.35488 6.62545 8.36048 6.61985 8.36409 6.61302L8.39939 6.52639C8.40095 6.52282 8.40177 6.51896 8.4018 6.51507C8.40184 6.51117 8.40108 6.50731 8.39958 6.50371C8.39808 6.50011 8.39587 6.49685 8.39308 6.49413C8.39029 6.49141 8.38698 6.48929 8.38334 6.48788L8.29671 6.45258ZM8.32077 6.56328L8.28869 6.54885L8.30152 6.51837L8.33361 6.5312L8.32077 6.56328Z" fill="#00843D"/>
<path d="M8.8244 6.32744L8.85488 6.34027L8.86772 6.30818L8.83724 6.29535L8.8244 6.32744Z" fill="#00843D"/>
<path d="M8.8325 6.22954C8.82525 6.22682 8.81723 6.22696 8.81008 6.22994C8.80293 6.23292 8.79718 6.23851 8.794 6.24558L8.7587 6.33221C8.75714 6.33578 8.75632 6.33963 8.75629 6.34353C8.75625 6.34743 8.75701 6.35129 8.75851 6.35489C8.76001 6.35849 8.76222 6.36175 8.76501 6.36447C8.7678 6.36719 8.77111 6.36932 8.77475 6.37072L8.86138 6.40601H8.87261C8.87841 6.40615 8.8841 6.40454 8.88897 6.40139C8.89383 6.39825 8.89764 6.39371 8.89989 6.38837L8.93518 6.30173C8.9379 6.29447 8.93776 6.28646 8.93478 6.27931C8.9318 6.27215 8.92621 6.2664 8.91914 6.26323L8.8325 6.22954ZM8.85657 6.34024L8.82448 6.3274L8.83732 6.29532L8.8694 6.30815L8.85657 6.34024Z" fill="#00843D"/>
<path d="M8.10369 6.87631L8.09085 6.9084L8.09566 6.91H8.12615L8.13417 6.88915L8.10369 6.87631Z" fill="#00843D"/>
<path d="M8.18559 6.8458L8.09896 6.8105C8.0917 6.80778 8.08369 6.80793 8.07653 6.81091C8.06938 6.81389 8.06363 6.81948 8.06046 6.82654L8.02676 6.90997H8.09094L8.10377 6.87788L8.13586 6.89072L8.12623 6.91158H8.19041L8.20163 6.8859C8.20322 6.88222 8.20407 6.87826 8.20412 6.87424C8.20417 6.87023 8.20344 6.86625 8.20195 6.86252C8.20045 6.85879 8.19824 6.8554 8.19544 6.85253C8.19263 6.84966 8.18929 6.84737 8.18559 6.8458Z" fill="#00843D"/>
<path d="M8.62485 6.68515L8.65693 6.69798L8.66977 6.6675L8.63768 6.65466L8.62485 6.68515Z" fill="#00843D"/>
<path d="M8.63478 6.58906C8.63121 6.5875 8.62736 6.58667 8.62346 6.58664C8.61957 6.58661 8.6157 6.58736 8.61211 6.58886C8.60851 6.59036 8.60525 6.59257 8.60253 6.59537C8.59981 6.59816 8.59768 6.60146 8.59628 6.6051L8.56098 6.69013C8.55942 6.6937 8.5586 6.69756 8.55856 6.70145C8.55853 6.70535 8.55929 6.70921 8.56078 6.71281C8.56228 6.71641 8.5645 6.71966 8.56729 6.72238C8.57008 6.7251 8.57339 6.72723 8.57703 6.72864L8.66206 6.76393H8.67329C8.67932 6.76419 8.68528 6.76245 8.69021 6.75896C8.69515 6.75548 8.69879 6.75045 8.70056 6.74468L8.73746 6.65965C8.74018 6.6524 8.74004 6.64438 8.73706 6.63723C8.73407 6.63007 8.72848 6.62432 8.72142 6.62115L8.63478 6.58906ZM8.65724 6.69815L8.62676 6.68532L8.6396 6.65483L8.67168 6.66767L8.65724 6.69815Z" fill="#00843D"/>
<path d="M9.19333 6.47661V6.46537L9.16606 6.44131L9.15643 6.46377L9.19333 6.47661Z" fill="#00843D"/>
<path d="M9.11109 6.50702L9.19772 6.54231H9.20895C9.21474 6.54245 9.22044 6.54084 9.22531 6.53769C9.23017 6.53455 9.23398 6.53001 9.23623 6.52467L9.24585 6.50221L9.19772 6.4637V6.47494L9.16564 6.4621L9.17526 6.43964L9.12874 6.39954L9.09986 6.46692C9.09665 6.47384 9.09602 6.48168 9.09808 6.48904C9.10014 6.49639 9.10475 6.50277 9.11109 6.50702Z" fill="#00843D"/>
<path d="M9.02097 6.80096L9.05145 6.8154L9.06428 6.78331L9.0338 6.77048L9.02097 6.80096Z" fill="#00843D"/>
<path d="M9.02907 6.70439C9.0255 6.70282 9.02165 6.702 9.01775 6.70197C9.01385 6.70193 9.00999 6.70269 9.00639 6.70419C9.0028 6.70569 8.99954 6.7079 8.99682 6.71069C8.9941 6.71348 8.99197 6.7168 8.99057 6.72043L8.95527 6.80707C8.95368 6.81059 8.95285 6.81442 8.95285 6.8183C8.95285 6.82217 8.95368 6.826 8.95527 6.82953C8.95836 6.83674 8.9641 6.84248 8.97131 6.84557L9.05634 6.88087H9.06757C9.07337 6.881 9.07906 6.87938 9.08393 6.87624C9.08879 6.87309 9.0926 6.86855 9.09485 6.86321L9.13175 6.77658C9.13334 6.77305 9.13417 6.76922 9.13417 6.76535C9.13417 6.76148 9.13334 6.75765 9.13175 6.75412C9.12866 6.74691 9.12292 6.74116 9.1157 6.73808L9.02907 6.70439ZM9.05153 6.81508L9.02105 6.80226L9.03388 6.77017L9.06597 6.783L9.05153 6.81508Z" fill="#00843D"/>
<path d="M9.36871 6.90967H9.37994L9.37032 6.90646L9.36871 6.90967Z" fill="#00843D"/>
<path d="M9.36736 6.84075C9.36368 6.83916 9.35971 6.83831 9.3557 6.83826C9.35169 6.83821 9.3477 6.83894 9.34398 6.84043C9.34025 6.84192 9.33685 6.84414 9.33398 6.84694C9.33111 6.84975 9.32883 6.85309 9.32725 6.85679L9.3064 6.90973H9.36897H9.37859H9.46683C9.46894 6.90313 9.46845 6.89596 9.46547 6.88971C9.46249 6.88345 9.45724 6.87856 9.45079 6.87604L9.36736 6.84075Z" fill="#00843D"/>
<path d="M13.1713 5.98564C13.2665 5.98564 13.3595 5.95741 13.4387 5.90453C13.5178 5.85164 13.5795 5.77648 13.6159 5.68853C13.6524 5.60059 13.6619 5.50381 13.6433 5.41045C13.6247 5.31709 13.5789 5.23132 13.5116 5.16401C13.4443 5.0967 13.3585 5.05086 13.2652 5.03229C13.1718 5.01372 13.075 5.02325 12.9871 5.05968C12.8991 5.09611 12.824 5.1578 12.7711 5.23695C12.7182 5.3161 12.69 5.40915 12.69 5.50434C12.69 5.63199 12.7407 5.75442 12.8309 5.84468C12.9212 5.93494 13.0436 5.98564 13.1713 5.98564Z" fill="#00843D"/>
<path d="M9.3039 4.76792C9.39909 4.76792 9.49214 4.7397 9.57129 4.68681C9.65044 4.63393 9.71213 4.55876 9.74856 4.47081C9.78499 4.38287 9.79452 4.28609 9.77595 4.19273C9.75738 4.09936 9.71154 4.01361 9.64423 3.9463C9.57692 3.87899 9.49116 3.83315 9.39779 3.81458C9.30443 3.79601 9.20766 3.80554 9.11971 3.84197C9.03177 3.87839 8.9566 3.94008 8.90371 4.01923C8.85083 4.09838 8.8226 4.19143 8.8226 4.28662C8.8226 4.41427 8.87331 4.53669 8.96357 4.62696C9.05383 4.71722 9.17625 4.76792 9.3039 4.76792Z" fill="#00843D"/>
<path d="M2.74848 5.95668C2.84367 5.95668 2.93673 5.92845 3.01588 5.87556C3.09503 5.82268 3.15672 5.74752 3.19314 5.65957C3.22957 5.57163 3.2391 5.47485 3.22053 5.38149C3.20196 5.28812 3.15612 5.20236 3.08881 5.13505C3.0215 5.06774 2.93574 5.0219 2.84238 5.00333C2.74901 4.98476 2.65224 4.99429 2.56429 5.03072C2.47635 5.06714 2.40118 5.12883 2.34829 5.20798C2.29541 5.28713 2.26718 5.38019 2.26718 5.47538C2.26718 5.60303 2.31789 5.72545 2.40815 5.81572C2.49841 5.90598 2.62083 5.95668 2.74848 5.95668Z" fill="#00843D"/>
<path d="M15.6376 6.93233C15.6642 6.39257 15.5451 5.8556 15.2927 5.37774C15.1134 5.03206 14.8663 4.72604 14.5661 4.47796C14.2659 4.22988 13.9188 4.04483 13.5456 3.93384C12.8351 3.72269 12.0701 3.79873 11.415 4.14561C11.0065 3.49224 10.3658 3.01781 9.62162 2.81779C8.87749 2.61776 8.0852 2.70698 7.40419 3.06749C6.74007 3.41591 6.23396 4.00465 5.98917 4.71354C5.73472 4.34417 5.39492 4.04163 4.9986 3.8316C4.60228 3.62157 4.16114 3.51025 3.71262 3.50708C2.15321 3.50708 0.885788 4.82905 0.885788 6.45263C0.886839 6.59544 0.897559 6.73802 0.917874 6.87939C0.649286 6.98059 0.417826 7.16109 0.254212 7.39691C0.0905975 7.63273 0.00256574 7.91273 0.00180054 8.19975V14.5818C0.00222516 14.9565 0.151275 15.3158 0.41625 15.5808C0.681225 15.8457 1.04049 15.9948 1.41522 15.9952H15.0296C15.4043 15.9948 15.7636 15.8457 16.0285 15.5808C16.2935 15.3158 16.4426 14.9565 16.443 14.5818V8.20457C16.4425 7.93812 16.3666 7.67725 16.2241 7.45212C16.0816 7.22698 15.8782 7.04678 15.6376 6.93233ZM15.7194 12.3582H13.4734V7.51471H15.0232C15.2063 7.51471 15.3819 7.58733 15.5115 7.71666C15.6412 7.84599 15.7142 8.02146 15.7146 8.20457L15.7194 12.3582ZM3.47999 10.3014H5.10358V15.2572H3.47999V10.3014ZM5.10358 7.52433V9.57948H3.47999V7.52433H5.10358ZM5.82553 10.3014H9.29088C9.38662 10.3014 9.47843 10.2634 9.54613 10.1957C9.61383 10.128 9.65186 10.0362 9.65186 9.94046C9.65186 9.84472 9.61383 9.7529 9.54613 9.68521C9.47843 9.61751 9.38662 9.57948 9.29088 9.57948H5.82553V7.51471H10.4107V12.3566H7.43948C7.34375 12.3566 7.25193 12.3946 7.18424 12.4623C7.11654 12.53 7.07851 12.6218 7.07851 12.7176C7.07851 12.8133 7.11654 12.9051 7.18424 12.9728C7.25193 13.0405 7.34375 13.0785 7.43948 13.0785H10.4107V15.2781H5.82553V10.3014ZM11.1327 15.2572V13.0785H12.7562V15.2572H11.1327ZM11.1327 12.3566V7.52433H12.7562V12.3566H11.1327ZM13.3418 4.63011C13.622 4.71387 13.8825 4.85302 14.108 5.03931C14.3334 5.2256 14.5191 5.45525 14.6542 5.71464C14.8299 6.04671 14.9208 6.41706 14.9189 6.79276H10.5567C10.5557 6.39117 10.6609 5.99645 10.8619 5.64873C11.0628 5.30101 11.3521 5.01267 11.7006 4.81301C11.9481 4.67449 12.2208 4.58695 12.5027 4.55553C12.7846 4.52412 13.0699 4.54948 13.3418 4.63011ZM6.63571 5.04884C6.72124 4.76308 6.8631 4.49734 7.05295 4.26727C7.24279 4.03719 7.47677 3.84745 7.7411 3.70923C8.26603 3.43009 8.87801 3.36283 9.45103 3.52131C10.0241 3.67978 10.5145 4.05193 10.8214 4.56113C10.512 4.84399 10.2646 5.1879 10.0948 5.57117C9.92498 5.95443 9.83644 6.36874 9.83475 6.78794H6.86032L6.82182 6.72376C6.68071 6.47108 6.59155 6.19275 6.55959 5.90511C6.52763 5.61747 6.55351 5.32633 6.63571 5.04884ZM3.71102 4.23385C4.87255 4.23385 5.8159 5.23174 5.8159 6.45745C5.81539 6.56969 5.80681 6.68175 5.79023 6.79276H1.63982C1.62324 6.68175 1.61467 6.56969 1.61415 6.45745C1.60613 5.23174 2.54948 4.23385 3.71102 4.23385ZM1.41361 7.51471H2.76286V9.57948H0.722145V8.20457C0.72257 8.02146 0.795608 7.84599 0.925238 7.71666C1.05487 7.58733 1.2305 7.51471 1.41361 7.51471ZM0.722145 14.5866V10.3014H2.76286V15.2749H1.41361C1.23091 15.2744 1.05576 15.2019 0.926266 15.073C0.796773 14.9441 0.723414 14.7693 0.722145 14.5866ZM15.028 15.2781H13.4782V13.0785H15.7243V14.5866C15.7243 14.6778 15.7062 14.7681 15.6712 14.8523C15.6361 14.9365 15.5847 15.013 15.52 15.0772C15.4553 15.1415 15.3785 15.1924 15.2941 15.2268C15.2096 15.2613 15.1192 15.2787 15.028 15.2781Z" fill="#00843D"/>
<path d="M12.1538 3.48958C12.4116 3.58032 12.6827 3.62749 12.956 3.62916C13.3235 3.63986 13.6839 3.52687 13.9795 3.30829C14.5715 2.85106 14.7961 1.96868 14.6501 0.685212C14.6412 0.603833 14.605 0.527886 14.5472 0.469845C14.4895 0.411804 14.4137 0.375112 14.3324 0.365785C14.2511 0.356458 14.169 0.37505 14.0996 0.418515C14.0303 0.46198 13.9777 0.527742 13.9506 0.604995C13.8672 0.840832 13.4581 0.986818 13.0618 1.128C12.5501 1.31089 11.9693 1.51946 11.7639 2.04568C11.6276 2.40184 11.6917 2.81897 11.9613 3.32915C12.0044 3.40372 12.0727 3.46056 12.1538 3.48958ZM12.4426 2.30398C12.5276 2.08418 12.9239 1.9414 13.3089 1.80503C13.5369 1.72966 13.7594 1.63852 13.9747 1.53229C13.9555 2.11467 13.8143 2.52377 13.5447 2.73233C13.2239 2.98421 12.757 2.90881 12.5388 2.85266C12.4422 2.68713 12.4081 2.4925 12.4426 2.30398Z" fill="#00843D"/>
<path d="M2.52258 0.943191C3.18517 1.18705 3.32475 1.59615 3.46914 2.06622C3.67931 2.72721 3.95044 3.27428 4.97079 3.27428C5.21797 3.27177 5.46442 3.24708 5.70718 3.20049C5.77449 3.18843 5.83696 3.15742 5.88726 3.1111C5.93756 3.06477 5.9736 3.00507 5.99115 2.93898C6.0088 2.87481 6.40827 1.3539 5.54033 0.508414C4.94192 -0.0739584 3.936 -0.160593 2.54344 0.256533C2.47051 0.277722 2.40616 0.321478 2.35964 0.381509C2.31312 0.44154 2.28682 0.514765 2.2845 0.590677C2.28218 0.666589 2.30398 0.74128 2.34675 0.804036C2.38952 0.866793 2.45108 0.914383 2.52258 0.939979V0.943191ZM5.03497 1.02822C5.42161 1.40203 5.40557 2.11274 5.33979 2.53147C4.41569 2.66142 4.32906 2.3919 4.15579 1.84963C4.05472 1.44443 3.85461 1.07067 3.57342 0.761901C4.25045 0.660828 4.7494 0.750666 5.03497 1.02822Z" fill="#00843D"/>
</g>
<defs>
<clipPath id="clip0_3050_30302">
<rect width="16.4412" height="16" fill="white"/>
</clipPath>
</defs>
</svg>
