<svg width="426.66" height="320" viewBox="0 0 16 12" fill="none" xmlns="http://www.w3.org/2000/svg">
<g clip-path="url(#clip0_3050_29064)">
<path d="M11.23 5.35085C11.3304 5.35085 11.4285 5.32106 11.5119 5.26528C11.5953 5.20949 11.6603 5.13021 11.6986 5.03747C11.737 4.94473 11.7469 4.84268 11.7273 4.74428C11.7076 4.64587 11.6591 4.55553 11.5881 4.48467C11.517 4.41381 11.4265 4.36562 11.3281 4.34621C11.2296 4.32681 11.1276 4.33704 11.035 4.37564C10.9423 4.41424 10.8632 4.47947 10.8077 4.56304C10.7521 4.64662 10.7226 4.7448 10.7229 4.84516C10.7233 4.9794 10.7769 5.10803 10.8719 5.20282C10.967 5.29761 11.0958 5.35085 11.23 5.35085Z" fill="#D2451E"/>
<path d="M14.9874 4.84517C14.9874 4.94553 15.0171 5.04362 15.0729 5.12704C15.1287 5.21046 15.208 5.27547 15.3007 5.31381C15.3935 5.35215 15.4955 5.3621 15.5939 5.34242C15.6923 5.32273 15.7827 5.27431 15.8535 5.20325C15.9244 5.13219 15.9726 5.04169 15.992 4.94323C16.0114 4.84476 16.0012 4.74275 15.9626 4.65012C15.924 4.55748 15.8587 4.4784 15.7752 4.42285C15.6916 4.3673 15.5934 4.33779 15.493 4.33808C15.3588 4.33845 15.2302 4.39203 15.1354 4.48709C15.0406 4.58215 14.9873 4.71092 14.9874 4.84517Z" fill="#D2451E"/>
<path d="M13.2231 7.19459C13.5024 7.19459 13.7288 6.96819 13.7288 6.68891C13.7288 6.40963 13.5024 6.18323 13.2231 6.18323C12.9438 6.18323 12.7174 6.40963 12.7174 6.68891C12.7174 6.96819 12.9438 7.19459 13.2231 7.19459Z" fill="#D2451E"/>
<path d="M13.2231 3.50422C13.5024 3.50422 13.7288 3.27782 13.7288 2.99854C13.7288 2.71926 13.5024 2.49286 13.2231 2.49286C12.9438 2.49286 12.7174 2.71926 12.7174 2.99854C12.7174 3.27782 12.9438 3.50422 13.2231 3.50422Z" fill="#D2451E"/>
<path d="M15.4931 9.12077C15.7723 9.12077 15.9987 8.89437 15.9987 8.61509C15.9987 8.33581 15.7723 8.10941 15.4931 8.10941C15.2138 8.10941 14.9874 8.33581 14.9874 8.61509C14.9874 8.89437 15.2138 9.12077 15.4931 9.12077Z" fill="#D2451E"/>
<path d="M15.3422 1.94746C15.6215 1.94746 15.8479 1.72106 15.8479 1.44178C15.8479 1.1625 15.6215 0.936096 15.3422 0.936096C15.0629 0.936096 14.8365 1.1625 14.8365 1.44178C14.8365 1.72106 15.0629 1.94746 15.3422 1.94746Z" fill="#D2451E"/>
<path d="M7.01619 0.295705C6.96428 0.206053 6.88971 0.131639 6.79996 0.0798971C6.71021 0.0281556 6.60843 0.000915527 6.50483 0.000915527C6.40124 0.000915527 6.29946 0.0281556 6.20971 0.0798971C6.11995 0.131639 6.04539 0.206053 5.99347 0.295705L0.0815412 10.5372C0.0292072 10.6281 0.00171638 10.7312 0.00183141 10.8361C0.00194645 10.9411 0.0296582 11.0441 0.0821915 11.1349C0.134725 11.2257 0.210231 11.3011 0.30112 11.3535C0.39201 11.406 0.495085 11.4335 0.600002 11.4335H12.3315C12.4444 11.4331 12.5552 11.403 12.6528 11.3464C12.7504 11.2897 12.8314 11.2085 12.8877 11.1107C12.9441 11.0129 12.9738 10.9021 12.9739 10.7892C12.974 10.6764 12.9445 10.5655 12.8884 10.4676L7.01619 0.295705ZM12.4636 10.8667C12.451 10.8905 12.4319 10.9102 12.4085 10.9235C12.3851 10.9369 12.3584 10.9433 12.3315 10.942H0.600002C0.581119 10.9424 0.562489 10.9377 0.546015 10.9284C0.529542 10.9192 0.515822 10.9058 0.506256 10.8895C0.496918 10.873 0.492003 10.8544 0.492003 10.8355C0.492003 10.8166 0.496918 10.798 0.506256 10.7815L6.41961 0.541441C6.42792 0.526156 6.44025 0.513446 6.45528 0.504681C6.4703 0.495916 6.48744 0.491435 6.50483 0.491728C6.52238 0.491634 6.53964 0.496192 6.55486 0.504924C6.57008 0.513655 6.58271 0.526246 6.59148 0.541441L12.4636 10.7133C12.4771 10.7367 12.4842 10.7631 12.4842 10.79C12.4842 10.817 12.4771 10.8434 12.4636 10.8667Z" fill="#D2451E"/>
<path d="M6.24572 8.23862C6.06039 8.29195 5.90052 8.41035 5.79546 8.57208C5.6904 8.7338 5.6472 8.92799 5.67379 9.119C5.70039 9.31001 5.795 9.48501 5.94024 9.61188C6.08549 9.73874 6.27162 9.80896 6.46447 9.80963C6.53804 9.80971 6.61124 9.79919 6.6818 9.77839C6.7829 9.74975 6.87737 9.70149 6.95982 9.63634C7.04227 9.5712 7.11109 9.49046 7.16233 9.39872C7.21358 9.30698 7.24625 9.20604 7.25849 9.10168C7.27073 8.99731 7.26228 8.89157 7.23365 8.79047C7.20502 8.68936 7.15675 8.59489 7.0916 8.51244C7.02646 8.43 6.94571 8.36118 6.85397 8.30994C6.76224 8.25869 6.6613 8.22603 6.55694 8.21379C6.45258 8.20155 6.34682 8.20999 6.24572 8.23862ZM6.54828 9.3068C6.46917 9.32922 6.38439 9.31929 6.3126 9.2792C6.24081 9.23911 6.18788 9.17214 6.16547 9.09302C6.14305 9.01391 6.15298 8.92914 6.19307 8.85735C6.23316 8.78555 6.30013 8.73262 6.37924 8.7102C6.40708 8.70293 6.4357 8.69912 6.46447 8.69884C6.53939 8.69868 6.61183 8.72568 6.66836 8.77484C6.7249 8.82401 6.76169 8.892 6.77192 8.96622C6.78216 9.04044 6.76513 9.11585 6.72401 9.17847C6.68288 9.2411 6.62045 9.28669 6.54828 9.3068Z" fill="#D2451E"/>
<path d="M7.01844 3.88495H5.90906C5.87674 3.88476 5.8447 3.891 5.8148 3.90328C5.7849 3.91556 5.75773 3.93366 5.73488 3.95651C5.71202 3.97937 5.69393 4.00653 5.68165 4.03643C5.66936 4.06633 5.66314 4.09837 5.66333 4.13069V7.63496C5.66314 7.66728 5.66936 7.69932 5.68165 7.72922C5.69393 7.75911 5.71202 7.78628 5.73488 7.80913C5.75773 7.83199 5.7849 7.85008 5.8148 7.86237C5.8447 7.87465 5.87674 7.88088 5.90906 7.88069H7.01844C7.05076 7.88088 7.0828 7.87465 7.1127 7.86237C7.1426 7.85008 7.16976 7.83199 7.19262 7.80913C7.21548 7.78628 7.23357 7.75911 7.24585 7.72922C7.25814 7.69932 7.26436 7.66728 7.26417 7.63496V4.13069C7.26436 4.09837 7.25814 4.06633 7.24585 4.03643C7.23357 4.00653 7.21548 3.97937 7.19262 3.95651C7.16976 3.93366 7.1426 3.91556 7.1127 3.90328C7.0828 3.891 7.05076 3.88476 7.01844 3.88495ZM6.77412 7.39064H6.14912V4.37642H6.76844L6.77412 7.39064Z" fill="#D2451E"/>
</g>
<defs>
<clipPath id="clip0_3050_29064">
<rect width="16" height="11.4332" fill="white"/>
</clipPath>
</defs>
</svg>
