<svg width="177.77" height="320" viewBox="0 0 10 18" fill="none" xmlns="http://www.w3.org/2000/svg">
<path d="M0.751955 16.9688C0.734723 17.1058 0.831808 17.2308 0.968799 17.248C1.10579 17.2653 1.23081 17.1682 1.24805 17.0312L0.751955 16.9688ZM1.24805 17.0312L3.26062 1.0312L2.76453 0.968799L0.751955 16.9688L1.24805 17.0312Z" fill="#CF4520"/>
<path d="M0.854315 16.9551C0.829541 17.091 0.91957 17.2212 1.0554 17.2459C1.19123 17.2707 1.32143 17.1807 1.3462 17.0449L0.854315 16.9551ZM1.3462 17.0449L4.26444 1.04486L3.77255 0.955143L0.854315 16.9551L1.3462 17.0449Z" fill="#CF4520"/>
<path d="M0.857543 16.8395C0.824455 16.9735 0.906299 17.109 1.04035 17.1421C1.1744 17.1752 1.30989 17.0933 1.34297 16.9593L0.857543 16.8395ZM1.34297 16.9593L5.2675 1.05991L4.78207 0.940089L0.857543 16.8395L1.34297 16.9593Z" fill="#CF4520"/>
<path d="M0.76165 16.8239C0.719993 16.9556 0.792936 17.0961 0.924573 17.1377C1.05621 17.1794 1.19669 17.1064 1.23835 16.9748L0.76165 16.8239ZM1.23835 16.9748L6.2698 1.07543L5.7931 0.924573L0.76165 16.8239L1.23835 16.9748Z" fill="#CF4520"/>
<path d="M0.865874 16.913C0.81784 17.0425 0.883839 17.1863 1.01329 17.2344C1.14273 17.2824 1.28661 17.2164 1.33464 17.087L0.865874 16.913ZM1.33464 17.087L7.27175 1.08697L6.80298 0.913027L0.865874 16.913L1.33464 17.087Z" fill="#CF4520"/>
<path d="M0.871152 16.7993C0.815895 16.9259 0.873674 17.0732 1.00021 17.1285C1.12674 17.1837 1.27411 17.126 1.32936 16.9994L0.871152 16.7993ZM1.32936 16.9994L8.27276 1.10005L7.81455 0.899947L0.871152 16.7993L1.32936 16.9994Z" fill="#CF4520"/>
<path d="M0.876651 16.7876C0.814904 16.9111 0.86496 17.0612 0.988454 17.123C1.11195 17.1847 1.26212 17.1347 1.32386 17.0112L0.876651 16.7876ZM1.32386 17.0112L9.27355 1.1118L8.82634 0.888197L0.876651 16.7876L1.32386 17.0112Z" fill="#CF4520"/>
</svg>
