<svg width="360" height="320" viewBox="0 0 18 16" fill="none" xmlns="http://www.w3.org/2000/svg">
<g clip-path="url(#clip0_3050_29131)">
<path d="M1.32489 9.54126L1.24381 9.50735H1.22317C1.22255 9.50977 1.22255 9.51231 1.22317 9.51473L1.33079 9.61498L1.34553 9.57812C1.34665 9.57434 1.347 9.57038 1.34657 9.56647C1.34613 9.56256 1.34491 9.55877 1.34299 9.55534C1.34106 9.5519 1.33847 9.54889 1.33536 9.54647C1.33226 9.54405 1.3287 9.54228 1.32489 9.54126Z" fill="#CF4520"/>
<path d="M1.78242 9.46761H1.79274C1.79611 9.46636 1.79917 9.46439 1.80172 9.46185C1.80426 9.4593 1.80623 9.45624 1.80748 9.45287L1.81485 9.43518H1.69102L1.7721 9.46761H1.78242Z" fill="#CF4520"/>
<path d="M1.61756 9.68068L1.6052 9.71066L1.63519 9.72302L1.64754 9.69303L1.61756 9.68068Z" fill="#CF4520"/>
<path d="M1.61408 9.61665C1.6072 9.61407 1.59961 9.61416 1.5928 9.61688C1.58598 9.61961 1.58043 9.62478 1.57722 9.63138L1.54479 9.71247C1.54335 9.71575 1.5426 9.71929 1.54257 9.72287C1.54253 9.72645 1.54323 9.73 1.54461 9.73331C1.54598 9.73661 1.54802 9.73961 1.55058 9.74211C1.55315 9.74461 1.55619 9.74656 1.55953 9.74785L1.63914 9.78176H1.65093C1.65625 9.78188 1.66149 9.7804 1.66596 9.77751C1.67043 9.77462 1.67393 9.77045 1.67599 9.76554L1.70843 9.68446C1.70986 9.68118 1.71062 9.67764 1.71065 9.67406C1.71068 9.67048 1.70999 9.66693 1.70861 9.66362C1.70723 9.66031 1.7052 9.65732 1.70264 9.65482C1.70007 9.65233 1.69703 9.65037 1.69369 9.64908L1.61408 9.61665ZM1.63472 9.71984L1.60376 9.70215L1.61702 9.67266L1.64651 9.68446L1.63472 9.71984Z" fill="#CF4520"/>
<path d="M2.11749 9.47277L2.10511 9.50275L2.13509 9.51513L2.14747 9.48515L2.11749 9.47277Z" fill="#CF4520"/>
<path d="M2.05942 9.53974L2.1405 9.57365H2.15082C2.15635 9.57387 2.16182 9.57245 2.16655 9.56956C2.17127 9.56668 2.17503 9.56246 2.17736 9.55743L2.20979 9.47635C2.21125 9.47297 2.21203 9.46933 2.21208 9.46564C2.21213 9.46195 2.21145 9.45829 2.21008 9.45486C2.20871 9.45144 2.20667 9.44832 2.2041 9.44568C2.20152 9.44305 2.19844 9.44094 2.19505 9.4395L2.17736 9.43213H2.07416L2.04468 9.50289C2.04322 9.50628 2.04244 9.50992 2.04239 9.51361C2.04234 9.51729 2.04302 9.52096 2.04439 9.52438C2.04576 9.52781 2.0478 9.53093 2.05037 9.53356C2.05295 9.5362 2.05603 9.5383 2.05942 9.53974ZM2.11839 9.47046L2.14787 9.48225L2.13608 9.51173L2.1066 9.49994L2.11839 9.47046Z" fill="#CF4520"/>
<path d="M1.93357 9.80834L1.92119 9.83832L1.95117 9.8507L1.96355 9.82072L1.93357 9.80834Z" fill="#CF4520"/>
<path d="M2.01091 9.77736L1.92982 9.74345C1.92277 9.74098 1.91504 9.74128 1.9082 9.74429C1.90135 9.7473 1.89591 9.7528 1.89297 9.75967L1.86053 9.83928C1.85907 9.84266 1.8583 9.8463 1.85825 9.84999C1.8582 9.85368 1.85888 9.85734 1.86025 9.86077C1.86162 9.86419 1.86365 9.86731 1.86623 9.86995C1.86881 9.87259 1.87188 9.87469 1.87528 9.87613L1.95636 9.90856H1.96668C1.97213 9.90837 1.9774 9.9066 1.98185 9.90346C1.9863 9.90032 1.98974 9.89594 1.99174 9.89087L2.02565 9.80979C2.02734 9.80352 2.02679 9.79685 2.0241 9.79093C2.02141 9.78501 2.01675 9.78022 2.01091 9.77736ZM1.95194 9.84665L1.92245 9.83485L1.93425 9.80537L1.96373 9.81716L1.95194 9.84665Z" fill="#CF4520"/>
<path d="M2.4352 9.59832L2.42276 9.62827L2.45271 9.64071L2.46515 9.61076L2.4352 9.59832Z" fill="#CF4520"/>
<path d="M2.37608 9.66833L2.45569 9.70076H2.46748C2.47293 9.70057 2.4782 9.6988 2.48265 9.69566C2.4871 9.69251 2.49054 9.68814 2.49255 9.68307L2.52498 9.60199C2.52642 9.59871 2.52717 9.59517 2.5272 9.59159C2.52723 9.58801 2.52654 9.58446 2.52516 9.58115C2.52378 9.57784 2.52175 9.57485 2.51919 9.57235C2.51662 9.56986 2.51358 9.5679 2.51024 9.5666L2.43063 9.5327C2.42354 9.52983 2.41561 9.52983 2.40851 9.5327C2.40223 9.53602 2.39709 9.54116 2.39377 9.54744L2.36134 9.62853C2.35939 9.63205 2.35822 9.63596 2.35792 9.63998C2.35762 9.64399 2.35819 9.64803 2.35959 9.65181C2.36098 9.65559 2.36318 9.65902 2.36603 9.66187C2.36888 9.66472 2.3723 9.66692 2.37608 9.66833ZM2.43505 9.59757L2.46454 9.60936L2.45127 9.63885L2.42178 9.62705L2.43505 9.59757Z" fill="#CF4520"/>
<path d="M2.95695 9.49278H2.97759C2.98454 9.4899 2.99027 9.48469 2.9938 9.47804L3.01002 9.43823H2.86259C2.86299 9.44267 2.86457 9.44693 2.86716 9.45056C2.86975 9.45418 2.87327 9.45706 2.87734 9.45887L2.95695 9.49278Z" fill="#CF4520"/>
<path d="M2.3021 9.91704L2.28972 9.94702L2.3197 9.9594L2.33208 9.92942L2.3021 9.91704Z" fill="#CF4520"/>
<path d="M2.37964 9.88619L2.29856 9.85228C2.29189 9.84978 2.28452 9.84991 2.27795 9.85265C2.27138 9.85539 2.2661 9.86053 2.26318 9.86702L2.22927 9.94811C2.22677 9.95477 2.2269 9.96214 2.22964 9.96871C2.23238 9.97529 2.23752 9.98057 2.24401 9.98349L2.32509 10.0174H2.34131C2.34684 10.0176 2.35231 10.0162 2.35704 10.0133C2.36176 10.0104 2.36552 10.0062 2.36785 10.0012L2.40028 9.9201C2.40166 9.91652 2.40219 9.91267 2.40185 9.90885C2.40151 9.90503 2.40029 9.90134 2.3983 9.89806C2.3963 9.89479 2.39359 9.89202 2.39035 9.88996C2.38712 9.8879 2.38345 9.88661 2.37964 9.88619ZM2.32067 9.95548L2.29119 9.94369L2.30298 9.9142L2.33247 9.92599L2.32067 9.95548Z" fill="#CF4520"/>
<path d="M2.79263 9.73597L2.82211 9.74776L2.8339 9.71828L2.80442 9.70648L2.79263 9.73597Z" fill="#CF4520"/>
<path d="M2.88016 9.67711L2.79908 9.64468C2.79583 9.64321 2.79232 9.64246 2.78876 9.64246C2.7852 9.64246 2.78168 9.64321 2.77844 9.64468C2.77489 9.64561 2.77166 9.64746 2.76907 9.65005C2.76648 9.65265 2.76462 9.65588 2.7637 9.65942L2.72979 9.74051C2.72729 9.74717 2.72742 9.75454 2.73016 9.76111C2.7329 9.76769 2.73804 9.77297 2.74453 9.77589L2.82561 9.8098H2.84625C2.85288 9.80696 2.85816 9.80168 2.861 9.79505L2.8949 9.71397C2.89748 9.70709 2.89739 9.6995 2.89466 9.69269C2.89194 9.68587 2.88677 9.68032 2.88016 9.67711ZM2.82119 9.74788L2.79171 9.73609L2.8035 9.7066L2.83298 9.71839L2.82119 9.74788Z" fill="#CF4520"/>
<path d="M3.30474 9.50075L3.29236 9.53073L3.32234 9.54311L3.33472 9.51313L3.30474 9.50075Z" fill="#CF4520"/>
<path d="M3.22544 9.53267C3.22401 9.53595 3.22325 9.53948 3.22322 9.54306C3.22319 9.54665 3.22388 9.5502 3.22526 9.5535C3.22664 9.55681 3.22867 9.5598 3.23124 9.5623C3.2338 9.5648 3.23685 9.56676 3.24019 9.56805L3.3198 9.60196H3.34191C3.34856 9.59843 3.35377 9.59269 3.35665 9.58574L3.39056 9.50613C3.39303 9.49908 3.39273 9.49134 3.38972 9.4845C3.38671 9.47766 3.38121 9.47222 3.37434 9.46928L3.30358 9.43979H3.26967C3.26469 9.4425 3.26059 9.4466 3.25788 9.45158L3.22544 9.53267ZM3.29916 9.49876L3.32864 9.51055L3.31537 9.54004L3.28589 9.52824L3.29916 9.49876Z" fill="#CF4520"/>
<path d="M2.11818 10.2526L2.1058 10.2826L2.13577 10.2949L2.14815 10.265L2.11818 10.2526Z" fill="#CF4520"/>
<path d="M2.15067 10.3549C2.15612 10.3547 2.16139 10.3529 2.16584 10.3498C2.17029 10.3467 2.17373 10.3423 2.17573 10.3372L2.20964 10.2576C2.21221 10.2507 2.21213 10.2431 2.2094 10.2363C2.20668 10.2295 2.2015 10.224 2.1949 10.2207L2.11382 10.1883C2.11053 10.1869 2.107 10.1861 2.10341 10.1861C2.09983 10.1861 2.09628 10.1868 2.09298 10.1881C2.08967 10.1895 2.08668 10.1915 2.08418 10.1941C2.08168 10.1967 2.07973 10.1997 2.07843 10.2031L2.04453 10.2827L2.09612 10.3298L2.14035 10.3475L2.15067 10.3549ZM2.11824 10.2488L2.14772 10.262L2.13593 10.2915L2.10644 10.2782L2.11824 10.2488Z" fill="#CF4520"/>
<path d="M2.61965 10.0445L2.60727 10.0744L2.63725 10.0868L2.64963 10.0568L2.61965 10.0445Z" fill="#CF4520"/>
<path d="M2.69526 10.0129L2.61565 9.97895C2.6086 9.97648 2.60087 9.97678 2.59403 9.97979C2.58718 9.9828 2.58174 9.9883 2.5788 9.99517L2.54636 10.0748C2.5449 10.0782 2.54413 10.0818 2.54408 10.0855C2.54403 10.0892 2.54471 10.0928 2.54608 10.0963C2.54745 10.0997 2.54948 10.1028 2.55206 10.1054C2.55464 10.1081 2.55771 10.1102 2.56111 10.1116L2.64072 10.1441H2.65251C2.65795 10.1439 2.66323 10.1421 2.66768 10.139C2.67213 10.1358 2.67557 10.1314 2.67757 10.1264L2.71148 10.0453C2.71306 10.0388 2.7123 10.032 2.70933 10.0261C2.70636 10.0202 2.70137 10.0155 2.69526 10.0129ZM2.63629 10.0821L2.60681 10.0704L2.62008 10.0409L2.64956 10.0527L2.63629 10.0821Z" fill="#CF4520"/>
<path d="M3.11882 9.83673L3.10641 9.8667L3.13638 9.87911L3.14879 9.84914L3.11882 9.83673Z" fill="#CF4520"/>
<path d="M3.06051 9.90395L3.1416 9.93639H3.15192C3.15757 9.93629 3.16308 9.93457 3.16778 9.93144C3.17249 9.9283 3.17619 9.92388 3.17845 9.9187L3.21089 9.83761C3.21232 9.83433 3.21308 9.83079 3.21311 9.82721C3.21314 9.82363 3.21245 9.82008 3.21107 9.81677C3.20969 9.81347 3.20766 9.81047 3.20509 9.80797C3.20253 9.80548 3.19949 9.80352 3.19615 9.80223L3.11506 9.76832C3.10839 9.76583 3.10103 9.76596 3.09445 9.76869C3.08788 9.77143 3.0826 9.77657 3.07968 9.78306L3.04577 9.86415C3.04431 9.86739 3.04355 9.87091 3.04355 9.87447C3.04355 9.87803 3.04431 9.88154 3.04577 9.88479C3.04803 9.89284 3.05331 9.8997 3.06051 9.90395ZM3.11948 9.83319L3.14897 9.84498L3.13717 9.87447L3.10769 9.86267L3.11948 9.83319Z" fill="#CF4520"/>
<path d="M3.62016 9.62783L3.60778 9.65781L3.63776 9.67019L3.65014 9.64021L3.62016 9.62783Z" fill="#CF4520"/>
<path d="M3.56127 9.7021L3.64235 9.73601H3.65267C3.658 9.73614 3.66323 9.73465 3.6677 9.73176C3.67217 9.72887 3.67567 9.7247 3.67773 9.71979L3.71164 9.63871C3.71311 9.63547 3.71387 9.63195 3.71387 9.62839C3.71387 9.62483 3.71311 9.62131 3.71164 9.61807C3.70881 9.61144 3.70353 9.60616 3.6969 9.60333L3.61582 9.56942C3.61257 9.56796 3.60906 9.5672 3.6055 9.5672C3.60194 9.5672 3.59842 9.56796 3.59518 9.56942C3.59175 9.57059 3.58864 9.57252 3.58609 9.57508C3.58353 9.57763 3.5816 9.58074 3.58044 9.58417L3.54653 9.66525C3.54485 9.6686 3.5439 9.67228 3.54374 9.67602C3.54358 9.67977 3.54422 9.68351 3.54561 9.68699C3.54701 9.69047 3.54912 9.69362 3.55182 9.69622C3.55452 9.69883 3.55774 9.70083 3.56127 9.7021ZM3.62024 9.63281L3.64972 9.64461L3.63793 9.67409L3.60845 9.6623L3.62024 9.63281Z" fill="#CF4520"/>
<path d="M4.13895 9.45862L4.14485 9.44535L4.11094 9.44388L4.10947 9.44683L4.13895 9.45862Z" fill="#CF4520"/>
<path d="M4.06296 9.48671L4.14405 9.52062H4.16469C4.17097 9.5173 4.17611 9.51216 4.17943 9.50588L4.20449 9.44543H4.14552V9.46017L4.11603 9.44838H4.05706V9.45575C4.05461 9.46086 4.05386 9.46663 4.05492 9.4722C4.05598 9.47778 4.0588 9.48286 4.06296 9.48671Z" fill="#CF4520"/>
<path d="M2.48683 10.3601L2.47445 10.39L2.50443 10.4024L2.51681 10.3724L2.48683 10.3601Z" fill="#CF4520"/>
<path d="M2.5636 10.3298L2.48841 10.2915C2.48174 10.289 2.47437 10.2891 2.4678 10.2919C2.46123 10.2946 2.45595 10.2997 2.45303 10.3062L2.41912 10.3873C2.41772 10.3907 2.41703 10.3943 2.4171 10.398C2.41716 10.4016 2.41798 10.4052 2.4195 10.4085C2.42103 10.4119 2.42322 10.4148 2.42594 10.4173C2.42867 10.4197 2.43187 10.4216 2.43534 10.4227L2.51495 10.4566H2.52527C2.5308 10.4568 2.53627 10.4554 2.54099 10.4525C2.54571 10.4496 2.54948 10.4454 2.5518 10.4404L2.58424 10.3593C2.58513 10.3527 2.5835 10.346 2.57968 10.3405C2.57585 10.3351 2.57011 10.3312 2.5636 10.3298ZM2.50463 10.3991L2.47514 10.3873L2.48693 10.3578L2.51642 10.3696L2.50463 10.3991Z" fill="#CF4520"/>
<path d="M2.98813 10.1532L2.97575 10.1832L3.00572 10.1955L3.0181 10.1656L2.98813 10.1532Z" fill="#CF4520"/>
<path d="M3.06547 10.1207L2.98439 10.0882C2.97772 10.0857 2.97035 10.0859 2.96378 10.0886C2.95721 10.0914 2.95193 10.0965 2.94901 10.103L2.9151 10.1841C2.9126 10.1907 2.91273 10.1981 2.91547 10.2047C2.91821 10.2112 2.92335 10.2165 2.92984 10.2194L3.01092 10.2534H3.02124C3.02657 10.2535 3.0318 10.252 3.03627 10.2491C3.04074 10.2462 3.04424 10.242 3.04631 10.2371L3.08021 10.1561C3.08238 10.1494 3.08208 10.1421 3.07938 10.1356C3.07667 10.1292 3.07174 10.1238 3.06547 10.1207ZM3.0065 10.1914L2.97702 10.1796L2.98881 10.1502L3.0183 10.1619L3.0065 10.1914Z" fill="#CF4520"/>
<path d="M3.51855 9.95424L3.48906 9.94244L3.47579 9.97193L3.50528 9.98372L3.51855 9.95424Z" fill="#CF4520"/>
<path d="M3.43027 10.0117L3.51135 10.0456H3.5202C3.52552 10.0457 3.53075 10.0442 3.53522 10.0413C3.53969 10.0384 3.54319 10.0343 3.54526 10.0294L3.57917 9.94829C3.58067 9.94479 3.58144 9.94103 3.58144 9.93723C3.58144 9.93343 3.58067 9.92966 3.57917 9.92617C3.57584 9.91989 3.57071 9.91475 3.56442 9.91143L3.48334 9.879C3.47995 9.87754 3.47631 9.87676 3.47262 9.87671C3.46893 9.87666 3.46527 9.87734 3.46185 9.87871C3.45842 9.88008 3.4553 9.88211 3.45267 9.88469C3.45003 9.88727 3.44793 9.89034 3.44648 9.89374L3.41405 9.97482C3.41258 9.97806 3.41183 9.98158 3.41183 9.98514C3.41183 9.9887 3.41258 9.99222 3.41405 9.99546C3.41527 9.99926 3.41737 10.0027 3.42019 10.0055C3.42301 10.0084 3.42647 10.0105 3.43027 10.0117ZM3.48924 9.94239L3.51872 9.95418L3.50693 9.98367L3.47744 9.97187L3.48924 9.94239Z" fill="#CF4520"/>
<path d="M3.9913 9.7346L3.97886 9.76456L4.00881 9.777L4.02125 9.74705L3.9913 9.7346Z" fill="#CF4520"/>
<path d="M3.93157 9.80385L4.01118 9.83776H4.0215C4.02724 9.83809 4.03294 9.83654 4.03772 9.83335C4.04251 9.83015 4.04613 9.82549 4.04804 9.82007L4.08047 9.74046C4.08193 9.73708 4.08271 9.73343 4.08275 9.72975C4.0828 9.72606 4.08212 9.72239 4.08075 9.71897C4.07938 9.71555 4.07735 9.71242 4.07477 9.70979C4.07219 9.70715 4.06912 9.70505 4.06573 9.70361L3.98612 9.67117C3.98273 9.66971 3.97909 9.66894 3.9754 9.66889C3.97171 9.66884 3.96805 9.66952 3.96463 9.67089C3.9612 9.67226 3.95808 9.67429 3.95545 9.67687C3.95281 9.67945 3.95071 9.68252 3.94926 9.68592L3.91535 9.767C3.91393 9.77048 3.91323 9.77421 3.91328 9.77796C3.91333 9.78172 3.91413 9.78542 3.91565 9.78886C3.91716 9.7923 3.91935 9.7954 3.92209 9.79798C3.92482 9.80055 3.92805 9.80255 3.93157 9.80385ZM3.99054 9.73309L4.02002 9.74636L4.00676 9.77584L3.97727 9.76258L3.99054 9.73309Z" fill="#CF4520"/>
<path d="M4.49057 9.52895L4.47819 9.55893L4.50816 9.57131L4.52055 9.54133L4.49057 9.52895Z" fill="#CF4520"/>
<path d="M4.5129 9.62814H4.52322H4.53354C4.53716 9.62737 4.54048 9.62557 4.54309 9.62295C4.54571 9.62033 4.54751 9.61702 4.54828 9.6134L4.58219 9.53379C4.58476 9.52691 4.58468 9.51932 4.58195 9.51251C4.57923 9.50569 4.57405 9.50014 4.56745 9.49693L4.48637 9.4645C4.48308 9.46307 4.47955 9.46231 4.47597 9.46228C4.47238 9.46225 4.46883 9.46294 4.46553 9.46432C4.46222 9.4657 4.45923 9.46773 4.45673 9.47029C4.45423 9.47286 4.45227 9.4759 4.45098 9.47924L4.41708 9.55885C4.4145 9.56573 4.41459 9.57332 4.41732 9.58013C4.42004 9.58695 4.42521 9.5925 4.43182 9.59571L4.5129 9.62814ZM4.49079 9.52494L4.52027 9.53822L4.50848 9.5677L4.47899 9.55443L4.49079 9.52494Z" fill="#CF4520"/>
<path d="M2.8042 10.4887L2.79182 10.5187L2.82179 10.5311L2.83417 10.5011L2.8042 10.4887Z" fill="#CF4520"/>
<path d="M2.87941 10.4566L2.7998 10.4227C2.79274 10.4203 2.78501 10.4206 2.77817 10.4236C2.77133 10.4266 2.76588 10.4321 2.76294 10.439L2.73051 10.5186C2.72905 10.522 2.72827 10.5256 2.72822 10.5293C2.72817 10.533 2.72885 10.5366 2.73022 10.5401C2.73159 10.5435 2.73362 10.5466 2.7362 10.5492C2.73878 10.5519 2.74186 10.554 2.74525 10.5554L2.82633 10.5879H2.83665H2.84697C2.85034 10.5866 2.8534 10.5846 2.85595 10.5821C2.85849 10.5795 2.86046 10.5765 2.86171 10.5731L2.89562 10.4935C2.89704 10.49 2.89775 10.4863 2.8977 10.4825C2.89765 10.4788 2.89684 10.4751 2.89533 10.4716C2.89381 10.4682 2.89162 10.4651 2.88889 10.4625C2.88615 10.4599 2.88293 10.4579 2.87941 10.4566ZM2.82191 10.5274L2.79242 10.5141L2.80422 10.4847L2.8337 10.4979L2.82191 10.5274Z" fill="#CF4520"/>
<path d="M3.30418 10.279L3.2918 10.309L3.32178 10.3214L3.33416 10.2914L3.30418 10.279Z" fill="#CF4520"/>
<path d="M3.24588 10.348L3.32549 10.3804H3.33581C3.34146 10.3803 3.34697 10.3786 3.35168 10.3754C3.35638 10.3723 3.36008 10.3679 3.36235 10.3627L3.39478 10.2816C3.39624 10.2784 3.397 10.2749 3.397 10.2713C3.397 10.2677 3.39624 10.2642 3.39478 10.261C3.39352 10.2576 3.39156 10.2545 3.38901 10.252C3.38647 10.2495 3.38341 10.2475 3.38004 10.2462L3.30043 10.2123C3.29337 10.2099 3.28564 10.2101 3.2788 10.2132C3.27196 10.2162 3.26651 10.2217 3.26357 10.2285L3.22966 10.3081C3.22799 10.3118 3.22708 10.3158 3.22699 10.3198C3.2269 10.3238 3.22764 10.3278 3.22916 10.3316C3.23068 10.3353 3.23295 10.3387 3.23582 10.3415C3.2387 10.3443 3.24212 10.3465 3.24588 10.348ZM3.30485 10.2772L3.33433 10.289L3.32107 10.3185L3.29158 10.3067L3.30485 10.2772Z" fill="#CF4520"/>
<path d="M3.80474 10.0721L3.79236 10.1021L3.82234 10.1145L3.83472 10.0845L3.80474 10.0721Z" fill="#CF4520"/>
<path d="M3.74595 10.1445L3.82703 10.177H3.83735C3.8428 10.1768 3.84807 10.175 3.85252 10.1718C3.85697 10.1687 3.86041 10.1643 3.86241 10.1593L3.89632 10.0782C3.89882 10.0715 3.89869 10.0641 3.89595 10.0576C3.89321 10.051 3.88807 10.0457 3.88158 10.0428L3.8005 10.0089C3.79383 10.0064 3.78646 10.0065 3.77989 10.0093C3.77332 10.012 3.76803 10.0171 3.76511 10.0236L3.73121 10.1047C3.72949 10.1083 3.72851 10.1122 3.72832 10.1161C3.72813 10.1201 3.72875 10.124 3.73012 10.1278C3.7315 10.1315 3.73361 10.1349 3.73633 10.1378C3.73905 10.1406 3.74232 10.1429 3.74595 10.1445ZM3.80492 10.0738L3.8344 10.0856L3.82261 10.115L3.79312 10.1032L3.80492 10.0738Z" fill="#CF4520"/>
<path d="M4.30466 9.86397L4.29228 9.89395L4.32226 9.90633L4.33464 9.87635L4.30466 9.86397Z" fill="#CF4520"/>
<path d="M4.2471 9.93054L4.32818 9.96445H4.3385C4.34383 9.96457 4.34906 9.96309 4.35353 9.96019C4.358 9.9573 4.3615 9.95314 4.36357 9.94823L4.39747 9.86715C4.39997 9.86048 4.39984 9.85311 4.3971 9.84654C4.39436 9.83997 4.38922 9.83469 4.38273 9.83177L4.30165 9.79786C4.29477 9.79529 4.28718 9.79537 4.28037 9.7981C4.27355 9.80083 4.268 9.806 4.26479 9.8126L4.23236 9.89368C4.23068 9.89703 4.22973 9.90071 4.22957 9.90446C4.22941 9.9082 4.23005 9.91194 4.23144 9.91542C4.23284 9.91891 4.23495 9.92206 4.23765 9.92466C4.24035 9.92727 4.24357 9.92927 4.2471 9.93054ZM4.30607 9.86125L4.33555 9.87304L4.32376 9.90253L4.29428 9.89073L4.30607 9.86125Z" fill="#CF4520"/>
<path d="M4.80617 9.65481L4.79379 9.68478L4.82377 9.69716L4.83615 9.66719L4.80617 9.65481Z" fill="#CF4520"/>
<path d="M4.74822 9.72272L4.82783 9.75662H4.83815C4.84368 9.75684 4.84915 9.75542 4.85388 9.75254C4.8586 9.74965 4.86236 9.74543 4.86469 9.74041L4.89712 9.65932C4.89858 9.65594 4.89936 9.65229 4.89941 9.64861C4.89945 9.64492 4.89877 9.64126 4.8974 9.63784C4.89603 9.63441 4.894 9.63129 4.89142 9.62865C4.88885 9.62602 4.88577 9.62391 4.88238 9.62247L4.80277 9.59003C4.79589 9.58746 4.7883 9.58755 4.78149 9.59028C4.77467 9.593 4.76912 9.59817 4.76591 9.60478L4.732 9.68586C4.73058 9.68934 4.72988 9.69307 4.72993 9.69682C4.72998 9.70058 4.73079 9.70429 4.7323 9.70773C4.73381 9.71117 4.736 9.71426 4.73874 9.71684C4.74147 9.71941 4.7447 9.72142 4.74822 9.72272ZM4.80719 9.65343L4.83668 9.66522L4.82341 9.69471L4.79392 9.68291L4.80719 9.65343Z" fill="#CF4520"/>
<path d="M5.3253 9.48692L5.33709 9.45744L5.32088 9.45154H5.30466L5.29581 9.47513L5.3253 9.48692Z" fill="#CF4520"/>
<path d="M5.24873 9.51473L5.32981 9.54863H5.35045C5.35388 9.54747 5.35699 9.54554 5.35954 9.54298C5.3621 9.54042 5.36403 9.53731 5.3652 9.53389L5.3991 9.4528H5.32097H5.33719L5.32539 9.48229L5.29591 9.47049L5.30623 9.44543H5.24578L5.23399 9.47492C5.23204 9.47844 5.23087 9.48235 5.23057 9.48637C5.23027 9.49039 5.23084 9.49442 5.23224 9.4982C5.23363 9.50198 5.23583 9.50541 5.23868 9.50826C5.24153 9.51112 5.24495 9.51332 5.24873 9.51473Z" fill="#CF4520"/>
<path d="M2.67141 10.8043L2.65903 10.8343L2.68901 10.8467L2.70139 10.8167L2.67141 10.8043Z" fill="#CF4520"/>
<path d="M2.73085 10.8901L2.76328 10.809C2.76471 10.8057 2.76547 10.8022 2.7655 10.7986C2.76553 10.795 2.76484 10.7915 2.76346 10.7882C2.76208 10.7849 2.76005 10.7819 2.75748 10.7794C2.75492 10.7769 2.75188 10.7749 2.74854 10.7736L2.66893 10.7397C2.66205 10.7372 2.65446 10.7372 2.64765 10.74C2.64083 10.7427 2.63528 10.7479 2.63207 10.7545L2.60848 10.812L2.70873 10.9063H2.7161C2.72261 10.9026 2.72777 10.8969 2.73085 10.8901ZM2.67335 10.8016L2.70283 10.8134L2.68957 10.8429L2.66008 10.8311L2.67335 10.8016Z" fill="#CF4520"/>
<path d="M3.1609 10.6236L3.19039 10.6354L3.20218 10.6059L3.1727 10.5941L3.1609 10.6236Z" fill="#CF4520"/>
<path d="M3.24947 10.566L3.16838 10.5321C3.16172 10.5296 3.15435 10.5297 3.14778 10.5324C3.1412 10.5352 3.13592 10.5403 3.133 10.5468L3.09909 10.6279C3.09763 10.6311 3.09687 10.6346 3.09687 10.6382C3.09687 10.6418 3.09763 10.6453 3.09909 10.6485C3.10193 10.6552 3.10721 10.6604 3.11384 10.6633L3.19492 10.6972H3.20524C3.2106 10.6975 3.21594 10.6961 3.22045 10.6932C3.22496 10.6903 3.22842 10.686 3.2303 10.681L3.26421 10.5999C3.26568 10.5966 3.26643 10.5931 3.26643 10.5896C3.26643 10.586 3.26568 10.5825 3.26421 10.5792C3.26286 10.5761 3.26085 10.5733 3.2583 10.571C3.25575 10.5687 3.25274 10.567 3.24947 10.566ZM3.1905 10.6353L3.16101 10.6235L3.17281 10.594L3.20229 10.6058L3.1905 10.6353Z" fill="#CF4520"/>
<path d="M3.67266 10.3883L3.66028 10.4182L3.69026 10.4306L3.70264 10.4006L3.67266 10.3883Z" fill="#CF4520"/>
<path d="M3.75122 10.3565L3.67014 10.3241C3.66326 10.3215 3.65567 10.3216 3.64886 10.3243C3.64204 10.327 3.63649 10.3322 3.63328 10.3388L3.60085 10.4199C3.59941 10.4232 3.59866 10.4267 3.59863 10.4303C3.59859 10.4339 3.59929 10.4374 3.60067 10.4407C3.60204 10.444 3.60408 10.447 3.60664 10.4495C3.60921 10.452 3.61225 10.454 3.61559 10.4553L3.69668 10.4892H3.707C3.71232 10.4893 3.71755 10.4878 3.72202 10.4849C3.72649 10.482 3.72999 10.4779 3.73206 10.473L3.76597 10.3919C3.76813 10.3852 3.76783 10.378 3.76513 10.3715C3.76242 10.365 3.75749 10.3597 3.75122 10.3565ZM3.69225 10.4273L3.66277 10.4155L3.67456 10.386L3.70405 10.3978L3.69225 10.4273Z" fill="#CF4520"/>
<path d="M4.17413 10.1801L4.16175 10.2101L4.19173 10.2225L4.20411 10.1925L4.17413 10.1801Z" fill="#CF4520"/>
<path d="M4.11039 10.2477L4.19 10.2816H4.20179C4.20729 10.2816 4.21265 10.2799 4.21714 10.2767C4.22163 10.2736 4.22502 10.2691 4.22685 10.2639L4.25929 10.1843C4.26075 10.1809 4.26152 10.1773 4.26157 10.1736C4.26162 10.1699 4.26094 10.1662 4.25957 10.1628C4.2582 10.1594 4.25617 10.1562 4.25359 10.1536C4.25101 10.151 4.24794 10.1489 4.24455 10.1474L4.16494 10.115C4.16155 10.1135 4.15791 10.1128 4.15422 10.1127C4.15053 10.1127 4.14687 10.1133 4.14345 10.1147C4.14002 10.1161 4.1369 10.1181 4.13426 10.1207C4.13163 10.1233 4.12953 10.1263 4.12808 10.1297L4.09565 10.2108C4.09397 10.2142 4.09302 10.2178 4.09286 10.2216C4.0927 10.2253 4.09334 10.2291 4.09473 10.2326C4.09613 10.236 4.09824 10.2392 4.10094 10.2418C4.10364 10.2444 4.10686 10.2464 4.11039 10.2477ZM4.16936 10.1784L4.19884 10.1902L4.18558 10.2197L4.15609 10.2079L4.16936 10.1784Z" fill="#CF4520"/>
<path d="M4.67394 9.97323L4.66156 10.0032L4.69154 10.0156L4.70392 9.98561L4.67394 9.97323Z" fill="#CF4520"/>
<path d="M4.61556 10.0395L4.69665 10.0734H4.70697C4.71271 10.0737 4.7184 10.0722 4.72319 10.069C4.72798 10.0658 4.7316 10.0611 4.7335 10.0557L4.76594 9.97608C4.7674 9.97269 4.76817 9.96905 4.76822 9.96536C4.76827 9.96168 4.76759 9.95802 4.76622 9.95459C4.76485 9.95117 4.76282 9.94805 4.76024 9.94541C4.75766 9.94277 4.75459 9.94067 4.75119 9.93922L4.67011 9.9068C4.66683 9.90536 4.66329 9.9046 4.65971 9.90457C4.65613 9.90454 4.65258 9.90523 4.64927 9.90661C4.64597 9.90799 4.64297 9.91002 4.64048 9.91259C4.63798 9.91515 4.63602 9.91819 4.63473 9.92153L4.60082 10.0011C4.59781 10.0082 4.59767 10.0161 4.60042 10.0233C4.60317 10.0305 4.60861 10.0363 4.61556 10.0395ZM4.67453 9.96871L4.70402 9.98198L4.69222 10.0115L4.66274 9.9982L4.67453 9.96871Z" fill="#CF4520"/>
<path d="M5.17624 9.76201L5.1638 9.79196L5.19375 9.80441L5.20619 9.77445L5.17624 9.76201Z" fill="#CF4520"/>
<path d="M5.11748 9.83193L5.19856 9.86436H5.20888C5.21433 9.86417 5.2196 9.86239 5.22405 9.85925C5.2285 9.85611 5.23194 9.85174 5.23395 9.84667L5.26785 9.76706C5.27043 9.76019 5.27034 9.7526 5.26761 9.74578C5.26489 9.73897 5.25972 9.73341 5.25311 9.73021L5.17203 9.6963C5.16533 9.69405 5.15808 9.69405 5.15139 9.6963C5.14769 9.69726 5.14429 9.6991 5.14146 9.70167C5.13864 9.70424 5.13648 9.70745 5.13517 9.71104L5.10274 9.79065C5.10052 9.79423 5.09913 9.79826 5.09868 9.80245C5.09824 9.80664 5.09874 9.81088 5.10016 9.81484C5.10157 9.81881 5.10387 9.82241 5.10687 9.82537C5.10987 9.82832 5.11349 9.83057 5.11748 9.83193ZM5.17645 9.76116L5.20594 9.77443L5.19414 9.80392L5.16466 9.79065L5.17645 9.76116Z" fill="#CF4520"/>
<path d="M5.67658 9.5559L5.6642 9.58588L5.69418 9.59826L5.70656 9.56828L5.67658 9.5559Z" fill="#CF4520"/>
<path d="M5.6979 9.65621H5.70969H5.72001C5.72664 9.65338 5.73192 9.6481 5.73475 9.64147L5.76719 9.56039C5.76862 9.55711 5.76938 9.55357 5.76941 9.54999C5.76944 9.54641 5.76875 9.54286 5.76737 9.53955C5.76599 9.53624 5.76396 9.53325 5.7614 9.53076C5.75883 9.52826 5.75579 9.5263 5.75245 9.52501L5.67284 9.4911C5.66578 9.48863 5.65805 9.48893 5.65121 9.49194C5.64437 9.49495 5.63892 9.50044 5.63598 9.50732L5.60355 9.58693C5.60205 9.59042 5.60127 9.59418 5.60127 9.59798C5.60127 9.60179 5.60205 9.60554 5.60355 9.60904C5.60471 9.61246 5.60664 9.61557 5.6092 9.61813C5.61176 9.62068 5.61487 9.62262 5.61829 9.62378L5.6979 9.65621ZM5.67726 9.55302L5.70674 9.56481L5.69348 9.59429L5.66399 9.5825L5.67726 9.55302Z" fill="#CF4520"/>
<path d="M2.98812 10.932L2.97572 10.9619L3.00568 10.9744L3.01809 10.9444L2.98812 10.932Z" fill="#CF4520"/>
<path d="M3.06502 10.9004L2.98393 10.868C2.98054 10.8665 2.9769 10.8657 2.97321 10.8657C2.96953 10.8656 2.96586 10.8663 2.96244 10.8677C2.95902 10.8691 2.9559 10.8711 2.95326 10.8737C2.95062 10.8763 2.94852 10.8793 2.94708 10.8827L2.91464 10.9623C2.91318 10.9657 2.9124 10.9694 2.91236 10.973C2.91231 10.9767 2.91299 10.9804 2.91436 10.9838C2.91573 10.9872 2.91776 10.9904 2.92034 10.993C2.92292 10.9956 2.92599 10.9977 2.92938 10.9992L3.01047 11.0316H3.02079C3.02628 11.0316 3.03164 11.0299 3.03613 11.0268C3.04062 11.0236 3.04402 11.0191 3.04585 11.0139L3.07976 10.9343C3.08263 10.9272 3.08263 10.9193 3.07976 10.9122C3.076 10.907 3.07091 10.9029 3.06502 10.9004ZM3.00605 10.9712L2.97656 10.9579L2.98835 10.9284L3.01784 10.9417L3.00605 10.9712Z" fill="#CF4520"/>
<path d="M3.49005 10.7222L3.47761 10.7521L3.50756 10.7645L3.52 10.7346L3.49005 10.7222Z" fill="#CF4520"/>
<path d="M3.4302 10.7913L3.50981 10.8238H3.5216C3.52705 10.8236 3.53232 10.8218 3.53677 10.8187C3.54122 10.8155 3.54466 10.8112 3.54666 10.8061L3.5791 10.7265C3.58056 10.7231 3.58133 10.7194 3.58138 10.7158C3.58143 10.7121 3.58075 10.7084 3.57938 10.705C3.57801 10.7016 3.57598 10.6984 3.5734 10.6958C3.57082 10.6932 3.56775 10.6911 3.56435 10.6896L3.48474 10.6557C3.47753 10.6535 3.46984 10.6535 3.46263 10.6557C3.45598 10.6592 3.45077 10.665 3.44789 10.6719L3.41545 10.7515C3.4135 10.7551 3.41234 10.759 3.41204 10.763C3.41173 10.767 3.4123 10.771 3.4137 10.7748C3.4151 10.7786 3.4173 10.782 3.42014 10.7849C3.42299 10.7877 3.42642 10.7899 3.4302 10.7913ZM3.48917 10.7206L3.51865 10.7338L3.50538 10.7619L3.4759 10.7501L3.48917 10.7206Z" fill="#CF4520"/>
<path d="M3.98811 10.5164L3.97573 10.5464L4.00571 10.5587L4.01809 10.5288L3.98811 10.5164Z" fill="#CF4520"/>
<path d="M4.01121 10.6163H4.02153H4.03185C4.03544 10.6151 4.03875 10.6132 4.04155 10.6107C4.04435 10.6081 4.04657 10.605 4.04806 10.6016L4.0805 10.5205C4.08193 10.5172 4.08269 10.5137 4.08272 10.5101C4.08275 10.5065 4.08206 10.5029 4.08068 10.4996C4.0793 10.4963 4.07727 10.4933 4.0747 10.4908C4.07214 10.4883 4.0691 10.4864 4.06575 10.4851L3.98467 10.4512C3.97801 10.4487 3.97064 10.4488 3.96406 10.4516C3.95749 10.4543 3.95221 10.4594 3.94929 10.4659L3.91538 10.547C3.91281 10.5539 3.9129 10.5615 3.91562 10.5683C3.91835 10.5751 3.92352 10.5807 3.93012 10.5839L4.01121 10.6163ZM3.98909 10.5131L4.01858 10.5249L4.00679 10.5544L3.9773 10.5426L3.98909 10.5131Z" fill="#CF4520"/>
<path d="M4.48927 10.3067L4.47689 10.3367L4.50687 10.3491L4.51925 10.3191L4.48927 10.3067Z" fill="#CF4520"/>
<path d="M4.43098 10.3758L4.51206 10.4083H4.52238C4.5277 10.4084 4.53294 10.4069 4.53741 10.404C4.54188 10.4011 4.54537 10.397 4.54744 10.392L4.58135 10.311C4.58385 10.3043 4.58371 10.2969 4.58098 10.2904C4.57824 10.2838 4.5731 10.2785 4.56661 10.2756L4.48552 10.2417C4.47865 10.2391 4.47106 10.2392 4.46424 10.2419C4.45743 10.2446 4.45187 10.2498 4.44867 10.2564L4.41623 10.3375C4.41454 10.341 4.41357 10.3447 4.4134 10.3486C4.41323 10.3524 4.41386 10.3563 4.41524 10.3599C4.41663 10.3635 4.41874 10.3668 4.42145 10.3695C4.42415 10.3722 4.4274 10.3744 4.43098 10.3758ZM4.48995 10.3051L4.51943 10.3169L4.50764 10.3463L4.47815 10.3346L4.48995 10.3051Z" fill="#CF4520"/>
<path d="M4.99075 10.0991L4.97837 10.129L5.00835 10.1414L5.02073 10.1114L4.99075 10.0991Z" fill="#CF4520"/>
<path d="M4.93293 10.1665L5.01254 10.2004H5.02433C5.02965 10.2005 5.03489 10.1991 5.03936 10.1962C5.04383 10.1933 5.04733 10.1891 5.04939 10.1842L5.08183 10.1031C5.08326 10.0998 5.08402 10.0963 5.08405 10.0927C5.08408 10.0891 5.08339 10.0856 5.08201 10.0823C5.08063 10.079 5.0786 10.076 5.07603 10.0735C5.07347 10.071 5.07042 10.069 5.06708 10.0677L4.98748 10.0338C4.9806 10.0312 4.97301 10.0313 4.96619 10.0341C4.95938 10.0368 4.95382 10.042 4.95062 10.0486L4.91819 10.1296C4.91651 10.133 4.91556 10.1367 4.9154 10.1404C4.91524 10.1442 4.91588 10.1479 4.91727 10.1514C4.91867 10.1549 4.92078 10.158 4.92348 10.1606C4.92618 10.1632 4.9294 10.1652 4.93293 10.1665ZM4.9919 10.0972L5.02138 10.109L5.00811 10.1385L4.97863 10.1267L4.9919 10.0972Z" fill="#CF4520"/>
<path d="M5.52123 9.90102L5.49174 9.88922L5.47995 9.91871L5.50944 9.9305L5.52123 9.90102Z" fill="#CF4520"/>
<path d="M5.43736 9.95835L5.51844 9.99226H5.52876C5.53429 9.99248 5.53977 9.99105 5.54449 9.98817C5.54921 9.98528 5.55297 9.98106 5.5553 9.97604L5.58773 9.89496C5.5892 9.89171 5.58996 9.88819 5.58996 9.88463C5.58996 9.88108 5.5892 9.87756 5.58773 9.87432C5.58657 9.87072 5.58466 9.86741 5.58211 9.86461C5.57957 9.86182 5.57646 9.8596 5.57299 9.8581L5.49191 9.82567C5.48524 9.82317 5.47787 9.8233 5.4713 9.82604C5.46473 9.82878 5.45944 9.83391 5.45653 9.84041L5.42262 9.92149C5.42115 9.92473 5.42039 9.92825 5.42039 9.93181C5.42039 9.93537 5.42115 9.93889 5.42262 9.94213C5.42386 9.94569 5.4258 9.94896 5.42834 9.95174C5.43087 9.95453 5.43394 9.95677 5.43736 9.95835ZM5.49633 9.88906L5.52582 9.90085L5.51402 9.93034L5.48454 9.91854L5.49633 9.88906Z" fill="#CF4520"/>
<path d="M5.99227 9.71536L5.9908 9.68292L5.98048 9.71093L5.99227 9.71536Z" fill="#CF4520"/>
<path d="M5.95125 9.63424L5.91881 9.71532C5.91631 9.72199 5.91645 9.72936 5.91919 9.73593C5.92192 9.74251 5.92706 9.74779 5.93356 9.7507L5.99253 9.77577V9.71532H5.98073L5.99253 9.68584V9.6254C5.98932 9.623 5.98564 9.62132 5.98174 9.62046C5.97783 9.6196 5.97379 9.6196 5.96987 9.62043C5.96596 9.62127 5.96228 9.62294 5.95907 9.62532C5.95585 9.6277 5.95319 9.63074 5.95125 9.63424Z" fill="#CF4520"/>
<path d="M3.35608 11.0402L3.3437 11.0702L3.37367 11.0825L3.38605 11.0526L3.35608 11.0402Z" fill="#CF4520"/>
<path d="M3.35253 10.9756C3.34929 10.9742 3.34577 10.9734 3.34221 10.9734C3.33865 10.9734 3.33514 10.9742 3.33189 10.9756C3.32527 10.9784 3.31999 10.9837 3.31715 10.9904L3.28324 11.0714C3.28181 11.0747 3.28105 11.0783 3.28102 11.0818C3.28099 11.0854 3.28168 11.089 3.28306 11.0923C3.28444 11.0956 3.28647 11.0986 3.28904 11.1011C3.2916 11.1036 3.29465 11.1055 3.29799 11.1068L3.37907 11.1407H3.38939C3.39492 11.141 3.40039 11.1395 3.40511 11.1366C3.40984 11.1338 3.4136 11.1295 3.41593 11.1245L3.44836 11.0434C3.44979 11.0401 3.45055 11.0366 3.45058 11.033C3.45061 11.0294 3.44992 11.0259 3.44854 11.0226C3.44716 11.0193 3.44513 11.0163 3.44257 11.0138C3.44 11.0113 3.43696 11.0093 3.43362 11.008L3.35253 10.9756ZM3.37465 11.0788L3.34516 11.067L3.35696 11.0375L3.38644 11.0493L3.37465 11.0788Z" fill="#CF4520"/>
<path d="M3.84673 10.8591L3.87622 10.8709L3.88801 10.8414L3.85853 10.8296L3.84673 10.8591Z" fill="#CF4520"/>
<path d="M3.93428 10.8017L3.85319 10.7678C3.84995 10.7663 3.84643 10.7656 3.84287 10.7656C3.83931 10.7656 3.8358 10.7663 3.83255 10.7678C3.82913 10.769 3.82602 10.7709 3.82346 10.7734C3.82091 10.776 3.81897 10.7791 3.81781 10.7825L3.7839 10.8636C3.7814 10.8703 3.78154 10.8776 3.78427 10.8842C3.78701 10.8908 3.79215 10.8961 3.79865 10.899L3.87973 10.9329H3.90037C3.907 10.9301 3.91228 10.9248 3.91511 10.9182L3.94902 10.8371C3.95045 10.8338 3.95121 10.8303 3.95124 10.8267C3.95127 10.8231 3.95058 10.8195 3.9492 10.8162C3.94782 10.8129 3.94579 10.8099 3.94323 10.8074C3.94066 10.8049 3.93762 10.803 3.93428 10.8017ZM3.87531 10.871L3.84582 10.8592L3.85762 10.8297L3.8871 10.8415L3.87531 10.871Z" fill="#CF4520"/>
<path d="M4.35872 10.6244L4.34634 10.6544L4.37631 10.6667L4.38869 10.6368L4.35872 10.6244Z" fill="#CF4520"/>
<path d="M4.43441 10.5864L4.3548 10.5539C4.34792 10.5514 4.34033 10.5514 4.33352 10.5542C4.3267 10.5569 4.32115 10.5621 4.31794 10.5687L4.28551 10.6498C4.28408 10.653 4.28332 10.6566 4.28329 10.6602C4.28326 10.6637 4.28395 10.6673 4.28533 10.6706C4.28671 10.6739 4.28874 10.6769 4.2913 10.6794C4.29387 10.6819 4.29691 10.6839 4.30025 10.6851L4.37986 10.719H4.39166C4.39698 10.7192 4.40221 10.7177 4.40668 10.7148C4.41115 10.7119 4.41465 10.7077 4.41672 10.7028L4.45063 10.6217C4.45268 10.6149 4.45217 10.6075 4.44918 10.601C4.4462 10.5945 4.44095 10.5893 4.43441 10.5864ZM4.37544 10.6571L4.34595 10.6453L4.35922 10.6159L4.38871 10.6276L4.37544 10.6571Z" fill="#CF4520"/>
<path d="M4.85853 10.4164L4.84615 10.4464L4.87612 10.4588L4.8885 10.4288L4.85853 10.4164Z" fill="#CF4520"/>
<path d="M4.93623 10.3846L4.85515 10.3521C4.85186 10.3507 4.84833 10.3499 4.84475 10.3499C4.84116 10.3499 4.83761 10.3506 4.83431 10.352C4.831 10.3533 4.82801 10.3554 4.82551 10.3579C4.82301 10.3605 4.82105 10.3635 4.81976 10.3669L4.78586 10.448C4.78336 10.4546 4.78349 10.462 4.78623 10.4686C4.78897 10.4751 4.7941 10.4804 4.8006 10.4833L4.88168 10.5173H4.892C4.89774 10.5176 4.90344 10.516 4.90822 10.5128C4.91301 10.5097 4.91663 10.505 4.91854 10.4996L4.95097 10.42C4.95347 10.4133 4.95334 10.4059 4.9506 10.3993C4.94786 10.3928 4.94272 10.3875 4.93623 10.3846ZM4.87726 10.4553L4.84777 10.4391L4.85957 10.4096L4.88905 10.4214L4.87726 10.4553Z" fill="#CF4520"/>
<path d="M5.36152 10.2089L5.34911 10.2388L5.37908 10.2512L5.39149 10.2213L5.36152 10.2089Z" fill="#CF4520"/>
<path d="M5.30139 10.2754L5.38247 10.3093H5.39279C5.39828 10.3094 5.40365 10.3077 5.40814 10.3045C5.41263 10.3013 5.41602 10.2968 5.41785 10.2917L5.45176 10.212C5.45433 10.2052 5.45425 10.1976 5.45152 10.1908C5.44879 10.1839 5.44362 10.1784 5.43702 10.1752L5.35593 10.1428C5.35265 10.1413 5.34911 10.1406 5.34553 10.1405C5.34195 10.1405 5.3384 10.1412 5.3351 10.1426C5.33179 10.144 5.3288 10.146 5.3263 10.1486C5.3238 10.1511 5.32184 10.1542 5.32055 10.1575L5.28664 10.2371C5.28378 10.2442 5.28378 10.2521 5.28664 10.2592C5.28972 10.2661 5.29488 10.2717 5.30139 10.2754ZM5.36036 10.2047L5.38984 10.2179L5.37805 10.2474L5.34856 10.2342L5.36036 10.2047Z" fill="#CF4520"/>
<path d="M5.86113 10.0002L5.84875 10.0302L5.87872 10.0425L5.89111 10.0126L5.86113 10.0002Z" fill="#CF4520"/>
<path d="M5.80263 10.0675L5.88224 10.0999H5.89404C5.89948 10.0997 5.90475 10.0979 5.90921 10.0948C5.91366 10.0916 5.91709 10.0873 5.9191 10.0822L5.95301 10.0026C5.95448 9.9953 5.95448 9.98779 5.95301 9.98049C5.94948 9.97384 5.94374 9.96863 5.93679 9.96574L5.85718 9.93184C5.85013 9.92936 5.8424 9.92966 5.83555 9.93267C5.82871 9.93568 5.82327 9.94118 5.82032 9.94805L5.78789 10.0277C5.78594 10.0312 5.78478 10.0351 5.78447 10.0391C5.78417 10.0431 5.78474 10.0472 5.78614 10.0509C5.78754 10.0547 5.78974 10.0582 5.79258 10.061C5.79543 10.0639 5.79886 10.0661 5.80263 10.0675ZM5.8616 9.9967L5.89109 10.01L5.87782 10.0395L5.84981 10.0262L5.8616 9.9967Z" fill="#CF4520"/>
<path d="M3.24924 11.3444L3.16816 11.312C3.16449 11.3102 3.16046 11.3092 3.15636 11.3092C3.15227 11.3092 3.14823 11.3102 3.14457 11.312L3.25072 11.4107L3.26398 11.3798C3.26615 11.3731 3.26585 11.3659 3.26315 11.3594C3.26044 11.3529 3.25551 11.3476 3.24924 11.3444Z" fill="#CF4520"/>
<path d="M3.6748 11.1676L3.66242 11.1976L3.6924 11.21L3.70478 11.18L3.6748 11.1676Z" fill="#CF4520"/>
<path d="M3.74938 11.1364L3.66977 11.104C3.66638 11.1025 3.66274 11.1017 3.65905 11.1017C3.65536 11.1016 3.6517 11.1023 3.64828 11.1037C3.64485 11.1051 3.64173 11.1071 3.6391 11.1097C3.63646 11.1122 3.63436 11.1153 3.63291 11.1187L3.60048 11.1983C3.59902 11.2017 3.59824 11.2054 3.59819 11.209C3.59814 11.2127 3.59882 11.2164 3.60019 11.2198C3.60156 11.2232 3.6036 11.2264 3.60618 11.229C3.60875 11.2316 3.61183 11.2337 3.61522 11.2352L3.69483 11.2676H3.70662C3.71207 11.2674 3.71734 11.2656 3.72179 11.2625C3.72624 11.2594 3.72968 11.255 3.73169 11.2499L3.76559 11.1703C3.76726 11.1637 3.76655 11.1566 3.76359 11.1504C3.76063 11.1442 3.7556 11.1393 3.74938 11.1364ZM3.69041 11.2072L3.66092 11.1939L3.67419 11.1644L3.70368 11.1777L3.69041 11.2072Z" fill="#CF4520"/>
<path d="M4.1746 10.9612L4.16222 10.9911L4.1922 11.0035L4.20458 10.9736L4.1746 10.9612Z" fill="#CF4520"/>
<path d="M4.10983 11.0289L4.19091 11.0613H4.20123C4.20688 11.0613 4.21239 11.0595 4.21709 11.0564C4.2218 11.0533 4.2255 11.0488 4.22777 11.0437L4.2602 10.9626C4.26163 10.9593 4.26239 10.9558 4.26242 10.9522C4.26245 10.9486 4.26176 10.945 4.26038 10.9417C4.259 10.9384 4.25697 10.9354 4.25441 10.9329C4.25184 10.9304 4.2488 10.9285 4.24546 10.9272L4.16437 10.8933C4.15752 10.8909 4.15001 10.8912 4.1434 10.8942C4.1368 10.8973 4.13164 10.9027 4.12899 10.9095L4.09508 10.9891C4.09336 10.9927 4.09238 10.9966 4.0922 11.0005C4.09201 11.0045 4.09262 11.0084 4.094 11.0121C4.09537 11.0159 4.09748 11.0193 4.1002 11.0221C4.10292 11.025 4.1062 11.0273 4.10983 11.0289ZM4.1688 10.9581L4.19828 10.9699L4.18649 10.9994L4.157 10.9876L4.1688 10.9581Z" fill="#CF4520"/>
<path d="M4.67425 10.7495L4.6618 10.7794L4.69176 10.7919L4.7042 10.7619L4.67425 10.7495Z" fill="#CF4520"/>
<path d="M4.61598 10.8195L4.69706 10.8519H4.70738C4.71282 10.8517 4.7181 10.8499 4.72255 10.8468C4.727 10.8436 4.73044 10.8393 4.73244 10.8342L4.76635 10.7531C4.76885 10.7465 4.76872 10.7391 4.76598 10.7325C4.76324 10.7259 4.7581 10.7207 4.75161 10.7177L4.67052 10.6838C4.66728 10.6824 4.66376 10.6816 4.6602 10.6816C4.65664 10.6816 4.65313 10.6824 4.64988 10.6838C4.64646 10.685 4.64335 10.6869 4.64079 10.6895C4.63824 10.692 4.6363 10.6952 4.63514 10.6986L4.60123 10.7797C4.59951 10.7832 4.59853 10.7871 4.59835 10.7911C4.59816 10.795 4.59877 10.799 4.60015 10.8027C4.60152 10.8064 4.60364 10.8098 4.60635 10.8127C4.60907 10.8156 4.61235 10.8179 4.61598 10.8195ZM4.67495 10.7487L4.70443 10.7605L4.69264 10.79L4.66315 10.7782L4.67495 10.7487Z" fill="#CF4520"/>
<path d="M5.17518 10.5427L5.16283 10.5727L5.19281 10.585L5.20517 10.555L5.17518 10.5427Z" fill="#CF4520"/>
<path d="M5.19644 10.6442H5.20824C5.21356 10.6444 5.2188 10.6429 5.22327 10.64C5.22773 10.6371 5.23123 10.6329 5.2333 10.628L5.26721 10.5469C5.26868 10.5401 5.26868 10.5331 5.26721 10.5263C5.26571 10.5228 5.26349 10.5197 5.26069 10.5172C5.2579 10.5146 5.25459 10.5127 5.25099 10.5115L5.17138 10.4776C5.16451 10.4751 5.15692 10.4752 5.1501 10.4779C5.14328 10.4806 5.13773 10.4858 5.13452 10.4924L5.10209 10.5735C5.10063 10.5767 5.09987 10.5802 5.09987 10.5838C5.09987 10.5873 5.10063 10.5909 5.10209 10.5941C5.10302 10.5976 5.10487 10.6009 5.10746 10.6035C5.11006 10.6061 5.11329 10.6079 5.11683 10.6088L5.19644 10.6442ZM5.1758 10.541L5.20529 10.5528L5.19202 10.5823L5.16254 10.5705L5.1758 10.541Z" fill="#CF4520"/>
<path d="M5.67511 10.3364L5.66273 10.3664L5.6927 10.3788L5.70509 10.3488L5.67511 10.3364Z" fill="#CF4520"/>
<path d="M5.61877 10.4021L5.69838 10.436H5.7087C5.71423 10.4363 5.71971 10.4348 5.72443 10.432C5.72915 10.4291 5.73291 10.4248 5.73524 10.4198L5.76767 10.3387C5.76911 10.3355 5.76986 10.3319 5.7699 10.3283C5.76993 10.3248 5.76923 10.3212 5.76786 10.3179C5.76648 10.3146 5.76445 10.3116 5.76188 10.3091C5.75932 10.3066 5.75627 10.3047 5.75293 10.3034L5.67185 10.2695C5.66518 10.267 5.65781 10.2671 5.65124 10.2698C5.64467 10.2726 5.63938 10.2777 5.63646 10.2842L5.60256 10.3653C5.60091 10.3687 5.60002 10.3725 5.59996 10.3763C5.59989 10.3801 5.60066 10.3839 5.6022 10.3874C5.60374 10.3909 5.60602 10.3941 5.60888 10.3966C5.61174 10.3991 5.61512 10.401 5.61877 10.4021ZM5.67627 10.3328L5.70576 10.3446L5.69396 10.3741L5.66448 10.3623L5.67627 10.3328Z" fill="#CF4520"/>
<path d="M3.54081 11.4832L3.52843 11.5132L3.5584 11.5256L3.57079 11.4956L3.54081 11.4832Z" fill="#CF4520"/>
<path d="M3.61742 11.4536L3.53634 11.4197C3.52967 11.4172 3.5223 11.4173 3.51573 11.42C3.50916 11.4228 3.50388 11.4279 3.50096 11.4344L3.46705 11.5155C3.46563 11.519 3.46493 11.5227 3.46498 11.5265C3.46503 11.5302 3.46583 11.5339 3.46734 11.5374C3.46886 11.5408 3.47105 11.5439 3.47378 11.5465C3.47652 11.549 3.47974 11.551 3.48327 11.5523L3.56288 11.5848H3.5732C3.57873 11.585 3.5842 11.5836 3.58892 11.5807C3.59364 11.5778 3.59741 11.5736 3.59973 11.5686L3.63217 11.4875C3.6346 11.481 3.63442 11.4739 3.63167 11.4675C3.62892 11.4612 3.62381 11.4562 3.61742 11.4536ZM3.55845 11.5229L3.52897 11.5111L3.54076 11.4816L3.57025 11.4934L3.55845 11.5229Z" fill="#CF4520"/>
<path d="M4.04062 11.2768L4.02824 11.3068L4.05821 11.3191L4.07059 11.2892L4.04062 11.2768Z" fill="#CF4520"/>
<path d="M4.11841 11.2455L4.03733 11.2116C4.03405 11.2101 4.03051 11.2094 4.02693 11.2094C4.02335 11.2093 4.0198 11.21 4.01649 11.2114C4.01318 11.2128 4.01019 11.2148 4.00769 11.2174C4.00519 11.2199 4.00324 11.223 4.00195 11.2263L3.96804 11.3074C3.96554 11.3141 3.96567 11.3214 3.96841 11.328C3.97115 11.3346 3.97629 11.3399 3.98278 11.3428L4.06386 11.3767H4.07418C4.07951 11.3768 4.08474 11.3753 4.08921 11.3724C4.09368 11.3696 4.09718 11.3654 4.09925 11.3605L4.13315 11.2794C4.13523 11.2729 4.13489 11.2659 4.13217 11.2597C4.12946 11.2534 4.12457 11.2484 4.11841 11.2455ZM4.05944 11.3148L4.02996 11.303L4.04175 11.2735L4.07124 11.2853L4.05944 11.3148Z" fill="#CF4520"/>
<path d="M4.54326 11.0671L4.53088 11.0971L4.56086 11.1095L4.57324 11.0795L4.54326 11.0671Z" fill="#CF4520"/>
<path d="M4.61854 11.0363L4.53894 11.0039C4.53206 11.0013 4.52447 11.0014 4.51765 11.0041C4.51084 11.0069 4.50529 11.012 4.50208 11.0186L4.46965 11.0997C4.46821 11.103 4.46745 11.1065 4.46742 11.1101C4.46739 11.1137 4.46809 11.1172 4.46946 11.1205C4.47084 11.1239 4.47287 11.1268 4.47544 11.1293C4.478 11.1318 4.48105 11.1338 4.48439 11.1351L4.56547 11.169H4.57579C4.58111 11.1691 4.58635 11.1676 4.59082 11.1647C4.59529 11.1619 4.59879 11.1577 4.60085 11.1528L4.63476 11.0717C4.63717 11.0649 4.63683 11.0573 4.6338 11.0507C4.63078 11.0441 4.62531 11.039 4.61854 11.0363ZM4.56105 11.1071L4.53156 11.0953L4.54336 11.0658L4.57284 11.0776L4.56105 11.1071Z" fill="#CF4520"/>
<path d="M5.04307 10.8607L5.03069 10.8907L5.06067 10.9031L5.07305 10.8731L5.04307 10.8607Z" fill="#CF4520"/>
<path d="M5.12018 10.8284L5.0391 10.7959C5.03586 10.7945 5.03234 10.7937 5.02878 10.7937C5.02522 10.7937 5.0217 10.7945 5.01846 10.7959C5.01183 10.7988 5.00655 10.804 5.00372 10.8107L4.96981 10.8918C4.96841 10.8951 4.96772 10.8988 4.96779 10.9024C4.96785 10.9061 4.96867 10.9097 4.97019 10.913C4.97172 10.9163 4.97391 10.9193 4.97663 10.9217C4.97936 10.9241 4.98255 10.926 4.98603 10.9271L5.06564 10.961H5.08775C5.09403 10.9577 5.09917 10.9526 5.10249 10.9463L5.13492 10.8652C5.13638 10.8618 5.13716 10.8582 5.13721 10.8545C5.13726 10.8508 5.13658 10.8472 5.13521 10.8437C5.13384 10.8403 5.13181 10.8372 5.12923 10.8345C5.12665 10.8319 5.12357 10.8298 5.12018 10.8284ZM5.06121 10.8991L5.03173 10.8873L5.04352 10.8578L5.07301 10.8696L5.06121 10.8991Z" fill="#CF4520"/>
<path d="M5.54488 10.6518L5.53247 10.6817L5.56244 10.6941L5.57484 10.6642L5.54488 10.6518Z" fill="#CF4520"/>
<path d="M5.63563 10.6353C5.63231 10.629 5.62717 10.6239 5.62089 10.6205L5.53981 10.5881C5.53653 10.5867 5.53299 10.5859 5.52941 10.5859C5.52583 10.5858 5.52227 10.5865 5.51897 10.5879C5.51566 10.5893 5.51267 10.5913 5.51017 10.5939C5.50767 10.5965 5.50572 10.5995 5.50442 10.6028L5.47052 10.6839C5.46802 10.6906 5.46815 10.698 5.47089 10.7045C5.47363 10.7111 5.47877 10.7164 5.48526 10.7193L5.56634 10.7532H5.58403C5.58953 10.7532 5.59489 10.7515 5.59938 10.7484C5.60387 10.7452 5.60726 10.7407 5.6091 10.7355L5.643 10.6559C5.64329 10.6483 5.64065 10.6409 5.63563 10.6353ZM5.56192 10.6913L5.53244 10.6795L5.54423 10.65L5.57371 10.6618L5.56192 10.6913Z" fill="#CF4520"/>
<path d="M5.98709 10.5116H5.99741V10.4113L5.97382 10.4703C5.97157 10.4738 5.97012 10.4777 5.96957 10.4819C5.96903 10.486 5.9694 10.4902 5.97067 10.4941C5.97194 10.4981 5.97407 10.5017 5.97691 10.5047C5.97975 10.5077 5.98323 10.5101 5.98709 10.5116Z" fill="#CF4520"/>
<path d="M3.85817 11.6124L3.84579 11.6423L3.87577 11.6547L3.88815 11.6247L3.85817 11.6124Z" fill="#CF4520"/>
<path d="M3.93352 11.5802L3.85391 11.5478C3.85052 11.5463 3.84688 11.5455 3.84319 11.5455C3.83951 11.5454 3.83584 11.5461 3.83242 11.5475C3.829 11.5488 3.82588 11.5509 3.82324 11.5535C3.8206 11.556 3.8185 11.5591 3.81705 11.5625L3.78462 11.6421C3.78316 11.6455 3.78238 11.6491 3.78234 11.6528C3.78229 11.6565 3.78297 11.6602 3.78434 11.6636C3.78571 11.667 3.78774 11.6701 3.79032 11.6728C3.7929 11.6754 3.79597 11.6775 3.79936 11.679L3.88045 11.7129H3.89077C3.89626 11.7129 3.90162 11.7112 3.90611 11.708C3.9106 11.7049 3.914 11.7004 3.91583 11.6952L3.94974 11.6156C3.95215 11.6087 3.9518 11.6012 3.94878 11.5946C3.94575 11.588 3.94028 11.5828 3.93352 11.5802ZM3.87603 11.651L3.84654 11.6377L3.85833 11.6082L3.88782 11.6215L3.87603 11.651Z" fill="#CF4520"/>
<path d="M4.35933 11.4027L4.34695 11.4326L4.37693 11.445L4.38931 11.415L4.35933 11.4027Z" fill="#CF4520"/>
<path d="M4.35292 11.3386C4.34607 11.3362 4.33855 11.3366 4.33195 11.3396C4.32535 11.3426 4.32019 11.3481 4.31754 11.3548L4.28363 11.4344C4.28221 11.4379 4.28151 11.4417 4.28156 11.4454C4.28161 11.4492 4.28241 11.4529 4.28393 11.4563C4.28544 11.4598 4.28763 11.4629 4.29036 11.4654C4.2931 11.468 4.29633 11.47 4.29985 11.4713L4.37946 11.5037H4.38978C4.39543 11.5036 4.40094 11.5019 4.40564 11.4988C4.41035 11.4957 4.41405 11.4912 4.41632 11.486L4.44875 11.4064C4.45021 11.4031 4.45098 11.3994 4.45103 11.3957C4.45108 11.392 4.4504 11.3884 4.44903 11.3849C4.44766 11.3815 4.44563 11.3784 4.44305 11.3758C4.44047 11.3731 4.4374 11.371 4.43401 11.3696L4.35292 11.3386ZM4.37504 11.4433L4.34555 11.43L4.35734 11.4005L4.38683 11.4138L4.37504 11.4433Z" fill="#CF4520"/>
<path d="M4.84745 11.2235L4.87694 11.2353L4.88873 11.2058L4.85924 11.1925L4.84745 11.2235Z" fill="#CF4520"/>
<path d="M4.8547 11.1308C4.84785 11.1284 4.84033 11.1287 4.83373 11.1318C4.82713 11.1348 4.82196 11.1403 4.81932 11.147L4.78541 11.2266C4.78391 11.2301 4.78313 11.2339 4.78313 11.2377C4.78313 11.2415 4.78391 11.2452 4.78541 11.2487C4.78873 11.255 4.79387 11.2602 4.80015 11.2635L4.88124 11.2959H4.89156C4.897 11.2957 4.90227 11.2939 4.90672 11.2908C4.91117 11.2877 4.91461 11.2833 4.91662 11.2782L4.95052 11.1971C4.95199 11.1939 4.95275 11.1904 4.95275 11.1868C4.95275 11.1833 4.95199 11.1797 4.95052 11.1765C4.94769 11.1699 4.94241 11.1646 4.93578 11.1618L4.8547 11.1308ZM4.87681 11.234L4.84733 11.2222L4.85912 11.1927L4.88861 11.2045L4.87681 11.234Z" fill="#CF4520"/>
<path d="M5.35867 10.9876L5.34629 11.0176L5.37627 11.03L5.38865 11L5.35867 10.9876Z" fill="#CF4520"/>
<path d="M5.30094 11.0556L5.38202 11.088H5.39234C5.39779 11.0878 5.40306 11.086 5.40751 11.0829C5.41196 11.0797 5.4154 11.0754 5.41741 11.0703L5.45131 10.9892C5.45272 10.9858 5.4534 10.9822 5.45334 10.9786C5.45327 10.9749 5.45245 10.9713 5.45093 10.968C5.44941 10.9647 5.44721 10.9617 5.44449 10.9593C5.44177 10.9568 5.43857 10.955 5.4351 10.9538L5.35549 10.9199C5.34861 10.9174 5.34102 10.9174 5.33421 10.9202C5.32739 10.9229 5.32184 10.9281 5.31863 10.9347L5.2862 11.0158C5.28425 11.0193 5.28308 11.0232 5.28278 11.0272C5.28248 11.0312 5.28304 11.0353 5.28444 11.039C5.28584 11.0428 5.28804 11.0462 5.29089 11.0491C5.29374 11.0519 5.29716 11.0542 5.30094 11.0556ZM5.35991 10.9848L5.3894 10.9966L5.3776 11.0261L5.34812 11.0143L5.35991 10.9848Z" fill="#CF4520"/>
<path d="M5.86082 10.7772L5.84837 10.8072L5.87832 10.8196L5.89077 10.7897L5.86082 10.7772Z" fill="#CF4520"/>
<path d="M5.80291 10.8462L5.88252 10.8801H5.89284C5.89837 10.8803 5.90384 10.8789 5.90857 10.876C5.91329 10.8731 5.91705 10.8689 5.91938 10.8639L5.95181 10.7828C5.95324 10.7795 5.954 10.776 5.95403 10.7724C5.95406 10.7688 5.95337 10.7653 5.95199 10.762C5.95061 10.7586 5.94858 10.7557 5.94602 10.7532C5.94345 10.7507 5.94041 10.7487 5.93707 10.7474L5.85598 10.7135C5.85274 10.712 5.84922 10.7113 5.84566 10.7113C5.8421 10.7113 5.83859 10.712 5.83534 10.7135C5.82906 10.7168 5.82392 10.722 5.8206 10.7282L5.78669 10.8093C5.78504 10.8128 5.78415 10.8165 5.78409 10.8204C5.78403 10.8242 5.7848 10.828 5.78634 10.8315C5.78788 10.835 5.79015 10.8381 5.79301 10.8406C5.79588 10.8432 5.79925 10.8451 5.80291 10.8462ZM5.86188 10.7769L5.88989 10.7887L5.8781 10.8182L5.84861 10.8064L5.86188 10.7769Z" fill="#CF4520"/>
<path d="M4.22523 11.7211L4.21284 11.751L4.24282 11.7634L4.2552 11.7334L4.22523 11.7211Z" fill="#CF4520"/>
<path d="M4.30322 11.6891L4.22214 11.6552C4.21547 11.6527 4.2081 11.6528 4.20153 11.6555C4.19496 11.6583 4.18967 11.6634 4.18675 11.6699L4.15285 11.751C4.15028 11.7579 4.15036 11.7655 4.15309 11.7723C4.15581 11.7791 4.16098 11.7846 4.16759 11.7878L4.24867 11.8203H4.25752C4.26284 11.8204 4.26808 11.8189 4.27255 11.816C4.27702 11.8131 4.28051 11.809 4.28258 11.8041L4.31649 11.723C4.31868 11.7167 4.31855 11.7098 4.31612 11.7036C4.31368 11.6974 4.30911 11.6922 4.30322 11.6891ZM4.24425 11.7584L4.21477 11.7466L4.22656 11.7171L4.25604 11.7289L4.24425 11.7584Z" fill="#CF4520"/>
<path d="M4.72664 11.5114L4.71426 11.5414L4.74423 11.5537L4.75661 11.5238L4.72664 11.5114Z" fill="#CF4520"/>
<path d="M4.80416 11.4816L4.72308 11.4477C4.7162 11.4451 4.70861 11.4452 4.7018 11.4479C4.69498 11.4506 4.68943 11.4558 4.68622 11.4624L4.65379 11.5435C4.65232 11.5467 4.65157 11.5503 4.65157 11.5538C4.65157 11.5574 4.65232 11.5609 4.65379 11.5641C4.65504 11.5675 4.65701 11.5706 4.65955 11.5731C4.6621 11.5757 4.66516 11.5776 4.66853 11.5789L4.74961 11.6128H4.75994C4.76526 11.6129 4.77049 11.6114 4.77496 11.6085C4.77943 11.6056 4.78293 11.6015 4.785 11.5966L4.8189 11.5155C4.82134 11.509 4.82116 11.5019 4.81841 11.4955C4.81566 11.4892 4.81055 11.4842 4.80416 11.4816ZM4.74519 11.5509L4.71571 11.5391L4.7275 11.5096L4.75699 11.5214L4.74519 11.5509Z" fill="#CF4520"/>
<path d="M5.22888 11.3031L5.21648 11.3331L5.24644 11.3455L5.25885 11.3155L5.22888 11.3031Z" fill="#CF4520"/>
<path d="M5.31914 11.2885C5.31798 11.2849 5.31606 11.2816 5.31352 11.2788C5.31098 11.276 5.30787 11.2738 5.3044 11.2723L5.22479 11.2398C5.21791 11.2373 5.21032 11.2374 5.20351 11.2401C5.19669 11.2428 5.19114 11.248 5.18793 11.2546L5.15402 11.3357C5.15161 11.3425 5.15196 11.35 5.15498 11.3566C5.15801 11.3632 5.16348 11.3684 5.17024 11.3711L5.24985 11.405H5.26017C5.2657 11.4052 5.27117 11.4038 5.27589 11.4009C5.28062 11.398 5.28438 11.3938 5.28671 11.3887L5.31914 11.3077C5.32168 11.3015 5.32168 11.2946 5.31914 11.2885ZM5.24543 11.343L5.21594 11.3312L5.22921 11.3018L5.25869 11.3136L5.24543 11.343Z" fill="#CF4520"/>
<path d="M5.72909 11.0969L5.71671 11.1268L5.74669 11.1392L5.75907 11.1092L5.72909 11.0969Z" fill="#CF4520"/>
<path d="M5.80504 11.0642L5.73133 11.0288C5.72805 11.0274 5.72451 11.0266 5.72093 11.0266C5.71735 11.0266 5.7138 11.0273 5.71049 11.0287C5.70718 11.03 5.70419 11.0321 5.70169 11.0346C5.69919 11.0372 5.69724 11.0402 5.69595 11.0436L5.66204 11.1247C5.65954 11.1313 5.65967 11.1387 5.66241 11.1453C5.66515 11.1518 5.67029 11.1571 5.67678 11.16L5.75786 11.1939H5.76818C5.77393 11.1943 5.77962 11.1927 5.78441 11.1895C5.78919 11.1863 5.79281 11.1817 5.79472 11.1763L5.82715 11.0966C5.82809 11.0895 5.82636 11.0822 5.82228 11.0762C5.8182 11.0702 5.81207 11.066 5.80504 11.0642ZM5.74607 11.135L5.71659 11.1232L5.72838 11.0937L5.75786 11.1055L5.74607 11.135Z" fill="#CF4520"/>
<path d="M4.04263 12.0536L4.03019 12.0836L4.06014 12.096L4.07259 12.0661L4.04263 12.0536Z" fill="#CF4520"/>
<path d="M4.07477 12.1582C4.08027 12.1582 4.08563 12.1565 4.09012 12.1533C4.09461 12.1501 4.098 12.1457 4.09983 12.1405L4.13374 12.0609C4.13631 12.054 4.13623 12.0464 4.1335 12.0396C4.13077 12.0328 4.1256 12.0272 4.119 12.024L4.03792 11.9916C4.03453 11.9901 4.03089 11.9893 4.0272 11.9893C4.02351 11.9892 4.01985 11.9899 4.01642 11.9913C4.013 11.9927 4.00988 11.9947 4.00724 11.9973C4.00461 11.9999 4.00251 12.0029 4.00106 12.0063L3.9701 12.0845L4.03349 12.1434L4.06445 12.1567L4.07477 12.1582ZM4.04234 12.0535L4.07182 12.0653L4.06003 12.0948L4.03054 12.0815L4.04234 12.0535Z" fill="#CF4520"/>
<path d="M4.54263 11.847L4.53028 11.877L4.56027 11.8894L4.57262 11.8594L4.54263 11.847Z" fill="#CF4520"/>
<path d="M4.53971 11.7838C4.53632 11.7823 4.53268 11.7815 4.52899 11.7815C4.5253 11.7814 4.52164 11.7821 4.51822 11.7835C4.51479 11.7848 4.51167 11.7869 4.50904 11.7894C4.5064 11.792 4.5043 11.7951 4.50285 11.7985L4.46894 11.8781C4.46647 11.8852 4.46677 11.8929 4.46978 11.8997C4.47279 11.9066 4.47829 11.912 4.48516 11.915L4.56477 11.9474H4.57509C4.58083 11.9477 4.58653 11.9462 4.59131 11.943C4.5961 11.9398 4.59972 11.9351 4.60163 11.9297L4.63406 11.8501C4.63552 11.8467 4.6363 11.8431 4.63634 11.8394C4.63639 11.8357 4.63571 11.832 4.63434 11.8286C4.63297 11.8252 4.63094 11.8221 4.62836 11.8194C4.62578 11.8168 4.62271 11.8147 4.61932 11.8132L4.53971 11.7838ZM4.56035 11.887L4.53086 11.8737L4.54413 11.8442L4.57362 11.8575L4.56035 11.887Z" fill="#CF4520"/>
<path d="M5.044 11.6405L5.03162 11.6705L5.0616 11.6829L5.07398 11.6529L5.044 11.6405Z" fill="#CF4520"/>
<path d="M5.03878 11.5741C5.03193 11.5717 5.02441 11.5721 5.01781 11.5751C5.01121 11.5781 5.00604 11.5836 5.0034 11.5903L4.96949 11.67C4.96692 11.6768 4.967 11.6844 4.96973 11.6912C4.97246 11.6981 4.97763 11.7036 4.98423 11.7068L5.06532 11.7392H5.07564C5.08129 11.7392 5.0868 11.7374 5.0915 11.7343C5.09621 11.7312 5.09991 11.7267 5.10217 11.7216L5.13461 11.6419C5.13718 11.6351 5.13709 11.6275 5.13437 11.6207C5.13164 11.6138 5.12647 11.6083 5.11986 11.6051L5.03878 11.5741ZM5.06089 11.6788L5.03141 11.6655L5.0432 11.636L5.07269 11.6493L5.06089 11.6788Z" fill="#CF4520"/>
<path d="M5.54325 11.4318L5.53087 11.4618L5.56085 11.4742L5.57323 11.4442L5.54325 11.4318Z" fill="#CF4520"/>
<path d="M5.58476 11.5343C5.59021 11.5341 5.59548 11.5324 5.59993 11.5292C5.60438 11.5261 5.60782 11.5217 5.60982 11.5167L5.64373 11.4356C5.64623 11.4289 5.6461 11.4215 5.64336 11.415C5.64062 11.4084 5.63548 11.4031 5.62899 11.4002L5.5479 11.3663C5.54103 11.3637 5.53344 11.3638 5.52662 11.3665C5.51981 11.3692 5.51425 11.3744 5.51105 11.381L5.47861 11.4621C5.47715 11.4655 5.47638 11.4691 5.47633 11.4728C5.47628 11.4765 5.47696 11.4802 5.47833 11.4836C5.4797 11.487 5.48173 11.4901 5.48431 11.4928C5.48689 11.4954 5.48996 11.4975 5.49336 11.499L5.57444 11.5314L5.58476 11.5343ZM5.55233 11.4282L5.58181 11.44L5.57002 11.4695L5.54053 11.4577L5.55233 11.4282Z" fill="#CF4520"/>
<path d="M5.98744 11.2912H6.00218V11.1777L5.97269 11.2484C5.97047 11.2521 5.96908 11.2563 5.96863 11.2606C5.96818 11.2648 5.96867 11.2692 5.97008 11.2733C5.97148 11.2773 5.97377 11.2811 5.97677 11.2841C5.97977 11.2872 5.98341 11.2897 5.98744 11.2912Z" fill="#CF4520"/>
<path d="M4.41123 12.1638L4.39885 12.1938L4.42883 12.2061L4.44121 12.1762L4.41123 12.1638Z" fill="#CF4520"/>
<path d="M4.40521 12.0992C4.40197 12.0977 4.39845 12.097 4.39489 12.097C4.39134 12.097 4.38782 12.0977 4.38458 12.0992C4.37795 12.102 4.37267 12.1073 4.36983 12.1139L4.33592 12.195C4.33446 12.1983 4.3337 12.2018 4.3337 12.2054C4.3337 12.2089 4.33446 12.2124 4.33592 12.2157C4.33881 12.2226 4.34402 12.2284 4.35067 12.2319L4.43175 12.2643H4.44207C4.44772 12.2642 4.45323 12.2625 4.45794 12.2594C4.46264 12.2562 4.46635 12.2518 4.46861 12.2466L4.50104 12.1655C4.50248 12.1623 4.50323 12.1587 4.50326 12.1551C4.50329 12.1516 4.5026 12.148 4.50122 12.1447C4.49984 12.1414 4.49781 12.1384 4.49525 12.1359C4.49268 12.1334 4.48964 12.1315 4.4863 12.1302L4.40521 12.0992ZM4.42733 12.2024L4.39784 12.1906L4.40964 12.1611L4.43912 12.1729L4.42733 12.2024Z" fill="#CF4520"/>
<path d="M4.91121 11.9556L4.89883 11.9856L4.92881 11.998L4.94119 11.968L4.91121 11.9556Z" fill="#CF4520"/>
<path d="M4.99435 11.9254L4.91327 11.8915C4.90639 11.8889 4.8988 11.889 4.89198 11.8917C4.88517 11.8945 4.87961 11.8996 4.87641 11.9062L4.84398 11.9873C4.84148 11.994 4.84161 12.0013 4.84435 12.0079C4.84709 12.0145 4.85223 12.0198 4.85872 12.0227L4.9398 12.0566H4.96044C4.96707 12.0538 4.97235 12.0485 4.97518 12.0419L5.00909 11.9608C5.01056 11.9575 5.01131 11.954 5.01131 11.9505C5.01131 11.9469 5.01056 11.9434 5.00909 11.9401C5.00626 11.9335 5.00098 11.9282 4.99435 11.9254ZM4.93538 11.9947L4.90589 11.9829L4.91769 11.9534L4.94717 11.9652L4.93538 11.9947Z" fill="#CF4520"/>
<path d="M5.4124 11.7475L5.40002 11.7775L5.43 11.7899L5.44238 11.7599L5.4124 11.7475Z" fill="#CF4520"/>
<path d="M5.48852 11.7171L5.40891 11.6831C5.40203 11.6806 5.39444 11.6807 5.38763 11.6834C5.38081 11.6861 5.37526 11.6913 5.37205 11.6979L5.33962 11.779C5.33818 11.7822 5.33743 11.7858 5.3374 11.7894C5.33736 11.793 5.33806 11.7965 5.33944 11.7998C5.34081 11.8031 5.34285 11.8061 5.34541 11.8086C5.34798 11.8111 5.35102 11.8131 5.35436 11.8143L5.43397 11.8483H5.44576C5.45109 11.8484 5.45632 11.8469 5.46079 11.844C5.46526 11.8411 5.46876 11.8369 5.47083 11.832L5.50326 11.751C5.5057 11.7445 5.50552 11.7373 5.50277 11.731C5.50001 11.7247 5.4949 11.7197 5.48852 11.7171ZM5.42955 11.7863L5.40006 11.7745L5.41333 11.7451L5.44282 11.7569L5.42955 11.7863Z" fill="#CF4520"/>
<path d="M5.9137 11.5396L5.90132 11.5695L5.9313 11.5819L5.94368 11.552L5.9137 11.5396Z" fill="#CF4520"/>
<path d="M5.90926 11.4709C5.90259 11.4684 5.89523 11.4685 5.88865 11.4712C5.88208 11.474 5.8768 11.4791 5.87388 11.4856L5.83997 11.5667C5.83747 11.5734 5.8376 11.5807 5.84034 11.5873C5.84308 11.5939 5.84822 11.5992 5.85471 11.6021L5.9358 11.636H5.94612C5.95165 11.6362 5.95712 11.6348 5.96184 11.6319C5.96657 11.629 5.97033 11.6248 5.97265 11.6198L6.00361 11.5431V11.5151C6.00075 11.5093 5.99609 11.5047 5.99035 11.5018L5.90926 11.4709ZM5.93137 11.5741L5.90189 11.5623L5.91368 11.5328L5.94317 11.5446L5.93137 11.5741Z" fill="#CF4520"/>
<path d="M4.72729 12.2912L4.7149 12.3212L4.74488 12.3336L4.75726 12.3036L4.72729 12.2912Z" fill="#CF4520"/>
<path d="M4.80348 12.26L4.72387 12.2276C4.72049 12.2261 4.71685 12.2253 4.71316 12.2253C4.70947 12.2252 4.70581 12.2259 4.70238 12.2273C4.69896 12.2287 4.69584 12.2307 4.6932 12.2333C4.69057 12.2358 4.68846 12.2389 4.68702 12.2423L4.65459 12.3219C4.65313 12.3253 4.65235 12.3289 4.6523 12.3326C4.65225 12.3363 4.65293 12.34 4.6543 12.3434C4.65567 12.3468 4.6577 12.35 4.66028 12.3526C4.66286 12.3552 4.66594 12.3573 4.66933 12.3588L4.74894 12.3927H4.76073C4.76623 12.3927 4.77159 12.391 4.77608 12.3878C4.78057 12.3847 4.78396 12.3802 4.78579 12.375L4.81823 12.2954C4.82073 12.2887 4.82059 12.2813 4.81785 12.2748C4.81511 12.2682 4.80998 12.2629 4.80348 12.26ZM4.74451 12.3308L4.71503 12.3175L4.7283 12.288L4.75778 12.3013L4.74451 12.3308Z" fill="#CF4520"/>
<path d="M5.22862 12.0848L5.21624 12.1148L5.24622 12.1272L5.2586 12.0972L5.22862 12.0848Z" fill="#CF4520"/>
<path d="M5.22292 12.0179C5.21607 12.0155 5.20856 12.0159 5.20195 12.0189C5.19535 12.0219 5.19019 12.0274 5.18754 12.0341L5.15363 12.1137C5.15106 12.1206 5.15115 12.1282 5.15387 12.135C5.1566 12.1418 5.16177 12.1474 5.16838 12.1506L5.24946 12.183H5.25978C5.26543 12.1829 5.27094 12.1812 5.27564 12.1781C5.28035 12.1749 5.28405 12.1705 5.28632 12.1653L5.31875 12.0857C5.32021 12.0823 5.32098 12.0787 5.32103 12.075C5.32108 12.0713 5.3204 12.0677 5.31903 12.0642C5.31766 12.0608 5.31563 12.0577 5.31305 12.0551C5.31047 12.0524 5.3074 12.0503 5.30401 12.0489L5.22292 12.0179ZM5.24504 12.1226L5.21555 12.1093L5.22735 12.0798L5.25683 12.0931L5.24504 12.1226Z" fill="#CF4520"/>
<path d="M5.716 11.9018L5.74695 11.915L5.75875 11.8856L5.72926 11.8723L5.716 11.9018Z" fill="#CF4520"/>
<path d="M5.73207 11.81C5.72883 11.8085 5.72531 11.8078 5.72175 11.8078C5.71819 11.8078 5.71467 11.8085 5.71143 11.81C5.70778 11.8115 5.70447 11.8137 5.70168 11.8165C5.6989 11.8192 5.6967 11.8226 5.69521 11.8262L5.66278 11.9058C5.66021 11.9127 5.66029 11.9203 5.66302 11.9271C5.66575 11.9339 5.67092 11.9395 5.67752 11.9427L5.75861 11.9751H5.76893H5.77925C5.78262 11.9739 5.78568 11.9719 5.78822 11.9693C5.79077 11.9668 5.79273 11.9637 5.79399 11.9604L5.8279 11.8793C5.8304 11.8726 5.83026 11.8652 5.82752 11.8587C5.82479 11.8521 5.81965 11.8468 5.81315 11.8439L5.73207 11.81ZM5.75418 11.9132L5.7247 11.9014L5.73649 11.8719L5.76598 11.8852L5.75418 11.9132Z" fill="#CF4520"/>
<path d="M4.5946 12.6081L4.58222 12.638L4.6122 12.6504L4.62458 12.6204L4.5946 12.6081Z" fill="#CF4520"/>
<path d="M4.65377 12.6932L4.6862 12.6121C4.68767 12.6089 4.68843 12.6054 4.68843 12.6018C4.68843 12.5983 4.68767 12.5948 4.6862 12.5915C4.68495 12.5881 4.68298 12.5851 4.68044 12.5825C4.67789 12.58 4.67483 12.578 4.67146 12.5768L4.59038 12.5429C4.587 12.5415 4.58338 12.5408 4.57972 12.5408C4.57607 12.5409 4.57247 12.5417 4.56915 12.5432C4.56583 12.5448 4.56285 12.547 4.56042 12.5497C4.55798 12.5524 4.55614 12.5556 4.555 12.5591L4.53288 12.6107L4.63755 12.708C4.64458 12.7052 4.65034 12.7 4.65377 12.6932ZM4.5948 12.6048L4.62428 12.6166L4.61249 12.6461L4.58301 12.6343L4.5948 12.6048Z" fill="#CF4520"/>
<path d="M5.09577 12.3999L5.08339 12.4299L5.11337 12.4423L5.12575 12.4123L5.09577 12.3999Z" fill="#CF4520"/>
<path d="M5.17326 12.3689L5.09218 12.3349C5.08551 12.3324 5.07814 12.3326 5.07157 12.3353C5.065 12.3381 5.05971 12.3432 5.0568 12.3497L5.02289 12.4308C5.02032 12.4376 5.0204 12.4452 5.02313 12.4521C5.02585 12.4589 5.03103 12.4644 5.03763 12.4676L5.11871 12.5001H5.12903C5.13436 12.5002 5.13959 12.4987 5.14406 12.4958C5.14853 12.4929 5.15203 12.4887 5.1541 12.4838L5.188 12.4028C5.19008 12.3963 5.18973 12.3893 5.18702 12.383C5.18431 12.3768 5.17942 12.3717 5.17326 12.3689ZM5.11429 12.4381L5.08481 12.4263L5.0966 12.3969L5.12608 12.4087L5.11429 12.4381Z" fill="#CF4520"/>
<path d="M5.59724 12.1918L5.58486 12.2218L5.61484 12.2342L5.62722 12.2042L5.59724 12.1918Z" fill="#CF4520"/>
<path d="M5.59305 12.1273C5.58956 12.1258 5.5858 12.125 5.58199 12.125C5.57819 12.125 5.57443 12.1258 5.57094 12.1273C5.56465 12.1306 5.55952 12.1357 5.55619 12.142L5.52376 12.2231C5.52233 12.2264 5.52157 12.2299 5.52154 12.2335C5.52151 12.2371 5.5222 12.2406 5.52358 12.2439C5.52496 12.2472 5.52699 12.2502 5.52955 12.2527C5.53212 12.2552 5.53516 12.2572 5.5385 12.2585L5.61959 12.2924H5.62991C5.63523 12.2925 5.64046 12.291 5.64493 12.2881C5.6494 12.2852 5.6529 12.2811 5.65497 12.2762L5.68888 12.1951C5.69028 12.1917 5.69097 12.1881 5.6909 12.1844C5.69083 12.1808 5.69001 12.1772 5.68849 12.1739C5.68697 12.1705 5.68478 12.1676 5.68205 12.1651C5.67933 12.1627 5.67613 12.1609 5.67266 12.1597L5.59305 12.1273ZM5.61369 12.2305L5.58568 12.2187L5.59747 12.1892L5.62696 12.201L5.61369 12.2305Z" fill="#CF4520"/>
<path d="M4.91066 12.7355L4.89828 12.7654L4.92826 12.7778L4.94064 12.7478L4.91066 12.7355Z" fill="#CF4520"/>
<path d="M4.99422 12.7038L4.91461 12.6714C4.91122 12.6699 4.90758 12.6691 4.90389 12.6691C4.9002 12.6691 4.89654 12.6697 4.89312 12.6711C4.88969 12.6725 4.88657 12.6745 4.88393 12.6771C4.8813 12.6797 4.8792 12.6827 4.87775 12.6861L4.84532 12.7672C4.84388 12.7705 4.84313 12.774 4.84309 12.7776C4.84306 12.7812 4.84376 12.7847 4.84514 12.788C4.84651 12.7914 4.84855 12.7943 4.85111 12.7968C4.85367 12.7993 4.85672 12.8013 4.86006 12.8026L4.94114 12.8365H4.95146C4.95696 12.8365 4.96232 12.8348 4.96681 12.8316C4.9713 12.8285 4.97469 12.824 4.97652 12.8188L5.01043 12.7392C5.01284 12.7323 5.0125 12.7248 5.00947 12.7182C5.00645 12.7116 5.00098 12.7065 4.99422 12.7038ZM4.93525 12.7746L4.90724 12.7628L4.91903 12.7333L4.94851 12.7451L4.93525 12.7746Z" fill="#CF4520"/>
<path d="M5.41314 12.5275L5.40076 12.5575L5.43073 12.5699L5.44312 12.5399L5.41314 12.5275Z" fill="#CF4520"/>
<path d="M5.40827 12.4632C5.40498 12.4617 5.40145 12.461 5.39787 12.4609C5.39428 12.4609 5.39073 12.4616 5.38743 12.463C5.38412 12.4644 5.38113 12.4664 5.37863 12.469C5.37613 12.4715 5.37418 12.4746 5.37288 12.4779L5.33898 12.5575C5.33756 12.561 5.33685 12.5647 5.3369 12.5685C5.33695 12.5722 5.33776 12.5759 5.33927 12.5794C5.34078 12.5828 5.34297 12.5859 5.34571 12.5885C5.34844 12.5911 5.35167 12.5931 5.35519 12.5944L5.4348 12.6283H5.44512C5.45087 12.6286 5.45656 12.6271 5.46134 12.6239C5.46613 12.6207 5.46975 12.616 5.47166 12.6106L5.50409 12.531C5.50555 12.5276 5.50633 12.5239 5.50638 12.5203C5.50643 12.5166 5.50575 12.5129 5.50438 12.5095C5.50301 12.5061 5.50097 12.5029 5.4984 12.5003C5.49582 12.4977 5.49274 12.4956 5.48935 12.4941L5.40827 12.4632ZM5.43038 12.5664L5.40089 12.5531L5.41269 12.5236L5.44217 12.5369L5.43038 12.5664Z" fill="#CF4520"/>
<path d="M5.91312 12.3194L5.90074 12.3494L5.93072 12.3617L5.9431 12.3318L5.91312 12.3194Z" fill="#CF4520"/>
<path d="M5.85423 12.3865L5.93532 12.4189H5.94564C5.95108 12.4187 5.95635 12.4169 5.96081 12.4138C5.96526 12.4106 5.9687 12.4063 5.9707 12.4012L6.00461 12.3216C6.00718 12.3147 6.00709 12.3071 6.00437 12.3003C6.00164 12.2935 5.99647 12.2879 5.98987 12.2847L5.90878 12.2508C5.90193 12.2484 5.89441 12.2488 5.88781 12.2518C5.88121 12.2548 5.87604 12.2603 5.8734 12.267L5.83949 12.3467C5.83777 12.3502 5.83679 12.3541 5.8366 12.3581C5.83642 12.362 5.83703 12.366 5.83841 12.3697C5.83978 12.3734 5.84189 12.3768 5.84461 12.3797C5.84733 12.3826 5.8506 12.3849 5.85423 12.3865ZM5.9132 12.3157L5.94269 12.329L5.93089 12.3584L5.90141 12.3452L5.9132 12.3157Z" fill="#CF4520"/>
<path d="M5.28038 12.8442L5.268 12.8742L5.29798 12.8866L5.31036 12.8566L5.28038 12.8442Z" fill="#CF4520"/>
<path d="M5.3574 12.8127L5.27631 12.7788C5.26965 12.7763 5.26228 12.7764 5.25571 12.7791C5.24913 12.7819 5.24385 12.787 5.24093 12.7935L5.20702 12.8746C5.20445 12.8815 5.20454 12.8891 5.20726 12.8959C5.20999 12.9027 5.21516 12.9082 5.22177 12.9114L5.30285 12.9439H5.31317C5.31862 12.9437 5.32389 12.9419 5.32834 12.9388C5.33279 12.9356 5.33623 12.9313 5.33823 12.9262L5.37214 12.8451C5.37383 12.8388 5.37328 12.8322 5.37059 12.8262C5.3679 12.8203 5.36324 12.8155 5.3574 12.8127ZM5.29843 12.882L5.26894 12.8702L5.28074 12.8407L5.31022 12.8525L5.29843 12.882Z" fill="#CF4520"/>
<path d="M5.78185 12.635L5.76947 12.665L5.79945 12.6774L5.81183 12.6474L5.78185 12.635Z" fill="#CF4520"/>
<path d="M5.8576 12.6047L5.77799 12.5708C5.77111 12.5682 5.76353 12.5683 5.75671 12.571C5.74989 12.5737 5.74434 12.5789 5.74113 12.5855L5.7087 12.6666C5.70724 12.67 5.70646 12.6736 5.70642 12.6773C5.70637 12.681 5.70705 12.6847 5.70842 12.6881C5.70979 12.6915 5.71182 12.6946 5.7144 12.6973C5.71698 12.6999 5.72005 12.702 5.72344 12.7035L5.80453 12.7359H5.81485C5.82017 12.736 5.8254 12.7345 5.82987 12.7316C5.83434 12.7288 5.83784 12.7246 5.83991 12.7197L5.87382 12.6386C5.87498 12.6353 5.87549 12.6318 5.87531 12.6283C5.87512 12.6248 5.87425 12.6214 5.87275 12.6183C5.87124 12.6151 5.86913 12.6123 5.86653 12.61C5.86393 12.6076 5.86089 12.6058 5.8576 12.6047ZM5.8001 12.674L5.77062 12.6622L5.78241 12.6327L5.8119 12.6445L5.8001 12.674Z" fill="#CF4520"/>
<path d="M5.17192 13.1473L5.09231 13.1149C5.08661 13.1127 5.08032 13.1127 5.07462 13.1149L5.17634 13.2107L5.18813 13.1842C5.18955 13.1807 5.19026 13.1769 5.19021 13.1732C5.19016 13.1694 5.18935 13.1657 5.18784 13.1623C5.18632 13.1588 5.18413 13.1557 5.1814 13.1532C5.17866 13.1506 5.17544 13.1486 5.17192 13.1473Z" fill="#CF4520"/>
<path d="M5.59685 12.9693L5.5844 12.9992L5.61436 13.0117L5.6268 12.9817L5.59685 12.9693Z" fill="#CF4520"/>
<path d="M5.6726 12.9455L5.59152 12.9131C5.58824 12.9117 5.5847 12.9109 5.58112 12.9109C5.57754 12.9109 5.57399 12.9116 5.57068 12.9129C5.56738 12.9143 5.56438 12.9163 5.56188 12.9189C5.55938 12.9215 5.55743 12.9245 5.55614 12.9279L5.52223 13.0089C5.52083 13.0123 5.52014 13.0159 5.52021 13.0196C5.52027 13.0232 5.52109 13.0268 5.52262 13.0302C5.52414 13.0335 5.52633 13.0365 5.52905 13.0389C5.53178 13.0413 5.53498 13.0432 5.53845 13.0443L5.61806 13.0782H5.64017C5.64682 13.0747 5.65203 13.069 5.65491 13.062L5.68735 12.9824C5.68881 12.979 5.68958 12.9754 5.68963 12.9717C5.68968 12.968 5.689 12.9643 5.68763 12.9609C5.68626 12.9575 5.68423 12.9544 5.68165 12.9517C5.67907 12.9491 5.676 12.947 5.6726 12.9455ZM5.61363 13.0163L5.58415 13.003L5.59742 12.975L5.62543 12.9868L5.61363 13.0163Z" fill="#CF4520"/>
<path d="M5.45326 13.3141L5.48275 13.3274L5.49454 13.2979L5.46506 13.2846L5.45326 13.3141Z" fill="#CF4520"/>
<path d="M5.54154 13.2562L5.46046 13.2223C5.45721 13.2208 5.45369 13.2201 5.45014 13.2201C5.44658 13.2201 5.44306 13.2208 5.43982 13.2223C5.43635 13.2238 5.43324 13.226 5.43069 13.2288C5.42815 13.2316 5.42623 13.2349 5.42507 13.2385L5.39117 13.3181C5.38859 13.325 5.38868 13.3326 5.39141 13.3394C5.39413 13.3462 5.3993 13.3518 5.40591 13.355L5.48699 13.3874H5.49731H5.50763C5.51123 13.3863 5.51454 13.3844 5.51733 13.3818C5.52013 13.3793 5.52235 13.3762 5.52385 13.3727L5.55628 13.2916C5.55878 13.2849 5.55865 13.2776 5.55591 13.271C5.55317 13.2644 5.54803 13.2591 5.54154 13.2562ZM5.48257 13.3255L5.45308 13.3137L5.46488 13.2842L5.49436 13.296L5.48257 13.3255Z" fill="#CF4520"/>
<path d="M5.96593 13.0769L5.95349 13.1068L5.98344 13.1193L5.99589 13.0893L5.96593 13.0769Z" fill="#CF4520"/>
<path d="M5.92447 13.0293L5.89204 13.1103C5.89057 13.1136 5.88982 13.1171 5.88982 13.1207C5.88982 13.1242 5.89057 13.1277 5.89204 13.131C5.8932 13.1346 5.89512 13.1379 5.89766 13.1407C5.9002 13.1435 5.90331 13.1457 5.90678 13.1472L5.98787 13.1796H5.99818H6.01145V13.0322L5.9628 13.0116C5.95536 13.0091 5.94727 13.0096 5.94015 13.0129C5.93304 13.0161 5.92744 13.022 5.92447 13.0293ZM5.95396 13.1059L5.96575 13.0764L5.99524 13.0882L5.98344 13.1177L5.95396 13.1059Z" fill="#CF4520"/>
<path d="M5.76815 13.4421L5.79764 13.4539L5.80943 13.4244L5.77994 13.4126L5.76815 13.4421Z" fill="#CF4520"/>
<path d="M5.8567 13.3877L5.77709 13.3553C5.7737 13.3538 5.77006 13.353 5.76637 13.353C5.76269 13.3529 5.75903 13.3536 5.7556 13.355C5.75218 13.3563 5.74906 13.3584 5.74642 13.361C5.74378 13.3635 5.74168 13.3666 5.74023 13.37L5.70633 13.4511C5.70418 13.4578 5.70418 13.465 5.70633 13.4717C5.70726 13.4753 5.70911 13.4785 5.7117 13.4811C5.71429 13.4837 5.71753 13.4855 5.72107 13.4865L5.80068 13.5204H5.81247C5.81797 13.5204 5.82333 13.5187 5.82782 13.5155C5.83231 13.5123 5.8357 13.5079 5.83754 13.5027L5.86997 13.4231C5.87147 13.4196 5.87224 13.4158 5.87224 13.412C5.87224 13.4082 5.87147 13.4044 5.86997 13.401C5.86878 13.398 5.86699 13.3952 5.86471 13.3929C5.86243 13.3907 5.8597 13.3889 5.8567 13.3877ZM5.79773 13.4585L5.76825 13.4467L5.78151 13.4172L5.811 13.429L5.79773 13.4585Z" fill="#CF4520"/>
<path d="M5.96582 13.8591L5.95344 13.8891L5.98342 13.9014L5.9958 13.8715L5.96582 13.8591Z" fill="#CF4520"/>
<path d="M5.99888 13.9613C6.00541 13.9608 6.0116 13.9582 6.01657 13.9539V13.8168L5.9635 13.7947C5.95662 13.7921 5.94903 13.7922 5.94222 13.7949C5.9354 13.7977 5.92985 13.8028 5.92664 13.8094L5.89716 13.8817L5.97234 13.9524L5.98856 13.9598L5.99888 13.9613ZM5.95318 13.8861L5.96644 13.8566L5.99593 13.8684L5.98266 13.8979L5.95318 13.8861Z" fill="#CF4520"/>
<path d="M17.0475 11.3237C17.0483 10.5337 16.849 9.75632 16.4683 9.0641C16.0876 8.37188 15.5378 7.78732 14.8702 7.36491C14.2026 6.94251 13.4389 6.69601 12.6503 6.64839C11.8617 6.60077 11.0739 6.75359 10.3603 7.09259C10.3789 7.05669 10.3909 7.01774 10.3957 6.9776C10.4061 6.89841 10.4115 6.81865 10.4119 6.73878C10.4123 6.37342 10.3101 6.0153 10.117 5.70516C9.92385 5.39501 9.64756 5.1453 9.31953 4.98442C9.43555 4.86743 9.52646 4.72798 9.58669 4.57462C9.64693 4.42126 9.67521 4.25722 9.66982 4.09254C9.66443 3.92787 9.62547 3.76603 9.55533 3.61693C9.4852 3.46784 9.38536 3.33464 9.26193 3.22549C9.13851 3.11634 8.9941 3.03354 8.83755 2.98215C8.68101 2.93077 8.51561 2.9119 8.35152 2.92668C8.18742 2.94146 8.02806 2.9896 7.88322 3.06813C7.73837 3.14666 7.61109 3.25394 7.50916 3.38339C7.43008 3.32863 7.34733 3.27937 7.26148 3.23597C7.42981 3.06604 7.54408 2.85009 7.58991 2.61533C7.63573 2.38058 7.61106 2.13751 7.519 1.91675C7.42695 1.69599 7.27162 1.50741 7.07258 1.37476C6.87355 1.24211 6.63971 1.17133 6.40052 1.17133C6.16134 1.17133 5.9275 1.24211 5.72847 1.37476C5.52943 1.50741 5.3741 1.69599 5.28205 1.91675C5.18999 2.13751 5.16532 2.38058 5.21114 2.61533C5.25697 2.85009 5.37124 3.06604 5.53956 3.23597C5.45608 3.27658 5.37575 3.3234 5.29926 3.37602C5.19605 3.24928 5.06824 3.14476 4.92354 3.06876C4.77884 2.99276 4.62025 2.94685 4.45732 2.93381C4.2944 2.92077 4.13052 2.94086 3.97557 2.99287C3.82062 3.04489 3.67781 3.12774 3.55575 3.23645C3.43369 3.34516 3.33492 3.47745 3.26538 3.62537C3.19585 3.77329 3.15699 3.93376 3.15115 4.0971C3.14532 4.26044 3.17263 4.42327 3.23143 4.57577C3.29024 4.72828 3.37932 4.86729 3.49331 4.98442C3.16634 5.14531 2.89089 5.39446 2.69811 5.7037C2.50532 6.01294 2.40288 6.36994 2.40237 6.73435C2.40227 6.81419 2.4072 6.89396 2.41711 6.97318C2.4265 7.05424 2.46531 7.12904 2.52617 7.18338C2.58704 7.23773 2.66574 7.26785 2.74734 7.26803H5.9612C6.04264 7.26781 6.12115 7.23764 6.18178 7.18327C6.2424 7.12889 6.28091 7.05411 6.28996 6.97318C6.29987 6.89396 6.30479 6.81419 6.3047 6.73435C6.30453 6.36987 6.20223 6.01273 6.0094 5.70342C5.81658 5.39412 5.54094 5.14504 5.21376 4.98442C5.43917 4.75809 5.56585 4.45174 5.5661 4.13231C5.5683 4.09253 5.5683 4.05267 5.5661 4.0129C5.8022 3.80904 6.10437 3.69799 6.41629 3.70043C6.72821 3.70287 7.0286 3.81864 7.26148 4.02616C7.26148 4.06154 7.26148 4.09693 7.26148 4.13231C7.26129 4.29054 7.29231 4.44725 7.35277 4.59347C7.41323 4.73968 7.50195 4.87254 7.61383 4.98442C7.28648 5.14497 7.01063 5.39399 6.81756 5.70328C6.62448 6.01257 6.52189 6.36975 6.52141 6.73435C6.52184 6.81422 6.52725 6.89399 6.53763 6.97318C6.54668 7.05411 6.58518 7.12889 6.64581 7.18327C6.70644 7.23764 6.78495 7.26781 6.86639 7.26803H10.0404C9.46841 7.59777 8.97267 8.04486 8.58582 8.57992C8.19896 9.11497 7.92976 9.72585 7.79591 10.3724C7.66205 11.0189 7.66659 11.6865 7.80921 12.3312C7.95183 12.9758 8.22931 13.583 8.6234 14.1128C9.01749 14.6425 9.51926 15.0828 10.0957 15.4048C10.6722 15.7267 11.3102 15.9229 11.968 15.9806C12.6257 16.0383 13.2882 15.9561 13.9119 15.7394C14.5355 15.5227 15.1063 15.1764 15.5866 14.7233C15.602 14.7124 15.6168 14.7006 15.6308 14.6879C15.647 14.6735 15.6613 14.6572 15.6735 14.6393C16.1102 14.2048 16.4565 13.688 16.6923 13.119C16.9281 12.5499 17.0489 11.9397 17.0475 11.3237ZM4.35427 3.59273C4.46274 3.59273 4.56877 3.6249 4.65896 3.68516C4.74914 3.74542 4.81944 3.83107 4.86094 3.93128C4.90245 4.03149 4.91331 4.14176 4.89215 4.24815C4.87099 4.35453 4.81876 4.45225 4.74206 4.52894C4.66536 4.60564 4.56764 4.65788 4.46126 4.67904C4.35488 4.7002 4.24461 4.68934 4.1444 4.64783C4.04419 4.60632 3.95854 4.53603 3.89828 4.44584C3.83802 4.35565 3.80585 4.24962 3.80585 4.14115C3.80546 4.06882 3.81935 3.99711 3.84672 3.93015C3.87409 3.86319 3.9144 3.80229 3.96534 3.75093C4.01629 3.69958 4.07687 3.65878 4.14361 3.63087C4.21034 3.60297 4.28193 3.5885 4.35427 3.58831V3.59273ZM5.63539 6.60609H3.07757C3.11153 6.29001 3.26113 5.99764 3.49762 5.78519C3.73411 5.57275 4.04079 5.45523 4.35869 5.45523C4.67659 5.45523 4.98327 5.57275 5.21976 5.78519C5.45625 5.99764 5.60586 6.29001 5.63981 6.60609H5.63539ZM6.40052 1.8428C6.50899 1.8428 6.61502 1.87497 6.70521 1.93523C6.7954 1.99549 6.86569 2.08114 6.9072 2.18135C6.94871 2.28156 6.95957 2.39183 6.93841 2.49822C6.91725 2.6046 6.86501 2.70232 6.78832 2.77901C6.71162 2.85571 6.6139 2.90795 6.50752 2.92911C6.40113 2.95027 6.29086 2.93941 6.19065 2.8979C6.09044 2.85639 6.00479 2.7861 5.94453 2.69591C5.88427 2.60572 5.8521 2.49969 5.8521 2.39122C5.8521 2.24577 5.90988 2.10628 6.01273 2.00343C6.11558 1.90058 6.25507 1.8428 6.40052 1.8428ZM8.46447 3.58831C8.57294 3.58831 8.67897 3.62047 8.76915 3.68074C8.85934 3.741 8.92964 3.82665 8.97114 3.92686C9.01265 4.02707 9.02351 4.13734 9.00235 4.24372C8.98119 4.35011 8.92896 4.44782 8.85226 4.52452C8.77556 4.60122 8.67784 4.65345 8.57146 4.67461C8.46508 4.69578 8.35481 4.68491 8.2546 4.6434C8.15439 4.6019 8.06874 4.5316 8.00847 4.44142C7.94821 4.35123 7.91605 4.2452 7.91605 4.13673C7.91643 3.99216 7.97373 3.85356 8.07554 3.75092C8.17735 3.64828 8.31548 3.58986 8.46005 3.58831H8.46447ZM7.17893 6.60609C7.21288 6.29001 7.36249 5.99764 7.59898 5.78519C7.83547 5.57275 8.14215 5.45523 8.46005 5.45523C8.77795 5.45523 9.08463 5.57275 9.32112 5.78519C9.55761 5.99764 9.70721 6.29001 9.74117 6.60609H7.17893ZM15.389 13.9611L14.991 13.5351C14.9613 13.5029 14.9256 13.4768 14.8859 13.4585C14.8462 13.4401 14.8032 13.4299 14.7595 13.4282C14.7158 13.4265 14.6721 13.4335 14.6311 13.4488C14.5901 13.464 14.5525 13.4873 14.5206 13.5171C14.4886 13.547 14.4628 13.5829 14.4447 13.6227C14.4267 13.6626 14.4167 13.7056 14.4153 13.7493C14.414 13.7931 14.4213 13.8366 14.4368 13.8775C14.4524 13.9184 14.4759 13.9559 14.5059 13.9876L14.9143 14.4226C14.3063 14.9249 13.5628 15.2354 12.7781 15.3145V14.6275C12.7781 14.5395 12.7432 14.4551 12.681 14.3929C12.6188 14.3307 12.5344 14.2958 12.4464 14.2958C12.3584 14.2958 12.2741 14.3307 12.2119 14.3929C12.1497 14.4551 12.1147 14.5395 12.1147 14.6275V15.3277C11.2574 15.274 10.4402 14.9457 9.78392 14.3916L10.2085 13.9891C10.2724 13.9285 10.3097 13.845 10.312 13.7569C10.3144 13.6689 10.2816 13.5835 10.221 13.5196C10.1604 13.4556 10.0769 13.4184 9.98886 13.4161C9.9008 13.4137 9.81541 13.4464 9.75149 13.507L9.30921 13.9228C8.81692 13.346 8.49798 12.6417 8.38928 11.8913H9.10577C9.19374 11.8913 9.27811 11.8563 9.34032 11.7941C9.40252 11.7319 9.43747 11.6475 9.43747 11.5596C9.43747 11.4716 9.40252 11.3872 9.34032 11.325C9.27811 11.2628 9.19374 11.2279 9.10577 11.2279H8.35095C8.36905 10.3591 8.67032 9.51998 9.20896 8.83811L9.67188 9.3305C9.70305 9.36333 9.74054 9.38953 9.78208 9.40751C9.82363 9.4255 9.86838 9.43491 9.91365 9.43517C9.97853 9.43555 10.0421 9.4168 10.0964 9.38128C10.1507 9.34575 10.1933 9.29502 10.2189 9.23542C10.2446 9.17582 10.2521 9.10999 10.2405 9.04614C10.229 8.9823 10.1989 8.92327 10.154 8.87643L9.66008 8.35013C10.3354 7.73711 11.1999 7.37304 12.1103 7.31815V7.88279C12.1103 7.97077 12.1452 8.05513 12.2074 8.11734C12.2696 8.17955 12.354 8.2145 12.442 8.2145C12.53 8.2145 12.6143 8.17955 12.6765 8.11734C12.7387 8.05513 12.7737 7.97077 12.7737 7.88279V7.32995C13.5977 7.41438 14.3751 7.75286 14.9983 8.29853L14.4352 8.82926C14.4026 8.85886 14.3763 8.89466 14.3577 8.93454C14.3391 8.97443 14.3286 9.01762 14.3269 9.06159C14.3251 9.10557 14.3322 9.14945 14.3476 9.19067C14.363 9.2319 14.3864 9.26966 14.4165 9.30174C14.4466 9.33382 14.4829 9.35958 14.523 9.37753C14.5632 9.39548 14.6066 9.40526 14.6506 9.40629C14.6946 9.40732 14.7383 9.39958 14.7793 9.38353C14.8203 9.36749 14.8576 9.34344 14.8892 9.31281L15.4627 8.77324C16.0358 9.46706 16.3579 10.3341 16.3768 11.2338H15.6087C15.5207 11.2338 15.4363 11.2687 15.3741 11.3309C15.3119 11.3931 15.277 11.4775 15.277 11.5655C15.277 11.6534 15.3119 11.7378 15.3741 11.8C15.4363 11.8622 15.5207 11.8972 15.6087 11.8972H16.3458C16.2326 12.663 15.9003 13.3798 15.389 13.9611Z" fill="#CF4520"/>
<path d="M14.4664 11.2278H12.74V8.89411C12.74 8.80614 12.7051 8.72177 12.6429 8.65957C12.5807 8.59736 12.4963 8.56241 12.4083 8.56241C12.3203 8.56241 12.236 8.59736 12.1738 8.65957C12.1115 8.72177 12.0766 8.80614 12.0766 8.89411V11.5596C12.0766 11.6475 12.1115 11.7319 12.1738 11.7941C12.236 11.8563 12.3203 11.8913 12.4083 11.8913H14.4722C14.5602 11.8913 14.6446 11.8563 14.7068 11.7941C14.769 11.7319 14.804 11.6475 14.804 11.5596C14.804 11.4716 14.769 11.3872 14.7068 11.325C14.6446 11.2628 14.5602 11.2278 14.4722 11.2278H14.4664Z" fill="#CF4520"/>
<path d="M8.05233 14.1557H6.65179V9.11232C6.65179 9.02435 6.61685 8.93998 6.55464 8.87777C6.49243 8.81556 6.40806 8.78062 6.32009 8.78062H0.663403V0.672259H12.1507V6.0739C12.1507 6.16188 12.1857 6.24624 12.2479 6.30845C12.3101 6.37066 12.3945 6.40561 12.4824 6.40561C12.5704 6.40561 12.6548 6.37066 12.717 6.30845C12.7792 6.24624 12.8141 6.16188 12.8141 6.0739V0.331709C12.8143 0.288094 12.8059 0.244871 12.7893 0.204539C12.7727 0.164206 12.7483 0.127564 12.7174 0.0967238C12.6866 0.0658831 12.6499 0.0414567 12.6096 0.024856C12.5693 0.00825538 12.5261 -0.000191842 12.4824 3.30557e-06H0.331698C0.243724 3.30557e-06 0.159353 0.0349488 0.0971459 0.0971557C0.034939 0.159363 -7.60739e-06 0.243735 -7.60739e-06 0.331709V9.11232C-0.00225577 9.13536 -0.00225577 9.15857 -7.60739e-06 9.18161C0.000866244 9.185 0.000866244 9.18855 -7.60739e-06 9.19193C0.00455247 9.21004 0.0104654 9.22778 0.0176826 9.245L0.0265289 9.26122C0.0335092 9.27547 0.0413872 9.28926 0.0501162 9.3025L0.0648585 9.32019C0.073704 9.33199 0.0840241 9.34231 0.0928695 9.35262L5.98986 14.7307C6.05089 14.7869 6.13095 14.818 6.21394 14.8177H8.03316C8.12114 14.8177 8.20551 14.7827 8.26771 14.7205C8.32992 14.6583 8.36487 14.5739 8.36487 14.486C8.36487 14.398 8.32992 14.3136 8.26771 14.2514C8.20551 14.1892 8.12114 14.1542 8.03316 14.1542L8.05233 14.1557ZM5.98838 13.8166L1.18824 9.4396H5.98838V13.8166Z" fill="#CF4520"/>
</g>
<defs>
<clipPath id="clip0_3050_29131">
<rect width="17.0467" height="16" fill="white"/>
</clipPath>
</defs>
</svg>
