<svg width="280" height="320" viewBox="0 0 14 16" fill="none" xmlns="http://www.w3.org/2000/svg">
<g clip-path="url(#clip0_3050_28992)">
<path d="M8.12192 3.45357L8.1248 3.44781L8.10031 3.42764L8.09455 3.44205L8.12192 3.45357Z" fill="#CF4520"/>
<path d="M8.03474 3.46679C8.03751 3.47327 8.04267 3.47843 8.04914 3.4812L8.12547 3.51288H8.13556C8.14076 3.513 8.14587 3.51156 8.15024 3.50873C8.1546 3.50591 8.15802 3.50183 8.16004 3.49704V3.48408L8.11828 3.44807L8.09091 3.43655V3.42215L8.04914 3.38614L8.0261 3.44087C8.0248 3.44556 8.02493 3.45053 8.02646 3.45515C8.028 3.45977 8.03088 3.46382 8.03474 3.46679Z" fill="#CF4520"/>
<path d="M7.95562 3.74773L7.92825 3.73621L7.91673 3.76357L7.9441 3.77509L7.95562 3.74773Z" fill="#CF4520"/>
<path d="M7.949 3.83525H7.96917C7.97251 3.83412 7.97555 3.83223 7.97804 3.82973C7.98054 3.82723 7.98243 3.8242 7.98356 3.82085L8.01669 3.74308C8.0188 3.73654 8.01851 3.72947 8.01587 3.72313C8.01323 3.7168 8.00842 3.71161 8.00229 3.70851L7.92452 3.67682C7.92135 3.67539 7.91791 3.67465 7.91443 3.67465C7.91096 3.67465 7.90752 3.67539 7.90435 3.67682C7.90106 3.67805 7.89806 3.67997 7.89558 3.68246C7.89309 3.68494 7.89118 3.68793 7.88995 3.69123L7.85826 3.76756V3.78917C7.85949 3.7923 7.86143 3.7951 7.86393 3.79735C7.86643 3.7996 7.86942 3.80124 7.87266 3.80213L7.949 3.83525ZM7.92883 3.73588L7.9562 3.7474L7.94467 3.7762L7.91732 3.76324L7.92883 3.73588Z" fill="#CF4520"/>
<path d="M8.28467 3.84147L8.27312 3.86942L8.30107 3.88097L8.31262 3.85302L8.28467 3.84147Z" fill="#CF4520"/>
<path d="M8.2727 3.78086C8.26949 3.77946 8.26603 3.77872 8.26253 3.77869C8.25904 3.77866 8.25557 3.77934 8.25234 3.78068C8.24911 3.78203 8.24618 3.78401 8.24374 3.78652C8.2413 3.78902 8.23939 3.792 8.23813 3.79526L8.20644 3.87304C8.20504 3.87624 8.2043 3.8797 8.20427 3.8832C8.20424 3.88669 8.20492 3.89016 8.20627 3.89339C8.20761 3.89662 8.2096 3.89955 8.2121 3.90199C8.21461 3.90443 8.21759 3.90634 8.22085 3.9076L8.29718 3.93929H8.31734C8.32069 3.93815 8.32373 3.93626 8.32622 3.93376C8.32872 3.93127 8.33061 3.92823 8.33174 3.92489L8.36488 3.84711C8.36699 3.84058 8.3667 3.83351 8.36406 3.82717C8.36142 3.82083 8.35659 3.81564 8.35047 3.81254L8.2727 3.78086ZM8.29286 3.88024L8.2655 3.86872L8.27702 3.83991L8.30582 3.85143L8.29286 3.88024Z" fill="#CF4520"/>
<path d="M8.09455 4.1896L8.12192 4.20112L8.13344 4.17376L8.10607 4.1608L8.09455 4.1896Z" fill="#CF4520"/>
<path d="M8.10189 4.10343C8.09869 4.10203 8.09523 4.10129 8.09173 4.10126C8.08823 4.10123 8.08477 4.1019 8.08154 4.10325C8.07831 4.1046 8.07538 4.10658 8.07294 4.10909C8.0705 4.11159 8.06859 4.11457 8.06733 4.11783L8.03421 4.19417C8.03176 4.20068 8.03189 4.20788 8.03457 4.2143C8.03724 4.22072 8.04226 4.22588 8.04861 4.22873L8.12638 4.26042H8.13646C8.14183 4.26043 8.14707 4.25877 8.15146 4.25567C8.15584 4.25258 8.15915 4.2482 8.16094 4.24314L8.19263 4.1668C8.19403 4.1636 8.19477 4.16014 8.1948 4.15664C8.19483 4.15314 8.19415 4.14967 8.19281 4.14644C8.19146 4.14321 8.18948 4.14029 8.18697 4.13785C8.18447 4.13541 8.1815 4.1335 8.17823 4.13223L8.10189 4.10343ZM8.12206 4.20137L8.0947 4.18985L8.10622 4.16248L8.13359 4.174L8.12206 4.20137Z" fill="#CF4520"/>
<path d="M8.61432 3.97377L8.58551 3.96225L8.57399 3.98961L8.6028 4.00258L8.61432 3.97377Z" fill="#CF4520"/>
<path d="M8.60721 4.06164H8.61729C8.62249 4.06176 8.6276 4.06031 8.63197 4.05749C8.63634 4.05466 8.63975 4.05059 8.64177 4.0458L8.67346 3.96802C8.67486 3.96482 8.67559 3.96136 8.67562 3.95786C8.67565 3.95436 8.67498 3.9509 8.67364 3.94767C8.67229 3.94444 8.67031 3.94151 8.6678 3.93907C8.66529 3.93663 8.66232 3.93472 8.65905 3.93346L8.58272 3.90177C8.57941 3.90035 8.57586 3.89959 8.57225 3.89954C8.56865 3.89949 8.56507 3.90016 8.56172 3.90149C8.55838 3.90283 8.55533 3.90482 8.55276 3.90734C8.55018 3.90986 8.54813 3.91286 8.54672 3.91617L8.51503 3.99395C8.51258 4.00046 8.51271 4.00766 8.51539 4.01408C8.51806 4.0205 8.52309 4.02566 8.52943 4.02851L8.60721 4.06164ZM8.5856 3.96226L8.61441 3.97378L8.60288 4.00259L8.57408 3.99107L8.5856 3.96226Z" fill="#CF4520"/>
<path d="M7.98195 4.46875L7.97041 4.4967L7.99836 4.50825L8.00991 4.48029L7.98195 4.46875Z" fill="#CF4520"/>
<path d="M8.05303 4.43897L7.97526 4.40585C7.96872 4.40373 7.96165 4.40402 7.95531 4.40666C7.94897 4.40931 7.94379 4.41412 7.94069 4.42025L7.909 4.49802C7.9076 4.50123 7.90687 4.50469 7.90684 4.50818C7.90681 4.51168 7.90748 4.51515 7.90883 4.51838C7.91017 4.52161 7.91216 4.52454 7.91466 4.52698C7.91717 4.52942 7.92015 4.53133 7.92341 4.53259L8.00118 4.56428H8.01126C8.01663 4.56428 8.02188 4.56263 8.02626 4.55953C8.03065 4.55644 8.03396 4.55205 8.03575 4.54699L8.06744 4.47066C8.0694 4.46453 8.069 4.4579 8.06634 4.45204C8.06368 4.44618 8.05893 4.44153 8.05303 4.43897ZM7.99687 4.50522L7.96806 4.4937L7.97958 4.46634L8.00838 4.47786L7.99687 4.50522Z" fill="#CF4520"/>
<path d="M8.44885 4.29366L8.47622 4.30518L8.48774 4.27782L8.46038 4.2663L8.44885 4.29366Z" fill="#CF4520"/>
<path d="M8.45609 4.20695C8.45288 4.20554 8.44942 4.2048 8.44592 4.20477C8.44242 4.20474 8.43896 4.20542 8.43573 4.20677C8.4325 4.20811 8.42957 4.2101 8.42713 4.2126C8.42469 4.21511 8.42278 4.21808 8.42152 4.22135L8.38983 4.29912C8.38843 4.30233 8.38769 4.30578 8.38766 4.30928C8.38763 4.31278 8.38831 4.31625 8.38965 4.31948C8.391 4.32271 8.39298 4.32563 8.39549 4.32807C8.398 4.33052 8.40097 4.33243 8.40423 4.33369L8.48057 4.36537H8.49065C8.49585 4.36549 8.50097 4.36405 8.50533 4.36122C8.5097 4.3584 8.51311 4.35432 8.51513 4.34953L8.54682 4.27176C8.54827 4.26864 8.54907 4.26527 8.5492 4.26184C8.54933 4.2584 8.54878 4.25498 8.54757 4.25176C8.54637 4.24855 8.54453 4.2456 8.54217 4.2431C8.53982 4.2406 8.53699 4.23859 8.53386 4.23719L8.45609 4.20695ZM8.47624 4.30632L8.44888 4.2948L8.4604 4.266L8.48777 4.27752L8.47624 4.30632Z" fill="#CF4520"/>
<path d="M8.26971 4.61618L8.29852 4.6277L8.31004 4.59889L8.28268 4.58737L8.26971 4.61618Z" fill="#CF4520"/>
<path d="M8.27291 4.52826C8.2664 4.52582 8.25921 4.52595 8.25278 4.52862C8.24636 4.5313 8.2412 4.53632 8.23835 4.54267L8.20523 4.62044C8.20278 4.62695 8.20291 4.63415 8.20559 4.64057C8.20826 4.64699 8.21328 4.65215 8.21963 4.65501L8.2974 4.68669H8.30748C8.3128 4.68651 8.31795 4.68477 8.3223 4.6817C8.32665 4.67863 8.33 4.67436 8.33196 4.66941L8.36365 4.59307C8.36529 4.5899 8.36621 4.58641 8.36635 4.58285C8.3665 4.57929 8.36586 4.57573 8.36449 4.57244C8.36312 4.56915 8.36105 4.5662 8.35841 4.56379C8.35578 4.56138 8.35265 4.55958 8.34925 4.55851L8.27291 4.52826ZM8.29308 4.62764L8.26427 4.61612L8.27724 4.58731L8.3046 4.60028L8.29308 4.62764Z" fill="#CF4520"/>
<path d="M8.75173 4.4157L8.78054 4.42722L8.79206 4.39986L8.76325 4.38834L8.75173 4.4157Z" fill="#CF4520"/>
<path d="M8.75847 4.32947C8.75527 4.32807 8.75181 4.32733 8.74831 4.3273C8.74481 4.32727 8.74134 4.32795 8.73811 4.3293C8.73488 4.33064 8.73196 4.33263 8.72951 4.33513C8.72707 4.33764 8.72517 4.34061 8.72391 4.34387L8.69222 4.42021C8.6897 4.42693 8.68979 4.43434 8.69245 4.441C8.69512 4.44766 8.70017 4.45308 8.70662 4.45622L8.7844 4.4879H8.79448C8.79968 4.48802 8.80479 4.48658 8.80916 4.48375C8.81353 4.48093 8.81694 4.47685 8.81896 4.47206L8.85065 4.39429C8.85309 4.38777 8.85297 4.38057 8.85029 4.37415C8.84762 4.36773 8.84259 4.36257 8.83624 4.35972L8.75847 4.32947ZM8.78008 4.42885L8.75127 4.41589L8.7628 4.38852L8.79159 4.40005L8.78008 4.42885Z" fill="#CF4520"/>
<path d="M8.14458 4.91974L8.17194 4.93126L8.18491 4.90245L8.1561 4.89093L8.14458 4.91974Z" fill="#CF4520"/>
<path d="M8.22988 4.86399L8.1521 4.83231C8.14559 4.82987 8.13839 4.83 8.13197 4.83267C8.12555 4.83535 8.12039 4.84037 8.11754 4.84671L8.08586 4.92449C8.08313 4.92853 8.08167 4.93329 8.08167 4.93817C8.08167 4.94304 8.08313 4.94781 8.08586 4.95185H8.21547L8.23708 4.90144C8.24065 4.89539 8.24189 4.88825 8.24056 4.88136C8.23924 4.87446 8.23544 4.86829 8.22988 4.86399ZM8.17371 4.93169L8.1449 4.92017L8.15643 4.89136L8.18523 4.90432L8.17371 4.93169Z" fill="#CF4520"/>
<path d="M8.62402 4.71975L8.65283 4.73127L8.66435 4.7039L8.63699 4.69238L8.62402 4.71975Z" fill="#CF4520"/>
<path d="M8.63285 4.63352C8.62964 4.63212 8.62618 4.63138 8.62268 4.63135C8.61919 4.63132 8.61572 4.632 8.61249 4.63334C8.60926 4.63469 8.60633 4.63667 8.60389 4.63918C8.60145 4.64168 8.59954 4.64466 8.59828 4.64792L8.56516 4.72426C8.56272 4.73077 8.56284 4.73797 8.56552 4.74439C8.56819 4.75081 8.57321 4.75597 8.57956 4.75882L8.65733 4.79195H8.66741C8.67261 4.79207 8.67773 4.79062 8.68209 4.7878C8.68646 4.78497 8.68987 4.7809 8.69189 4.77611L8.72358 4.69833C8.72499 4.69513 8.72573 4.69167 8.72576 4.68817C8.72579 4.68467 8.72511 4.6812 8.72376 4.67797C8.72241 4.67474 8.72043 4.67182 8.71792 4.66938C8.71542 4.66694 8.71245 4.66503 8.70919 4.66376L8.63285 4.63352ZM8.65301 4.73146L8.62421 4.71993L8.63717 4.69257L8.66453 4.70409L8.65301 4.73146Z" fill="#CF4520"/>
<path d="M9.10487 4.52115L9.13368 4.53267L9.1452 4.50386L9.1164 4.49234L9.10487 4.52115Z" fill="#CF4520"/>
<path d="M9.11216 4.43326C9.10565 4.43082 9.09845 4.43095 9.09203 4.43362C9.08561 4.4363 9.08045 4.44132 9.07759 4.44766L9.0459 4.52544C9.04346 4.53195 9.04359 4.53915 9.04626 4.54557C9.04894 4.55199 9.05396 4.55715 9.0603 4.56L9.13808 4.59169H9.14817C9.15336 4.59181 9.15848 4.59037 9.16285 4.58754C9.16721 4.58471 9.17063 4.58064 9.17265 4.57585L9.20433 4.49807C9.20573 4.49487 9.20647 4.49141 9.2065 4.48791C9.20653 4.48441 9.20586 4.48094 9.20451 4.47771C9.20317 4.47448 9.20118 4.47156 9.19868 4.46912C9.19617 4.46668 9.19319 4.46477 9.18993 4.46351L9.11216 4.43326ZM9.13376 4.53264L9.10496 4.52112L9.11647 4.49231L9.14528 4.50383L9.13376 4.53264Z" fill="#CF4520"/>
<path d="M8.94168 4.81657L8.93013 4.84451L8.95808 4.85607L8.96963 4.82812L8.94168 4.81657Z" fill="#CF4520"/>
<path d="M8.93554 4.75556C8.93233 4.75416 8.92888 4.75342 8.92538 4.75339C8.92189 4.75336 8.91842 4.75404 8.91519 4.75538C8.91196 4.75673 8.90903 4.75871 8.90659 4.76122C8.90415 4.76372 8.90223 4.7667 8.90097 4.76996L8.86929 4.8463C8.86789 4.8495 8.86715 4.85296 8.86712 4.85646C8.86709 4.85996 8.86777 4.86342 8.86912 4.86665C8.87046 4.86988 8.87245 4.87281 8.87495 4.87525C8.87746 4.87769 8.88043 4.8796 8.88369 4.88086L8.96147 4.91399H8.97154H8.98163C8.98792 4.91169 8.99309 4.90705 8.99604 4.90103L9.02772 4.82325C9.02912 4.82005 9.02986 4.81659 9.02989 4.81309C9.02992 4.80959 9.02924 4.80613 9.02789 4.8029C9.02655 4.79967 9.02456 4.79674 9.02206 4.7943C9.01955 4.79186 9.01658 4.78995 9.01332 4.78869L8.93554 4.75556ZM8.95715 4.8535L8.92834 4.84198L8.93986 4.81461L8.96867 4.82613L8.95715 4.8535Z" fill="#CF4520"/>
<path d="M9.42477 4.61721L9.41322 4.64517L9.44118 4.65672L9.45272 4.62876L9.42477 4.61721Z" fill="#CF4520"/>
<path d="M9.38181 4.57019L9.35012 4.64797C9.34872 4.65117 9.34798 4.65463 9.34795 4.65813C9.34792 4.66163 9.3486 4.6651 9.34994 4.66833C9.35129 4.67156 9.35327 4.67448 9.35578 4.67692C9.35829 4.67936 9.36126 4.68127 9.36453 4.68254L9.44086 4.71422H9.45238C9.45758 4.71434 9.46269 4.71289 9.46706 4.71007C9.47143 4.70724 9.47484 4.70317 9.47686 4.69838L9.49991 4.63933L9.40197 4.55435C9.39753 4.55502 9.39333 4.55683 9.38979 4.5596C9.38626 4.56238 9.38351 4.56603 9.38181 4.57019ZM9.40917 4.64365L9.42069 4.61484L9.4495 4.62637L9.43798 4.65517L9.40917 4.64365Z" fill="#CF4520"/>
<path d="M9.29404 4.91843L9.28683 4.93715H9.31996L9.32284 4.92995L9.29404 4.91843Z" fill="#CF4520"/>
<path d="M9.38246 4.90565C9.38123 4.90236 9.37931 4.89937 9.37682 4.89688C9.37434 4.8944 9.37134 4.89248 9.36805 4.89125L9.29028 4.85956C9.28707 4.85816 9.28362 4.85742 9.28012 4.85739C9.27662 4.85736 9.27315 4.85804 9.26992 4.85939C9.26669 4.86073 9.26376 4.86272 9.26132 4.86522C9.25888 4.86773 9.25698 4.8707 9.25571 4.87397L9.22979 4.93878H9.2874L9.2946 4.92005L9.3234 4.93158V4.93878H9.38102V4.92869C9.38313 4.92527 9.38437 4.92137 9.38462 4.91735C9.38487 4.91333 9.38413 4.90931 9.38246 4.90565Z" fill="#CF4520"/>
<path d="M10.5233 1.27916L10.5262 1.27484L10.5017 1.25323L10.4959 1.26764L10.5233 1.27916Z" fill="#CF4520"/>
<path d="M10.4332 1.2919C10.4341 1.29536 10.436 1.29852 10.4385 1.30105C10.441 1.30358 10.4442 1.30539 10.4476 1.3063L10.524 1.33943H10.5341C10.5395 1.33966 10.5448 1.3381 10.5493 1.33497C10.5537 1.33184 10.557 1.32733 10.5585 1.32214V1.30918L10.5168 1.27317L10.4894 1.26165V1.24725L10.4462 1.21124L10.4246 1.26597C10.4233 1.27066 10.4234 1.27564 10.425 1.28025C10.4265 1.28487 10.4294 1.28892 10.4332 1.2919Z" fill="#CF4520"/>
<path d="M10.3583 1.57283L10.3309 1.56131L10.3179 1.59012L10.3468 1.60164L10.3583 1.57283Z" fill="#CF4520"/>
<path d="M10.3516 1.66085H10.3718C10.3751 1.65962 10.3781 1.6577 10.3806 1.65521C10.383 1.65273 10.385 1.64974 10.3862 1.64644L10.4179 1.56867C10.4193 1.56546 10.42 1.56201 10.42 1.55851C10.4201 1.55501 10.4194 1.55154 10.418 1.54831C10.4167 1.54508 10.4147 1.54216 10.4122 1.53972C10.4097 1.53727 10.4067 1.53536 10.4035 1.5341L10.3271 1.50242C10.324 1.50098 10.3205 1.50024 10.3171 1.50024C10.3136 1.50024 10.3101 1.50098 10.307 1.50242C10.3036 1.50355 10.3006 1.50544 10.2981 1.50794C10.2956 1.51044 10.2937 1.51348 10.2926 1.51682L10.2609 1.59315V1.6162C10.2637 1.62181 10.2682 1.62637 10.2738 1.62916L10.3516 1.66085ZM10.3315 1.56147L10.3588 1.57299L10.3473 1.60179L10.3199 1.59027L10.3315 1.56147Z" fill="#CF4520"/>
<path d="M10.6867 1.66666L10.6752 1.69461L10.7031 1.70617L10.7147 1.67822L10.6867 1.66666Z" fill="#CF4520"/>
<path d="M10.6808 1.60572C10.6743 1.60327 10.6671 1.6034 10.6607 1.60608C10.6542 1.60875 10.6491 1.61377 10.6462 1.62012L10.6145 1.69789C10.6131 1.70101 10.6123 1.70438 10.6122 1.70782C10.612 1.71125 10.6126 1.71467 10.6138 1.71789C10.615 1.7211 10.6168 1.72405 10.6192 1.72655C10.6215 1.72905 10.6244 1.73106 10.6275 1.73246L10.7053 1.76415H10.7154H10.7254C10.7287 1.76292 10.7317 1.761 10.7342 1.75851C10.7367 1.75603 10.7386 1.75304 10.7398 1.74974L10.7715 1.67341C10.7732 1.67024 10.7741 1.66675 10.7742 1.66318C10.7744 1.65962 10.7737 1.65607 10.7724 1.65278C10.771 1.64948 10.7689 1.64653 10.7663 1.64412C10.7637 1.64172 10.7605 1.63991 10.7571 1.63884L10.6808 1.60572ZM10.701 1.70509L10.6736 1.69357L10.6851 1.66621L10.7125 1.67773L10.701 1.70509Z" fill="#CF4520"/>
<path d="M10.4958 2.01473L10.5246 2.02769L10.5361 1.99889L10.5073 1.98737L10.4958 2.01473Z" fill="#CF4520"/>
<path d="M10.5045 1.9285C10.5013 1.9271 10.4979 1.92636 10.4944 1.92633C10.4909 1.9263 10.4874 1.92698 10.4842 1.92832C10.4809 1.92967 10.478 1.93166 10.4756 1.93416C10.4731 1.93667 10.4712 1.93964 10.4699 1.94291L10.4368 2.02068C10.4344 2.02719 10.4345 2.03439 10.4372 2.04081C10.4399 2.04723 10.4449 2.05239 10.4512 2.05525L10.529 2.08693H10.5391C10.5443 2.08705 10.5494 2.08561 10.5538 2.08278C10.5581 2.07996 10.5615 2.07588 10.5636 2.07109L10.5953 1.99331C10.5967 1.99011 10.5974 1.98665 10.5974 1.98315C10.5975 1.97966 10.5968 1.97619 10.5954 1.97296C10.5941 1.96973 10.5921 1.9668 10.5896 1.96436C10.5871 1.96192 10.5841 1.96001 10.5809 1.95875L10.5045 1.9285ZM10.5247 2.02788L10.4959 2.01636L10.5088 1.98755L10.5362 1.99908L10.5247 2.02788Z" fill="#CF4520"/>
<path d="M11.0169 1.79888L10.9881 1.78735L10.9765 1.81616L11.0054 1.82768L11.0169 1.79888Z" fill="#CF4520"/>
<path d="M11.0098 1.88665H11.0199C11.0252 1.88646 11.0304 1.88472 11.0347 1.88165C11.0391 1.87858 11.0424 1.87431 11.0444 1.86936L11.0761 1.79159C11.0785 1.78507 11.0784 1.77788 11.0757 1.77146C11.073 1.76504 11.068 1.75987 11.0617 1.75702L10.9839 1.72534C10.9774 1.72322 10.9703 1.72351 10.9639 1.72615C10.9576 1.72879 10.9524 1.73361 10.9493 1.73974L10.9176 1.81751C10.9152 1.82403 10.9153 1.83123 10.918 1.83765C10.9207 1.84407 10.9257 1.84923 10.932 1.85208L11.0098 1.88665ZM10.9882 1.78727L11.017 1.79879L11.0055 1.82759L10.9767 1.81607L10.9882 1.78727Z" fill="#CF4520"/>
<path d="M10.385 2.29346L10.3734 2.32141L10.4014 2.33296L10.4129 2.30501L10.385 2.29346Z" fill="#CF4520"/>
<path d="M10.4557 2.26423L10.3779 2.23255C10.3747 2.23115 10.3712 2.23041 10.3677 2.23038C10.3642 2.23035 10.3608 2.23103 10.3575 2.23237C10.3543 2.23372 10.3514 2.2357 10.3489 2.23821C10.3465 2.24071 10.3446 2.24369 10.3433 2.24695L10.3116 2.32473C10.3102 2.32793 10.3095 2.33139 10.3095 2.33489C10.3094 2.33839 10.3101 2.34185 10.3115 2.34508C10.3128 2.34831 10.3148 2.35124 10.3173 2.35368C10.3198 2.35612 10.3228 2.35803 10.326 2.35929L10.4024 2.39098H10.4124C10.4177 2.39131 10.4229 2.38995 10.4273 2.3871C10.4317 2.38425 10.4351 2.38005 10.4369 2.37514L10.4701 2.29736C10.4718 2.29103 10.4713 2.28429 10.4687 2.27826C10.4661 2.27224 10.4615 2.26729 10.4557 2.26423ZM10.398 2.33193L10.3707 2.32041L10.3822 2.2916L10.4096 2.30312L10.398 2.33193Z" fill="#CF4520"/>
<path d="M10.8501 2.12021L10.8789 2.13173L10.8904 2.10292L10.863 2.0914L10.8501 2.12021Z" fill="#CF4520"/>
<path d="M10.8654 2.03202C10.8622 2.03062 10.8587 2.02988 10.8552 2.02985C10.8517 2.02982 10.8483 2.03049 10.845 2.03184C10.8418 2.03319 10.8389 2.03517 10.8364 2.03768C10.834 2.04018 10.8321 2.04316 10.8308 2.04642L10.7977 2.1242C10.7956 2.13073 10.7959 2.1378 10.7985 2.14414C10.8012 2.15048 10.806 2.15566 10.8121 2.15876L10.8899 2.19045H10.9C10.9053 2.19026 10.9104 2.18853 10.9148 2.18546C10.9191 2.18239 10.9225 2.17811 10.9245 2.17316L10.9561 2.09539C10.9575 2.09218 10.9583 2.08873 10.9583 2.08523C10.9583 2.08173 10.9577 2.07826 10.9563 2.07503C10.955 2.0718 10.953 2.06888 10.9505 2.06644C10.948 2.06399 10.945 2.06209 10.9417 2.06082L10.8654 2.03202ZM10.8856 2.1314L10.8568 2.11987L10.8697 2.09107L10.8971 2.10259L10.8856 2.1314Z" fill="#CF4520"/>
<path d="M10.6723 2.44134L10.7011 2.4543L10.7127 2.42549L10.6839 2.41397L10.6723 2.44134Z" fill="#CF4520"/>
<path d="M10.6811 2.35462C10.6779 2.35298 10.6744 2.35206 10.6708 2.35192C10.6673 2.35177 10.6637 2.35241 10.6604 2.35378C10.6571 2.35515 10.6542 2.35723 10.6518 2.35986C10.6494 2.36249 10.6476 2.36562 10.6465 2.36902L10.6134 2.4468C10.6109 2.45331 10.6111 2.46051 10.6137 2.46693C10.6164 2.47335 10.6214 2.47851 10.6278 2.48136L10.7056 2.51305H10.7214C10.7266 2.51317 10.7317 2.51172 10.7361 2.5089C10.7404 2.50607 10.7439 2.502 10.7459 2.49721L10.7776 2.41943C10.779 2.41622 10.7797 2.41277 10.7797 2.40927C10.7798 2.40577 10.7791 2.4023 10.7777 2.39907C10.7764 2.39584 10.7744 2.39292 10.7719 2.39048C10.7694 2.38803 10.7664 2.38613 10.7632 2.38486L10.6811 2.35462ZM10.7012 2.454L10.6724 2.44248L10.6839 2.41367L10.7128 2.42519L10.7012 2.454Z" fill="#CF4520"/>
<path d="M11.1532 2.24273L11.182 2.25426L11.1935 2.22545L11.1647 2.21393L11.1532 2.24273Z" fill="#CF4520"/>
<path d="M11.1605 2.15482C11.154 2.15238 11.1468 2.15251 11.1404 2.15518C11.134 2.15786 11.1288 2.16288 11.1259 2.16922L11.0943 2.247C11.0918 2.25351 11.0919 2.26071 11.0946 2.26713C11.0973 2.27355 11.1023 2.27871 11.1087 2.28156L11.1864 2.31325H11.1965C11.2017 2.31337 11.2068 2.31192 11.2112 2.3091C11.2156 2.30627 11.219 2.3022 11.221 2.29741L11.2527 2.21963C11.2551 2.21312 11.255 2.20592 11.2523 2.1995C11.2496 2.19308 11.2446 2.18792 11.2383 2.18506L11.1605 2.15482ZM11.1821 2.2542L11.1533 2.24268L11.1648 2.21387L11.1936 2.22539L11.1821 2.2542Z" fill="#CF4520"/>
<path d="M10.5472 2.74538L10.5746 2.7569L10.5861 2.72954L10.5587 2.71802L10.5472 2.74538Z" fill="#CF4520"/>
<path d="M10.6327 2.69032L10.5549 2.65864C10.5517 2.65723 10.5482 2.6565 10.5447 2.65646C10.5412 2.65643 10.5378 2.65711 10.5345 2.65846C10.5313 2.6598 10.5284 2.66179 10.5259 2.66429C10.5235 2.6668 10.5216 2.66978 10.5203 2.67304L10.4886 2.74937C10.4858 2.75364 10.4843 2.75865 10.4843 2.76377C10.4843 2.7689 10.4858 2.77391 10.4886 2.77818H10.6183L10.6399 2.72633C10.643 2.72043 10.6441 2.7136 10.6427 2.70703C10.6414 2.70046 10.6379 2.69455 10.6327 2.69032ZM10.575 2.75801L10.5477 2.74505L10.5592 2.71769L10.5866 2.72921L10.575 2.75801Z" fill="#CF4520"/>
<path d="M11.0266 2.54629L11.0554 2.55781L11.067 2.52901L11.0382 2.51749L11.0266 2.54629Z" fill="#CF4520"/>
<path d="M11.0354 2.45859C11.0322 2.45719 11.0287 2.45645 11.0252 2.45642C11.0217 2.45639 11.0183 2.45707 11.015 2.45842C11.0118 2.45976 11.0089 2.46175 11.0064 2.46425C11.004 2.46676 11.0021 2.46973 11.0008 2.473L10.9677 2.55077C10.9653 2.55728 10.9654 2.56448 10.9681 2.5709C10.9707 2.57732 10.9758 2.58249 10.9821 2.58534L11.0599 2.61702H11.07C11.0752 2.61714 11.0803 2.6157 11.0846 2.61287C11.089 2.61005 11.0924 2.60597 11.0945 2.60118L11.1261 2.52341C11.1275 2.5202 11.1283 2.51674 11.1283 2.51324C11.1283 2.50975 11.1277 2.50628 11.1263 2.50305C11.125 2.49982 11.123 2.49689 11.1205 2.49445C11.118 2.49201 11.115 2.4901 11.1117 2.48884L11.0354 2.45859ZM11.0556 2.55797L11.0268 2.54645L11.0383 2.51764L11.0671 2.52917L11.0556 2.55797Z" fill="#CF4520"/>
<path d="M11.5075 2.34625L11.5363 2.35777L11.5478 2.32897L11.519 2.31744L11.5075 2.34625Z" fill="#CF4520"/>
<path d="M11.5147 2.25845C11.5082 2.25633 11.5011 2.25662 11.4948 2.25927C11.4884 2.26191 11.4833 2.26672 11.4802 2.27285L11.4485 2.35062C11.4471 2.35383 11.4463 2.35729 11.4463 2.36078C11.4463 2.36428 11.4469 2.36775 11.4483 2.37098C11.4496 2.37421 11.4516 2.37714 11.4541 2.37958C11.4566 2.38202 11.4596 2.38393 11.4629 2.38519L11.5406 2.41688H11.5507C11.556 2.41669 11.5612 2.41495 11.5655 2.41189C11.5699 2.40882 11.5732 2.40454 11.5752 2.39959L11.6069 2.32326C11.6083 2.32005 11.609 2.3166 11.6091 2.3131C11.6091 2.3096 11.6084 2.30613 11.6071 2.3029C11.6057 2.29967 11.6037 2.29675 11.6012 2.29431C11.5987 2.29186 11.5958 2.28995 11.5925 2.28869L11.5147 2.25845ZM11.5363 2.35783L11.5075 2.3463L11.519 2.3175L11.5478 2.33046L11.5363 2.35783Z" fill="#CF4520"/>
<path d="M11.3433 2.64124L11.3318 2.66919L11.3597 2.68074L11.3713 2.6528L11.3433 2.64124Z" fill="#CF4520"/>
<path d="M11.3382 2.5809C11.3317 2.57846 11.3245 2.57859 11.3181 2.58127C11.3117 2.58394 11.3065 2.58896 11.3037 2.59531L11.272 2.67308C11.2695 2.6796 11.2697 2.68679 11.2723 2.69322C11.275 2.69964 11.28 2.7048 11.2864 2.70765L11.3642 2.73934H11.3843C11.3905 2.73609 11.3955 2.73107 11.3987 2.72493L11.4304 2.64716C11.4328 2.64064 11.4327 2.63345 11.43 2.62702C11.4274 2.6206 11.4223 2.61544 11.416 2.61259L11.3382 2.5809ZM11.3598 2.68028L11.331 2.66876L11.3425 2.63996L11.3714 2.65148L11.3598 2.68028Z" fill="#CF4520"/>
<path d="M11.827 2.44247L11.8155 2.47043L11.8434 2.48197L11.855 2.45402L11.827 2.44247Z" fill="#CF4520"/>
<path d="M11.7844 2.39524L11.7527 2.47302C11.7513 2.47622 11.7506 2.47968 11.7505 2.48318C11.7505 2.48668 11.7512 2.49015 11.7525 2.49338C11.7539 2.49661 11.7559 2.49953 11.7584 2.50197C11.7609 2.50441 11.7638 2.50632 11.7671 2.50758L11.8434 2.53927H11.8535C11.8589 2.53928 11.8641 2.53762 11.8685 2.53453C11.8729 2.53143 11.8762 2.52705 11.878 2.52199L11.9025 2.46294L11.8046 2.37796C11.7999 2.3786 11.7955 2.38057 11.7919 2.38363C11.7884 2.3867 11.7857 2.39073 11.7844 2.39524ZM11.8118 2.4687L11.8233 2.43989L11.8521 2.45285L11.8391 2.48022L11.8118 2.4687Z" fill="#CF4520"/>
<path d="M11.6967 2.74353L11.6895 2.76225H11.7226L11.7255 2.75505L11.6967 2.74353Z" fill="#CF4520"/>
<path d="M11.7839 2.731C11.7807 2.72486 11.7756 2.71984 11.7695 2.71659L11.6917 2.68491C11.6852 2.68247 11.678 2.6826 11.6716 2.68527C11.6652 2.68795 11.66 2.69297 11.6572 2.69931L11.6312 2.76412H11.6888V2.74396L11.7177 2.75548H11.7753V2.74396C11.7795 2.74069 11.7825 2.73614 11.7839 2.731Z" fill="#CF4520"/>
<path d="M13.1929 2.78266L10.1251 0.0807059L10.1064 0.0677429L10.0848 0.0519009L10.0546 0.0360578L10.0315 0.0245353C10.02 0.0194003 10.0079 0.0155366 9.9955 0.0130129H9.97245C9.95184 0.0115315 9.93114 0.0115315 9.91052 0.0130129H3.49986C3.21076 0.0075973 2.93127 0.116792 2.7224 0.316752C2.51354 0.516713 2.39227 0.791193 2.38509 1.08026V2.19215H1.11477C0.825452 2.18597 0.545516 2.29491 0.336483 2.49503C0.12745 2.69515 0.00642416 2.97008 0 3.25939V14.9458C0.00680202 15.235 0.127947 15.5097 0.336896 15.7097C0.545845 15.9097 0.825561 16.0188 1.11477 16.013H9.8025C10.0917 16.0188 10.3714 15.9097 10.5804 15.7097C10.7893 15.5097 10.9105 15.235 10.9173 14.9458V13.8339H12.189C12.4781 13.8397 12.7577 13.7306 12.9664 13.5305C13.1751 13.3304 13.2959 13.0557 13.3024 12.7666V3.02606C13.3023 2.98008 13.2925 2.93463 13.2736 2.89268C13.2547 2.85074 13.2272 2.81325 13.1929 2.78266ZM10.2346 1.04137L12.1833 2.75817H10.2346V1.04137ZM10.2691 14.9328C10.2625 15.0501 10.2096 15.16 10.1222 15.2385C10.0348 15.3171 9.91986 15.3578 9.8025 15.3519H1.11477C0.997412 15.3578 0.882482 15.3171 0.79506 15.2385C0.707638 15.16 0.65482 15.0501 0.648123 14.9328V3.24643C0.65482 3.12911 0.707638 3.01921 0.79506 2.94069C0.882482 2.86217 0.997412 2.82141 1.11477 2.82731H7.20137V5.25993C7.20137 5.34588 7.23551 5.4283 7.29628 5.48907C7.35706 5.54985 7.43948 5.58399 7.52543 5.58399H10.2691V14.9328ZM7.84949 4.93587V3.21906L9.79819 4.93587H7.84949ZM12.189 13.1728H10.9173V5.20376C10.9172 5.15777 10.9074 5.11232 10.8885 5.07038C10.8696 5.02843 10.8421 4.99094 10.8078 4.96035L7.73859 2.25984L7.7213 2.24544L7.69971 2.22959L7.66946 2.21375L7.64498 2.20223L7.61041 2.19071H7.58736C7.56677 2.18858 7.54602 2.18858 7.52543 2.19071H3.03322V1.07882C3.04028 0.961636 3.09321 0.851954 3.18055 0.773512C3.26789 0.695071 3.3826 0.654181 3.49986 0.659695H9.58646V3.09376C9.58646 3.1797 9.6206 3.26213 9.68137 3.3229C9.74215 3.38368 9.82458 3.41782 9.91052 3.41782H12.647V12.7652C12.6378 12.879 12.5851 12.9849 12.4998 13.0609C12.4145 13.1368 12.3032 13.1769 12.189 13.1728Z" fill="#CF4520"/>
<path d="M2.10977 7.26339H6.0518C6.13775 7.26339 6.22018 7.22925 6.28095 7.16847C6.34173 7.1077 6.37587 7.02527 6.37587 6.93933C6.37587 6.85338 6.34173 6.77095 6.28095 6.71018C6.22018 6.64941 6.13775 6.61526 6.0518 6.61526H2.10977C2.02383 6.61526 1.9414 6.64941 1.88063 6.71018C1.81985 6.77095 1.78571 6.85338 1.78571 6.93933C1.78571 7.02527 1.81985 7.1077 1.88063 7.16847C1.9414 7.22925 2.02383 7.26339 2.10977 7.26339Z" fill="#CF4520"/>
<path d="M1.79132 9.08224C1.79132 9.16819 1.82546 9.25061 1.88623 9.31139C1.94701 9.37216 2.02944 9.4063 2.11538 9.4063H8.74784C8.83379 9.4063 8.91622 9.37216 8.97699 9.31139C9.03776 9.25061 9.0719 9.16819 9.0719 9.08224C9.0719 8.99629 9.03776 8.91387 8.97699 8.85309C8.91622 8.79232 8.83379 8.75818 8.74784 8.75818H2.10962C2.02468 8.75969 1.94372 8.7945 1.88419 8.85511C1.82465 8.91572 1.79131 8.99728 1.79132 9.08224Z" fill="#CF4520"/>
<path d="M8.74799 10.9031H2.10977C2.02383 10.9031 1.9414 10.9372 1.88063 10.998C1.81985 11.0588 1.78571 11.1412 1.78571 11.2271C1.78571 11.3131 1.81985 11.3955 1.88063 11.4563C1.9414 11.5171 2.02383 11.5512 2.10977 11.5512H8.74799C8.83394 11.5512 8.91637 11.5171 8.97714 11.4563C9.03791 11.3955 9.07205 11.3131 9.07205 11.2271C9.07205 11.1412 9.03791 11.0588 8.97714 10.998C8.91637 10.9372 8.83394 10.9031 8.74799 10.9031Z" fill="#CF4520"/>
<path d="M8.74799 13.053H2.10977C2.02383 13.053 1.9414 13.0871 1.88063 13.1479C1.81985 13.2087 1.78571 13.2911 1.78571 13.377C1.78571 13.463 1.81985 13.5454 1.88063 13.6062C1.9414 13.667 2.02383 13.7011 2.10977 13.7011H8.74799C8.83394 13.7011 8.91637 13.667 8.97714 13.6062C9.03791 13.5454 9.07205 13.463 9.07205 13.377C9.07205 13.2911 9.03791 13.2087 8.97714 13.1479C8.91637 13.0871 8.83394 13.053 8.74799 13.053Z" fill="#CF4520"/>
</g>
<defs>
<clipPath id="clip0_3050_28992">
<rect width="13.3024" height="16" fill="white"/>
</clipPath>
</defs>
</svg>
