<svg width="260" height="320" viewBox="0 0 13 16" fill="none" xmlns="http://www.w3.org/2000/svg">
<g clip-path="url(#clip0_3050_30264)">
<path d="M9.48281 1.38066L9.48631 1.3754L9.45653 1.34912L9.44952 1.36664L9.48281 1.38066Z" fill="#00843D"/>
<path d="M9.37842 1.39794C9.38179 1.40581 9.38807 1.41209 9.39594 1.41545L9.48879 1.45399H9.50105C9.50738 1.45414 9.5136 1.45238 9.51891 1.44894C9.52422 1.44551 9.52838 1.44055 9.53084 1.43472V1.41896L9.48003 1.37341L9.44674 1.35939V1.34188L9.39419 1.29633L9.36791 1.36465C9.36593 1.3706 9.36589 1.37701 9.36778 1.38299C9.36967 1.38897 9.37339 1.3942 9.37842 1.39794Z" fill="#00843D"/>
<path d="M9.28141 1.73792L9.24638 1.72391L9.23236 1.75895L9.2674 1.77296L9.28141 1.73792Z" fill="#00843D"/>
<path d="M9.27211 1.84634H9.28438H9.29664C9.30059 1.84526 9.30423 1.84326 9.30727 1.84053C9.31031 1.83779 9.31267 1.83438 9.31416 1.83057L9.3527 1.73597C9.35441 1.73207 9.35531 1.72787 9.35535 1.72361C9.35538 1.71936 9.35456 1.71514 9.35292 1.71121C9.35128 1.70728 9.34887 1.70372 9.34582 1.70075C9.34277 1.69778 9.33915 1.69546 9.33518 1.69393L9.24233 1.65538C9.23848 1.65364 9.2343 1.65274 9.23007 1.65274C9.22584 1.65274 9.22166 1.65364 9.21781 1.65538C9.21351 1.6563 9.20957 1.65844 9.20646 1.66155C9.20335 1.66466 9.20121 1.6686 9.20029 1.6729L9.16174 1.764V1.79203C9.16514 1.79887 9.17068 1.8044 9.17751 1.80779L9.27211 1.84634ZM9.24758 1.72546L9.28087 1.73947L9.26686 1.77276L9.23358 1.75875L9.24758 1.72546Z" fill="#00843D"/>
<path d="M9.68126 1.85477L9.66721 1.88876L9.7012 1.90282L9.71525 1.86882L9.68126 1.85477Z" fill="#00843D"/>
<path d="M9.67415 1.78002C9.67025 1.77831 9.66606 1.77741 9.6618 1.77738C9.65754 1.77734 9.65332 1.77816 9.6494 1.77979C9.64547 1.78143 9.64191 1.78384 9.63894 1.78689C9.63597 1.78994 9.63364 1.79356 9.63211 1.79753L9.59357 1.89039C9.59183 1.89441 9.59091 1.89874 9.59085 1.90312C9.5908 1.9075 9.5916 1.91185 9.59323 1.91592C9.59486 1.91999 9.59727 1.92369 9.60034 1.92683C9.6034 1.92996 9.60705 1.93247 9.61108 1.93418L9.70394 1.97272H9.72846C9.73633 1.96935 9.74262 1.96308 9.74598 1.95521L9.78452 1.8606C9.78622 1.8567 9.78712 1.85249 9.78716 1.84824C9.7872 1.84398 9.78638 1.83976 9.78474 1.83583C9.78311 1.8319 9.78069 1.82836 9.77764 1.82539C9.7746 1.82242 9.77097 1.82009 9.767 1.81855L9.67415 1.78002ZM9.69868 1.9009L9.66539 1.88688L9.67941 1.85184L9.7127 1.86586L9.69868 1.9009Z" fill="#00843D"/>
<path d="M9.44852 2.27729L9.48355 2.2913L9.49757 2.25626L9.46253 2.24225L9.44852 2.27729Z" fill="#00843D"/>
<path d="M9.45903 2.17082C9.45111 2.16785 9.44236 2.16801 9.43455 2.17126C9.42674 2.17451 9.42046 2.18062 9.41699 2.18834L9.3767 2.28294C9.37413 2.29089 9.37448 2.29949 9.37769 2.3072C9.38091 2.3149 9.38676 2.32122 9.39421 2.32499L9.48881 2.36352H9.50108C9.50755 2.3633 9.51382 2.3612 9.5191 2.35746C9.52439 2.35373 9.52849 2.34852 9.53087 2.3425L9.5694 2.24966C9.57139 2.2458 9.57251 2.24156 9.57269 2.23722C9.57286 2.23289 9.57209 2.22857 9.57042 2.22456C9.56875 2.22056 9.56623 2.21697 9.56303 2.21404C9.55983 2.21111 9.55603 2.20892 9.55189 2.20762L9.45903 2.17082ZM9.48356 2.2917L9.44852 2.27768L9.46429 2.24264L9.49758 2.25842L9.48356 2.2917Z" fill="#00843D"/>
<path d="M10.0828 2.01289L10.0477 1.99887L10.0337 2.03391L10.0688 2.04792L10.0828 2.01289Z" fill="#00843D"/>
<path d="M10.0729 2.12166H10.0852C10.0915 2.12181 10.0977 2.12005 10.103 2.11661C10.1084 2.11318 10.1125 2.10822 10.115 2.10239L10.1535 2.00779C10.1552 2.00389 10.1561 1.99969 10.1561 1.99543C10.1562 1.99118 10.1554 1.98696 10.1537 1.98303C10.1521 1.9791 10.1497 1.97554 10.1466 1.97257C10.1436 1.9696 10.14 1.96729 10.136 1.96575L10.0414 1.9272C10.0375 1.9255 10.0333 1.9246 10.029 1.92456C10.0248 1.92452 10.0206 1.92535 10.0166 1.92699C10.0127 1.92863 10.0091 1.93104 10.0062 1.93409C10.0032 1.93714 10.0009 1.94076 9.99935 1.94473L9.9608 2.03757C9.9591 2.04147 9.9582 2.04568 9.95816 2.04993C9.95812 2.05419 9.95895 2.05841 9.96059 2.06234C9.96223 2.06627 9.96464 2.06982 9.96769 2.07279C9.97074 2.07576 9.97436 2.07808 9.97833 2.07962L10.0729 2.12166ZM10.0466 2.00079L10.0817 2.0148L10.0677 2.04984L10.0326 2.03407L10.0466 2.00079Z" fill="#00843D"/>
<path d="M9.31156 2.62011L9.29752 2.65411L9.33152 2.66816L9.34557 2.63415L9.31156 2.62011Z" fill="#00843D"/>
<path d="M9.39893 2.57869L9.30432 2.54014C9.2964 2.53717 9.28765 2.53734 9.27984 2.54059C9.27203 2.54384 9.26575 2.54995 9.26228 2.55767L9.22374 2.65226C9.22204 2.65616 9.22114 2.66037 9.2211 2.66462C9.22106 2.66888 9.22188 2.6731 9.22352 2.67703C9.22515 2.68096 9.22757 2.68452 9.23062 2.68749C9.23367 2.69046 9.23729 2.69277 9.24126 2.69431L9.3341 2.73285H9.34637C9.35296 2.73314 9.35946 2.73124 9.36485 2.72743C9.37024 2.72363 9.37422 2.71814 9.37616 2.71183L9.41645 2.61898C9.41825 2.61127 9.41752 2.60318 9.41436 2.59592C9.4112 2.58867 9.4058 2.58263 9.39893 2.57869ZM9.32885 2.66102L9.29556 2.647L9.30958 2.61197L9.34461 2.62773L9.32885 2.66102Z" fill="#00843D"/>
<path d="M9.87854 2.40369L9.91358 2.41771L9.92759 2.38442L9.89256 2.36865L9.87854 2.40369Z" fill="#00843D"/>
<path d="M9.88926 2.29838C9.88541 2.29639 9.88116 2.29527 9.87683 2.2951C9.87249 2.29492 9.86817 2.2957 9.86417 2.29737C9.86016 2.29903 9.85656 2.30156 9.85364 2.30477C9.85071 2.30797 9.84853 2.31177 9.84722 2.31591L9.80868 2.40875C9.80692 2.41254 9.80593 2.41665 9.80578 2.42082C9.80562 2.425 9.8063 2.42917 9.80777 2.43308C9.80923 2.43699 9.81146 2.44057 9.81432 2.44361C9.81718 2.44665 9.82063 2.44909 9.82445 2.4508L9.91904 2.4911H9.93131C9.93763 2.49124 9.94385 2.48948 9.94916 2.48604C9.95448 2.4826 9.95863 2.47765 9.96109 2.47182L9.99963 2.37722C10.0013 2.37332 10.0022 2.36911 10.0023 2.36486C10.0023 2.3606 10.0015 2.35638 9.99985 2.35245C9.99821 2.34853 9.9958 2.34498 9.99275 2.34201C9.9897 2.33904 9.98608 2.33671 9.98211 2.33518L9.88926 2.29838ZM9.91378 2.41751L9.88051 2.4035L9.89451 2.37022L9.9278 2.38422L9.91378 2.41751Z" fill="#00843D"/>
<path d="M9.66354 2.79605L9.69858 2.81007L9.7126 2.77503L9.67756 2.76102L9.66354 2.79605Z" fill="#00843D"/>
<path d="M9.67433 2.68938C9.67043 2.68767 9.66623 2.68678 9.66198 2.68674C9.65772 2.6867 9.6535 2.68752 9.64957 2.68915C9.64565 2.69079 9.64209 2.69321 9.63912 2.69625C9.63615 2.6993 9.63382 2.70292 9.63228 2.70689L9.59199 2.80149C9.58902 2.80941 9.58918 2.81818 9.59243 2.82599C9.59569 2.8338 9.60179 2.84008 9.60951 2.84355L9.70412 2.88208H9.71638C9.72285 2.88185 9.72911 2.87974 9.7344 2.87601C9.73969 2.87228 9.74378 2.86708 9.74616 2.86106L9.7847 2.76646C9.7864 2.76256 9.7873 2.75836 9.78734 2.7541C9.78738 2.74985 9.78656 2.74563 9.78492 2.7417C9.78329 2.73777 9.78087 2.73421 9.77782 2.73124C9.77478 2.72827 9.77115 2.72594 9.76718 2.72441L9.67433 2.68938ZM9.69886 2.81026L9.66382 2.79624L9.67784 2.7612L9.71288 2.77522L9.69886 2.81026Z" fill="#00843D"/>
<path d="M10.2487 2.55271L10.2838 2.56672L10.2978 2.53168L10.2627 2.51767L10.2487 2.55271Z" fill="#00843D"/>
<path d="M10.2575 2.44737C10.2536 2.44567 10.2494 2.44477 10.2451 2.44473C10.2409 2.4447 10.2367 2.44552 10.2327 2.44716C10.2288 2.4488 10.2253 2.45121 10.2223 2.45426C10.2193 2.45731 10.217 2.46092 10.2155 2.46489L10.1769 2.55774C10.1752 2.56164 10.1743 2.56584 10.1743 2.57009C10.1743 2.57435 10.1751 2.57857 10.1767 2.5825C10.1783 2.58643 10.1808 2.58999 10.1838 2.59296C10.1869 2.59593 10.1905 2.59825 10.1944 2.59979L10.289 2.63832H10.3013C10.3078 2.63834 10.3142 2.63633 10.3195 2.63256C10.3249 2.6288 10.3289 2.62346 10.3311 2.6173L10.3696 2.52446C10.3713 2.52056 10.3722 2.51635 10.3723 2.5121C10.3723 2.50784 10.3715 2.50362 10.3698 2.49969C10.3682 2.49577 10.3658 2.49221 10.3627 2.48924C10.3597 2.48627 10.3561 2.48395 10.3521 2.48241L10.2575 2.44737ZM10.2838 2.5665L10.2488 2.55248L10.2628 2.5192L10.2978 2.53322L10.2838 2.5665Z" fill="#00843D"/>
<path d="M9.50946 3.16587L9.5445 3.17988L9.55851 3.14484L9.52523 3.13083L9.50946 3.16587Z" fill="#00843D"/>
<path d="M9.61264 3.09724L9.51804 3.0587C9.51414 3.057 9.50994 3.0561 9.50568 3.05606C9.50143 3.05602 9.49721 3.05685 9.49328 3.05849C9.48935 3.06013 9.48579 3.06254 9.48282 3.06559C9.47985 3.06864 9.47752 3.07225 9.47599 3.07622L9.43745 3.17083C9.43414 3.17574 9.43237 3.18153 9.43237 3.18746C9.43237 3.19339 9.43414 3.1992 9.43745 3.20411H9.59513L9.6214 3.14104C9.62526 3.13386 9.6265 3.12556 9.6249 3.11757C9.62331 3.10957 9.61897 3.10238 9.61264 3.09724ZM9.54256 3.17958L9.50927 3.16557L9.52329 3.13053L9.55833 3.14454L9.54256 3.17958Z" fill="#00843D"/>
<path d="M10.0946 2.92203L10.1297 2.93605L10.1437 2.90101L10.1087 2.88699L10.0946 2.92203Z" fill="#00843D"/>
<path d="M10.1053 2.81514C10.0973 2.81217 10.0886 2.81232 10.0808 2.81558C10.073 2.81883 10.0667 2.82495 10.0632 2.83266L10.0229 2.92726C10.0212 2.93116 10.0203 2.93537 10.0203 2.93962C10.0203 2.94388 10.0211 2.9481 10.0227 2.95203C10.0243 2.95596 10.0268 2.9595 10.0298 2.96247C10.0329 2.96544 10.0365 2.96777 10.0405 2.96931L10.135 3.00785H10.1473C10.1538 3.00763 10.1601 3.00551 10.1653 3.00178C10.1706 2.99805 10.1747 2.99284 10.1771 2.98682L10.2156 2.89398C10.2173 2.89008 10.2182 2.88587 10.2183 2.88162C10.2183 2.87736 10.2175 2.87314 10.2159 2.86921C10.2142 2.86528 10.2118 2.86172 10.2088 2.85875C10.2057 2.85578 10.2021 2.85347 10.1981 2.85193L10.1053 2.81514ZM10.1298 2.93602L10.0948 2.922L10.1088 2.88872L10.1438 2.90273L10.1298 2.93602Z" fill="#00843D"/>
<path d="M10.6787 2.67873L10.7137 2.69275L10.7278 2.65946L10.6927 2.64545L10.6787 2.67873Z" fill="#00843D"/>
<path d="M10.6889 2.57332C10.685 2.57162 10.6808 2.57072 10.6765 2.57068C10.6723 2.57064 10.668 2.57147 10.6641 2.57311C10.6602 2.57474 10.6566 2.57716 10.6537 2.58021C10.6507 2.58325 10.6484 2.58688 10.6468 2.59085L10.6083 2.68544C10.6053 2.69337 10.6055 2.70212 10.6087 2.70993C10.612 2.71774 10.6181 2.72402 10.6258 2.72749L10.7204 2.76604H10.7327C10.739 2.76618 10.7452 2.76441 10.7505 2.76098C10.7558 2.75754 10.76 2.75259 10.7625 2.74676L10.801 2.65216C10.804 2.64424 10.8038 2.63548 10.8006 2.62767C10.7973 2.61986 10.7912 2.61358 10.7835 2.61011L10.6889 2.57332ZM10.7152 2.6942L10.6801 2.68018L10.6941 2.64515L10.7292 2.65916L10.7152 2.6942Z" fill="#00843D"/>
<path d="M10.4789 3.04139L10.4648 3.07538L10.4988 3.08943L10.5129 3.05544L10.4789 3.04139Z" fill="#00843D"/>
<path d="M10.4728 2.95882C10.4648 2.95625 10.4562 2.95661 10.4485 2.95982C10.4408 2.96303 10.4345 2.96889 10.4307 2.97634L10.3922 3.07095C10.3892 3.07887 10.3894 3.08762 10.3926 3.09543C10.3959 3.10324 10.402 3.10952 10.4097 3.11299L10.5043 3.15153H10.5166H10.5288C10.5367 3.14816 10.543 3.14189 10.5464 3.13401L10.5849 3.04116C10.5866 3.03726 10.5875 3.03306 10.5875 3.02881C10.5876 3.02455 10.5868 3.02033 10.5851 3.0164C10.5835 3.01247 10.5811 3.00892 10.578 3.00595C10.575 3.00298 10.5714 3.00065 10.5674 2.99911L10.4728 2.95882ZM10.4991 3.0797L10.464 3.06569L10.478 3.03065L10.5131 3.04642L10.4991 3.0797Z" fill="#00843D"/>
<path d="M11.0669 2.80074L11.0528 2.83475L11.0868 2.84879L11.1009 2.81478L11.0669 2.80074Z" fill="#00843D"/>
<path d="M11.0143 2.74012L10.9758 2.83298C10.974 2.837 10.9731 2.84133 10.9731 2.84571C10.973 2.8501 10.9738 2.85444 10.9754 2.85851C10.9771 2.86258 10.9795 2.86629 10.9825 2.86942C10.9856 2.87255 10.9893 2.87506 10.9933 2.87678L11.0861 2.91531H11.0984C11.1047 2.91546 11.1109 2.9137 11.1163 2.91027C11.1216 2.90683 11.1257 2.90187 11.1282 2.89604L11.158 2.82421L11.0388 2.72086C11.0334 2.72167 11.0283 2.72386 11.024 2.72724C11.0197 2.73062 11.0164 2.73506 11.0143 2.74012ZM11.0476 2.82772L11.0616 2.79443L11.0966 2.80845L11.0809 2.84349L11.0476 2.82772Z" fill="#00843D"/>
<path d="M10.909 3.16199L10.9002 3.18651L10.9405 3.18476L10.944 3.17775L10.909 3.16199Z" fill="#00843D"/>
<path d="M11.0143 3.14818C11.0109 3.14031 11.0046 3.13402 10.9967 3.13066L10.9021 3.09212C10.8982 3.09041 10.894 3.08952 10.8898 3.08948C10.8855 3.08944 10.8813 3.09027 10.8774 3.09191C10.8734 3.09354 10.8699 3.09596 10.8669 3.09901C10.8639 3.10205 10.8616 3.10567 10.8601 3.10963L10.8286 3.18672H10.8986V3.16394L10.9337 3.17796H11.0037V3.1657C11.0092 3.16128 11.0129 3.15508 11.0143 3.14818Z" fill="#00843D"/>
<path d="M12.5137 3.21839L8.97143 0.100028L8.94865 0.0825134L8.92237 0.0632345L8.88557 0.0439663L8.85579 0.0299589L8.81375 0.0159408H8.78573C8.76068 0.0133632 8.73543 0.0133632 8.71039 0.0159408H1.30691C0.967678 0.0093614 0.639655 0.137487 0.394699 0.372264C0.149743 0.607041 0.0078161 0.929326 0 1.26853V14.7581C0.0078161 15.0973 0.149743 15.4196 0.394699 15.6544C0.639655 15.8891 0.967678 16.0173 1.30691 16.0107H11.34C11.6792 16.0173 12.0072 15.8891 12.2522 15.6544C12.4971 15.4196 12.6391 15.0973 12.6469 14.7581V3.51446C12.6468 3.45852 12.6348 3.40323 12.6119 3.35222C12.589 3.3012 12.5555 3.2556 12.5137 3.21839ZM9.10456 1.26679L11.2822 3.1851H9.10456V1.26679ZM11.34 15.2223H1.30691C1.24187 15.2266 1.17661 15.218 1.11493 15.1969C1.05324 15.1758 0.996322 15.1428 0.947468 15.0996C0.898613 15.0565 0.858788 15.0041 0.830276 14.9455C0.801763 14.8868 0.785136 14.8232 0.781346 14.7581V1.26853C0.785136 1.20346 0.801763 1.13979 0.830276 1.08117C0.858788 1.02255 0.898613 0.970155 0.947468 0.927C0.996322 0.883845 1.05324 0.850778 1.11493 0.829718C1.17661 0.808658 1.24187 0.80002 1.30691 0.804291H8.31447V3.59505C8.31447 3.69959 8.35599 3.79985 8.42992 3.87377C8.50384 3.9477 8.6041 3.98922 8.70864 3.98922H11.862V14.7493C11.8594 14.8148 11.8437 14.8792 11.8159 14.9386C11.7881 14.9979 11.7487 15.0512 11.7001 15.0952C11.6515 15.1393 11.5947 15.1732 11.5328 15.195C11.471 15.2168 11.4054 15.2261 11.34 15.2223Z" fill="#00843D"/>
<path d="M2.3455 8.33547H6.90041C7.00495 8.33547 7.1052 8.29394 7.17912 8.22002C7.25305 8.1461 7.29458 8.04584 7.29458 7.94129C7.29458 7.83675 7.25305 7.73649 7.17912 7.66257C7.1052 7.58865 7.00495 7.54712 6.90041 7.54712H2.3455C2.24096 7.54712 2.1407 7.58865 2.06677 7.66257C1.99285 7.73649 1.95132 7.83675 1.95132 7.94129C1.95132 8.04584 1.99285 8.1461 2.06677 8.22002C2.1407 8.29394 2.24096 8.33547 2.3455 8.33547Z" fill="#00843D"/>
<path d="M10.0118 10.0752H2.3455C2.24096 10.0752 2.1407 10.1167 2.06677 10.1906C1.99285 10.2645 1.95132 10.3648 1.95132 10.4693C1.95132 10.5739 1.99285 10.6741 2.06677 10.7481C2.1407 10.822 2.24096 10.8635 2.3455 10.8635H10.0118C10.1163 10.8635 10.2166 10.822 10.2905 10.7481C10.3644 10.6741 10.4059 10.5739 10.4059 10.4693C10.4059 10.3648 10.3644 10.2645 10.2905 10.1906C10.2166 10.1167 10.1163 10.0752 10.0118 10.0752Z" fill="#00843D"/>
<path d="M10.0118 12.5504H2.3455C2.24096 12.5504 2.1407 12.5919 2.06677 12.6658C1.99285 12.7398 1.95132 12.84 1.95132 12.9446C1.95132 13.0491 1.99285 13.1494 2.06677 13.2233C2.1407 13.2972 2.24096 13.3387 2.3455 13.3387H10.0118C10.1163 13.3387 10.2166 13.2972 10.2905 13.2233C10.3644 13.1494 10.4059 13.0491 10.4059 12.9446C10.4059 12.84 10.3644 12.7398 10.2905 12.6658C10.2166 12.5919 10.1163 12.5504 10.0118 12.5504Z" fill="#00843D"/>
</g>
<defs>
<clipPath id="clip0_3050_30264">
<rect width="12.6469" height="16" fill="white"/>
</clipPath>
</defs>
</svg>
